<?xml version="1.0" standalone="no"?>
<!DOCTYPE svg PUBLIC "-//W3C//DTD SVG 1.1//EN" "http://www.w3.org/Graphics/SVG/1.1/DTD/svg11.dtd" >
<svg xmlns="http://www.w3.org/2000/svg">
<metadata>
This is a custom SVG webfont generated by Font Squirrel.
Copyright   :  2000 2004 Adobe Systems Incorporated All Rights Reserved US Patent D454582
Designer    : Robert Slimbach and Carol Twombly
Foundry URL : httpwwwadobecomtype
</metadata>
<defs>
<font id="MyriadProCondensed" horiz-adv-x="300" >
<font-face units-per-em="1000" ascent="750" descent="-250" />
<missing-glyph horiz-adv-x="157" />
<glyph unicode="ffj" horiz-adv-x="642" d="M568 677l-17 -60q-40 19 -80 19q-55 0 -76 -33t-21 -95v-24h217v-453q0 -75 -11 -116.5t-38 -68.5q-20 -21 -50.5 -33t-55.5 -13l-10 61q48 13 65 38q23 33 23 154v372h-140v-425h-77v425h-150v-425h-77v425h-61v59h61v18q0 98 52 147q39 39 101 39q35 0 67 -15l-22 -59 q-22 11 -44 11q-36 0 -55 -27q-22 -28 -22 -95v-19h150v32q0 75 42 129.5t134 54.5q57 0 95 -23z" />
<glyph unicode="fj" horiz-adv-x="415" d="M147 0h-77v425h-61v59h61v32q0 75 42 129.5t134 54.5q57 0 95 -23l-17 -60q-40 19 -80 19q-55 0 -76 -33t-21 -95v-24h217v-453q0 -75 -11 -116.5t-38 -68.5q-20 -21 -50.5 -33t-55.5 -13l-10 61q48 13 65 38q23 33 23 154v372h-140v-425z" />
<glyph unicode="&#xfb00;" horiz-adv-x="451" d="M370 0h-77v425h-146v-425h-77v425h-61v59h61v24q0 95 44 142q36 38 100 38q28 0 50 -9l-15 -61q-16 7 -36 7q-36 0 -51 -28.5t-15 -88.5v-24h146v29q0 97 43 146q37 41 96 41q37 0 61 -12l-13 -60q-18 8 -42 8q-68 0 -68 -122v-30h88v-59h-88v-425z" />
<glyph unicode="&#xfb01;" horiz-adv-x="418" d="M147 0h-77v425h-61v59h61v32q0 75 42 129.5t134 54.5q57 0 95 -23l-17 -60q-40 19 -80 19q-55 0 -76 -33t-21 -95v-24h217v-484h-77v425h-140v-425z" />
<glyph unicode="&#xfb02;" horiz-adv-x="418" d="M147 0h-77v425h-61v59h61v26q0 96 55 148q45 42 123 42q67 0 117 -25v-675h-77v627q-23 10 -53 10q-88 0 -88 -122v-31h83v-59h-83v-425z" />
<glyph unicode="&#xfb03;" horiz-adv-x="645" d="M568 677l-17 -60q-40 19 -80 19q-55 0 -76 -33t-21 -95v-24h217v-484h-77v425h-140v-425h-77v425h-150v-425h-77v425h-61v59h61v18q0 98 52 147q39 39 101 39q35 0 67 -15l-22 -59q-22 11 -44 11q-36 0 -55 -27q-22 -28 -22 -95v-19h150v32q0 75 42 129.5t134 54.5 q57 0 95 -23z" />
<glyph unicode="&#xfb04;" horiz-adv-x="645" d="M290 673l-22 -59q-22 11 -44 11q-36 0 -55 -27q-22 -28 -22 -95v-19h150v26q0 96 55 148q45 42 123 42q67 0 117 -25v-675h-77v627q-23 10 -53 10q-88 0 -88 -122v-31h83v-59h-83v-425h-77v425h-150v-425h-77v425h-61v59h61v18q0 98 52 147q39 39 101 39q35 0 67 -15z " />
<glyph unicode=" "  horiz-adv-x="157" />
<glyph unicode="&#x09;" horiz-adv-x="157" />
<glyph unicode="&#xa0;" horiz-adv-x="157" />
<glyph unicode="!" horiz-adv-x="204" d="M134 188h-64l-10 486h85zM102 -8h-1q-21 0 -34.5 15t-13.5 39t14 39.5t35 15.5q22 0 35.5 -15t13.5 -40q0 -24 -13 -39t-36 -15z" />
<glyph unicode="&#x22;" horiz-adv-x="309" d="M50 683h71l-14 -233h-43zM189 683h71l-13 -233h-44z" />
<glyph unicode="#" horiz-adv-x="385" d="M145 251h77l19 153h-77zM113 0h-52l26 199h-65v52h72l19 153h-69v51h76l25 195h51l-25 -195h78l25 195h50l-25 -195h64v-51h-71l-19 -153h70v-50h-76l-26 -201h-52l26 201h-77z" />
<glyph unicode="$" horiz-adv-x="385" d="M217 -84h-55v100q-62 1 -111 34l18 60q51 -32 102 -32q43 0 67.5 28.5t24.5 72.5q0 78 -86 130q-57 34 -90 71t-33 94q0 58 32.5 100t80.5 54v97h56v-91q57 0 96 -27l-20 -59q-41 25 -86 25q-39 0 -62 -26t-23 -61q0 -42 20 -65t74 -55q114 -66 114 -178q0 -68 -33 -111 t-86 -55v-106z" />
<glyph unicode="%" horiz-adv-x="645" d="M153 658h1q55 0 88 -53.5t33 -142.5q0 -97 -35.5 -147.5t-86.5 -50.5q-54 0 -88.5 53.5t-34.5 142.5q0 91 35 144.5t88 53.5zM153 610h-1q-33 0 -48 -44.5t-15 -104.5q0 -149 64 -149q63 0 63 148q0 150 -63 150zM173 -14h-49l346 677h49zM493 387h1q55 0 88 -54t33 -143 q0 -96 -35.5 -146.5t-86.5 -50.5q-55 0 -89 53t-34 143q0 91 35 144.5t88 53.5zM493 339h-1q-34 0 -48.5 -44.5t-14.5 -104.5t15.5 -105t48.5 -45q63 0 63 149q0 61 -14.5 105.5t-48.5 44.5z" />
<glyph unicode="&#x26;" horiz-adv-x="491" d="M474 0h-86l-46 63q-56 -71 -145 -71q-80 0 -124 55.5t-44 131.5q0 115 103 192v3q-49 78 -49 151q0 65 37.5 111t100.5 46q49 0 83.5 -36.5t34.5 -102.5q0 -51 -26.5 -93.5t-88.5 -87.5v-3q56 -94 128 -191q36 74 41 193h68q-14 -154 -73 -244q9 -15 86 -117zM209 53h1 q59 0 99 59q-64 87 -146 212q-60 -58 -60 -137q0 -55 28 -94.5t78 -39.5zM214 625h-1q-28 0 -43.5 -26.5t-15.5 -68.5q0 -63 38 -123q80 60 80 133q0 35 -14 60t-44 25z" />
<glyph unicode="'" horiz-adv-x="170" d="M50 683h71l-14 -233h-43z" />
<glyph unicode="(" horiz-adv-x="253" d="M168 692h60q-104 -164 -104 -407q0 -239 104 -405h-60q-110 161 -110 406q3 251 110 406z" />
<glyph unicode=")" horiz-adv-x="253" d="M85 -120h-60q104 164 104 407q0 241 -104 405h60q110 -157 110 -405q-3 -248 -110 -407z" />
<glyph unicode="*" horiz-adv-x="373" d="M244 682l54 -30l-85 -120v-2l135 17v-60l-135 15v-2l87 -115l-56 -32l-59 132l-2 -1l-60 -134l-51 33l85 120v1l-133 -17v60l131 -16l1 2l-83 116l52 30l60 -128h2z" />
<glyph unicode="+" horiz-adv-x="596" d="M270 532h56v-238h230v-54h-230v-240h-56v240h-230v54h230v238z" />
<glyph unicode="," horiz-adv-x="194" d="M70 -119l-53 -7q40 112 58 233l87 10q-16 -61 -44 -131.5t-48 -104.5z" />
<glyph unicode="-" horiz-adv-x="279" d="M30 291h219v-60h-219v60z" />
<glyph unicode="." horiz-adv-x="194" d="M100 -8h-1q-21 0 -35.5 16t-14.5 42q0 25 15 42t36 17q23 0 37 -16.5t14 -42.5q0 -27 -13.5 -42.5t-37.5 -15.5z" />
<glyph unicode="/" horiz-adv-x="281" d="M65 -40h-57l215 722h58z" />
<glyph unicode="0" horiz-adv-x="385" d="M198 658q78 0 119 -87.5t41 -244.5q0 -169 -46.5 -251.5t-122.5 -82.5t-119 87t-43 245q0 162 45 248t126 86zM194 592q-45 0 -67.5 -72.5t-22.5 -194.5q0 -124 22.5 -195.5t68.5 -71.5q86 0 86 267q0 121 -21.5 194t-65.5 73z" />
<glyph unicode="1" horiz-adv-x="385" d="M188 0v572h-2l-108 -62l-15 60l137 80h64v-650h-76z" />
<glyph unicode="2" horiz-adv-x="385" d="M345 0h-313v50l55 75q45 62 61.5 87t49 79t45.5 98t13 87q0 55 -24 85.5t-69 30.5q-11 0 -22 -2t-19 -4.5t-17.5 -7.5l-14 -7.5t-12.5 -8t-9 -6.5l-19 58q53 44 127 44q77 0 116 -50t39 -128q0 -82 -41.5 -163.5t-118.5 -186.5l-44 -60v-2h217v-68z" />
<glyph unicode="3" horiz-adv-x="385" d="M28 22l17 61q45 -27 94 -27q51 0 81.5 35t30.5 95q0 63 -36 98.5t-95 35.5h-18v58h15q42 1 79.5 31.5t37.5 84.5q0 48 -23.5 74t-62.5 26q-38 0 -81 -31l-17 58q47 37 117 37q67 0 105.5 -42.5t38.5 -107.5q0 -49 -25 -89.5t-72 -62.5v-2q49 -13 81.5 -56t32.5 -114 q0 -82 -50 -137t-136 -55q-71 0 -114 30z" />
<glyph unicode="4" horiz-adv-x="385" d="M304 0h-70v179h-216v52l211 419h75v-408h71v-63h-71v-179zM91 242h143v184q0 42 6 128h-4q-28 -66 -55 -123l-90 -187v-2z" />
<glyph unicode="5" horiz-adv-x="385" d="M333 650v-68h-175l-27 -173q8 2 24 2q29 0 64.5 -12.5t59.5 -36.5q54 -54 54 -148q0 -97 -55 -159.5t-142 -62.5q-67 0 -110 28l17 62q43 -26 91 -26q52 0 87.5 39.5t35.5 110.5q0 74 -40 110t-107 36q-33 0 -51 -3l41 301h233z" />
<glyph unicode="6" horiz-adv-x="385" d="M319 658v-65q-20 -2 -46 -7q-135 -32 -167 -234h3q42 62 110 62q63 0 101.5 -54t38.5 -146q0 -96 -42.5 -159t-117.5 -63q-82 0 -126 73.5t-44 190.5q0 179 84 293q28 40 70.5 67t86.5 36q16 3 49 6zM199 52h1q35 0 58.5 38.5t23.5 117.5q0 72 -23 109.5t-64 37.5 q-56 0 -84 -70q-6 -14 -6 -39q1 -96 27 -145t67 -49z" />
<glyph unicode="7" horiz-adv-x="385" d="M37 650h313v-46l-210 -604h-75l206 580v2h-234v68z" />
<glyph unicode="8" horiz-adv-x="385" d="M135 345l-1 2q-40 27 -62.5 67t-22.5 82q0 73 44.5 117.5t107.5 44.5q66 0 102.5 -46t36.5 -107q0 -94 -87 -153v-3q104 -69 104 -177q0 -77 -46.5 -128.5t-120.5 -51.5q-76 0 -119 50.5t-43 116.5q0 111 107 186zM193 49q38 0 63 30t25 88q0 89 -93 150 q-39 -24 -61.5 -63t-22.5 -82q0 -56 24 -89.5t65 -33.5zM195 601q-32 0 -52 -28t-20 -72q0 -45 21.5 -73t58.5 -52q65 47 65 120q0 48 -19 76.5t-54 28.5z" />
<glyph unicode="9" horiz-adv-x="385" d="M67 -8v66q23 0 48 6q52 13 89 51q61 68 76 185h-3q-43 -55 -105 -55t-102 53t-40 140q0 92 45.5 156t118.5 64q80 0 121.5 -73.5t41.5 -187.5q0 -186 -86 -301q-57 -78 -150 -99q-26 -5 -54 -5zM190 598h-1q-33 0 -58 -38t-25 -115q0 -70 24 -106t64 -36q24 0 46 15.5 t34 42.5q6 17 6 42q0 98 -24.5 146.5t-65.5 48.5z" />
<glyph unicode=":" horiz-adv-x="194" d="M100 359h-1q-21 0 -35 15.5t-14 40.5t14.5 41t35.5 16q23 0 36.5 -15.5t13.5 -41.5q0 -25 -13 -40.5t-37 -15.5zM100 -8h-1q-21 0 -35 15.5t-14 40.5t14.5 41.5t35.5 16.5q23 0 36.5 -16t13.5 -42q0 -25 -13 -40.5t-37 -15.5z" />
<glyph unicode=";" horiz-adv-x="194" d="M69 -119l-51 -7q40 112 58 233l85 10q-16 -61 -44 -131.5t-48 -104.5zM111 359h-1q-21 0 -35 15.5t-14 40.5t14.5 41t35.5 16q23 0 36.5 -15.5t13.5 -41.5q0 -25 -13 -40.5t-37 -15.5z" />
<glyph unicode="&#x3c;" horiz-adv-x="596" d="M66 242v48l464 242v-67l-388 -198v-2l388 -199v-66z" />
<glyph unicode="=" horiz-adv-x="596" d="M556 336h-516v55h516v-55zM556 147h-516v55h516v-55z" />
<glyph unicode="&#x3e;" horiz-adv-x="596" d="M530 295v-58l-464 -237v66l400 199v2l-400 199v66z" />
<glyph unicode="?" horiz-adv-x="309" d="M173 184h-68l-2 15q-16 95 42 190q2 4 11.5 20t11.5 20t9.5 17.5t9.5 18.5l6.5 16.5t5.5 18.5l2.5 17.5t1.5 20.5q0 41 -21 61t-56 20q-41 0 -66 -19l-16 60q38 26 99 26q70 0 104.5 -39.5t34.5 -98.5q0 -18 -3.5 -36t-8 -31.5t-14 -32t-15 -28t-18 -29.5t-16.5 -27 q-24 -42 -32 -78t-3 -85zM135 -8h-1q-21 0 -35 15.5t-14 39.5q0 25 14.5 41t35.5 16q23 0 36.5 -15.5t13.5 -41.5q0 -25 -13.5 -40t-36.5 -15z" />
<glyph unicode="@" horiz-adv-x="590" d="M348 233l29 146q-9 5 -28 5q-55 0 -95.5 -65.5t-40.5 -142.5q0 -63 40 -63q30 0 58 37t37 83zM409 -29l12 -34q-60 -38 -148 -38q-104 0 -171 73.5t-67 214.5q0 168 91.5 288t224.5 120q99 0 154 -67t55 -174q0 -138 -42.5 -213.5t-111.5 -75.5q-29 0 -45 20.5t-13 59.5 h-3q-43 -80 -109 -80q-36 0 -58.5 28.5t-22.5 80.5q0 94 58 174t156 80q40 0 70 -14l-40 -202q-20 -105 21 -105q38 0 66.5 64.5t28.5 163.5q0 105 -42.5 162.5t-128.5 57.5q-107 0 -185.5 -105t-78.5 -264q0 -121 54.5 -184t151.5 -63q61 0 123 32z" />
<glyph unicode="A" horiz-adv-x="435" d="M290 202h-149l-45 -202h-74l154 674h85l150 -674h-76zM152 264h128l-35 171q-10 49 -27 154h-4q-14 -88 -27 -154z" />
<glyph unicode="B" horiz-adv-x="416" d="M60 3v661q52 13 113 13q99 0 149 -47q44 -41 44 -115q0 -52 -27.5 -91.5t-76.5 -58.5v-2q59 -16 92 -61t33 -111q0 -81 -48 -134q-54 -61 -178 -61q-64 0 -101 7zM137 612v-224h35q48 0 82.5 33.5t34.5 85.5q0 110 -111 110q-26 0 -41 -5zM137 329v-268q18 -4 39 -4 q61 0 96.5 35t35.5 99q0 66 -39.5 101.5t-97.5 36.5h-34z" />
<glyph unicode="C" horiz-adv-x="373" d="M342 77l12 -65q-34 -18 -96 -18q-103 0 -164.5 84.5t-61.5 250.5q0 95 22 166.5t58 110t75.5 56.5t82.5 18q58 0 84 -17l-17 -65q-32 14 -68 14q-63 0 -109.5 -67t-46.5 -209q0 -144 44.5 -209t113.5 -65q41 0 71 15z" />
<glyph unicode="D" horiz-adv-x="445" d="M60 3v661q43 13 104 13q101 0 158 -51q91 -79 91 -273q0 -197 -81 -284q-64 -73 -186 -73q-54 0 -86 7zM137 610v-547q11 -2 29 -2q34 0 62 13.5t53 45t38.5 90.5t13.5 141q0 263 -160 263q-23 0 -36 -4z" />
<glyph unicode="E" horiz-adv-x="354" d="M306 385v-65h-169v-253h192v-67h-269v674h257v-67h-180v-222h169z" />
<glyph unicode="F" horiz-adv-x="345" d="M60 0v674h257v-67h-180v-236h168v-65h-168v-306h-77z" />
<glyph unicode="G" horiz-adv-x="436" d="M392 352v-335q-56 -23 -120 -23q-100 0 -159 66q-82 88 -81 268q0 94 23 165t60.5 110t80.5 58t90 19q60 0 96 -19l-17 -66q-32 16 -78 16q-73 0 -124 -66t-51 -210t45.5 -209.5t114.5 -65.5q31 0 47 8v220h-87v64h160z" />
<glyph unicode="H" horiz-adv-x="463" d="M60 674h77v-289h189v289h77v-674h-77v315h-189v-315h-77v674z" />
<glyph unicode="I" horiz-adv-x="199" d="M60 674h77v-674h-77v674z" />
<glyph unicode="J" horiz-adv-x="265" d="M134 189v485h77v-484q0 -108 -40.5 -153t-117.5 -45q-32 0 -50 7l7 65q13 -4 37 -4q45 0 66 26.5t21 102.5z" />
<glyph unicode="K" horiz-adv-x="404" d="M60 0v674h77v-320h2l42 81l126 239h85l-165 -288l169 -386h-83l-138 325l-38 -65v-260h-77z" />
<glyph unicode="L" horiz-adv-x="344" d="M60 0v674h77v-609h190v-65h-267z" />
<glyph unicode="M" horiz-adv-x="599" d="M482 0l-14 290q-10 182 -7 264h-4q-25 -125 -54 -234l-83 -316h-49l-79 303q-40 155 -55 247h-3q0 -77 -8 -269l-13 -285h-69l40 674h83l79 -308q40 -154 54 -232h3q14 83 50 232l76 308h86l39 -674h-72z" />
<glyph unicode="N" horiz-adv-x="465" d="M130 0h-70v674h73l124 -316q63 -162 86 -235h2q-9 159 -9 310v241h69v-674h-73l-128 324q-52 131 -80 229h-2q8 -120 8 -320v-233z" />
<glyph unicode="O" horiz-adv-x="446" d="M230 682q86 0 135 -89.5t49 -250.5q0 -180 -54 -265t-141 -85q-86 0 -136.5 89.5t-50.5 256.5q0 164 54 254t144 90zM223 614q-58 0 -84.5 -80t-26.5 -197q0 -75 9.5 -134.5t36 -101t66.5 -41.5q41 0 67 44t34.5 102.5t8.5 132.5q0 52 -5 97t-17 87t-35 66.5t-54 24.5z " />
<glyph unicode="P" horiz-adv-x="399" d="M60 0v664q50 13 112 13q99 0 149 -50q50 -48 50 -139q0 -84 -41 -138q-56 -75 -159 -75q-23 0 -34 1v-276h-77zM137 609v-268q13 -3 30 -3q58 0 92.5 37.5t34.5 107.5q0 57 -27 94t-87 37q-26 0 -43 -5z" />
<glyph unicode="Q" horiz-adv-x="446" d="M429 -29l-28 -62q-91 38 -155 73q-20 10 -25 10q-87 0 -138 87.5t-51 258.5q0 165 54 254.5t145 89.5q86 0 134.5 -90t48.5 -250q0 -264 -115 -319v-4q21 -9 130 -48zM225 60h1q58 0 83 80.5t25 198.5q0 52 -5 98t-17 87.5t-34 65.5t-53 24t-54 -24.5t-35.5 -65.5 t-18 -87.5t-5.5 -98.5q0 -54 5 -100.5t17.5 -88t35.5 -65.5t55 -24z" />
<glyph unicode="R" horiz-adv-x="409" d="M60 0v664q48 13 111 13q103 0 152 -48q47 -48 47 -132q0 -124 -108 -173v-2q37 -11 58.5 -47.5t32.5 -103.5q21 -132 38 -171h-78q-14 29 -36 167q-11 69 -36 98t-74 29h-30v-294h-77zM137 611v-258h32q55 0 89 37t34 98q0 126 -115 127q-27 0 -40 -4z" />
<glyph unicode="S" horiz-adv-x="361" d="M28 23l17 66q41 -27 97 -27q52 0 82 31t30 83q0 43 -22 74.5t-67 65.5q-127 89 -127 187q0 77 49.5 127t128.5 50q62 0 95 -25l-19 -66q-33 23 -80 23q-46 0 -71.5 -29t-25.5 -67q0 -46 21.5 -72.5t77.5 -66.5q117 -82 117 -194q0 -85 -53.5 -137t-135.5 -52q-33 0 -66 9 t-48 20z" />
<glyph unicode="T" horiz-adv-x="354" d="M139 0v605h-123v69h323v-69h-123v-605h-77z" />
<glyph unicode="U" horiz-adv-x="457" d="M59 674h77v-452q0 -162 92 -162q93 0 93 162v452h77v-440q0 -125 -46 -183.5t-126 -58.5q-167 0 -167 233v449z" />
<glyph unicode="V" horiz-adv-x="421" d="M249 0h-79l-154 674h82l66 -316q35 -167 48 -259h3q10 85 45 261l64 314h82z" />
<glyph unicode="W" horiz-adv-x="654" d="M222 0h-72l-130 674h80l57 -325q23 -140 33 -243h4q6 59 40 244l62 324h66l62 -317q31 -163 39 -251h3q12 108 36 247l56 321h75l-131 -674h-75l-65 328q-25 135 -34 221h-2q-17 -132 -37 -224z" />
<glyph unicode="X" horiz-adv-x="392" d="M378 0h-81l-61 162q-18 48 -41 118h-3q-28 -84 -41 -120l-58 -160h-79l139 344l-134 330h80l60 -156q8 -20 40 -107h2l36 110l55 153h79l-132 -328z" />
<glyph unicode="Y" horiz-adv-x="394" d="M235 0h-77v285l-148 389h81l60 -169q30 -84 50 -152h2q16 61 49 155l57 166h81l-155 -386v-288z" />
<glyph unicode="Z" horiz-adv-x="358" d="M20 0v46l231 559v3h-212v66h298v-52l-227 -553v-3h226v-66h-316z" />
<glyph unicode="[" horiz-adv-x="253" d="M223 -112h-149v798h149v-53h-87v-692h87v-53z" />
<glyph unicode="\" horiz-adv-x="263" d="M255 -40h-58l-196 722h58z" />
<glyph unicode="]" horiz-adv-x="253" d="M31 686h148v-798h-148v53h86v692h-86v53z" />
<glyph unicode="^" horiz-adv-x="596" d="M532 189h-65l-168 388h-3l-168 -388h-64l206 461h56z" />
<glyph unicode="_" horiz-adv-x="500" d="M0 -75h500v-50h-500v50z" />
<glyph unicode="`" d="M39 682h79l77 -135h-51z" />
<glyph unicode="a" horiz-adv-x="364" d="M310 319v-209q0 -79 5 -110h-70l-5 51h-3q-33 -59 -96 -59q-49 0 -82 38.5t-33 99.5q0 86 59 130.5t147 45.5v15q0 53 -17 81.5t-60 28.5q-42 0 -80 -25l-17 54q43 32 113 32q139 0 139 -173zM234 152v98q-133 0 -133 -112q0 -43 18 -64.5t41 -21.5q26 0 45.5 19t26.5 54 q2 9 2 27z" />
<glyph unicode="b" horiz-adv-x="399" d="M53 116v576h77v-265h2q34 65 102 65q58 0 95 -65t37 -180q0 -124 -43 -189.5t-104 -65.5q-63 0 -96 71h-3l-5 -63h-66q4 112 4 116zM130 306v-135q0 -22 3 -30q21 -85 72 -85q84 0 84 187q0 80 -20.5 131.5t-64.5 51.5q-26 0 -46.5 -26.5t-25.5 -59.5q-2 -11 -2 -34z" />
<glyph unicode="c" horiz-adv-x="302" d="M280 71l10 -59q-31 -18 -80 -18q-81 0 -129 63.5t-48 181.5q0 108 51.5 180t139.5 72q42 0 68 -15l-15 -63q-26 13 -55 13q-54 0 -83 -54.5t-29 -132.5q0 -85 30.5 -133t83.5 -48q27 0 56 13z" />
<glyph unicode="d" horiz-adv-x="399" d="M269 692h76v-576q0 -4 4 -116h-66l-5 61h-3q-32 -69 -101 -69q-63 0 -102 65.5t-39 182.5q0 122 42.5 187t103.5 65t88 -58h2v258zM269 171v129q0 21 -1 32q-4 38 -24.5 66t-47.5 28q-45 0 -65.5 -52.5t-20.5 -133.5t21 -132.5t61 -51.5q54 0 74 83q3 13 3 32z" />
<glyph unicode="e" horiz-adv-x="363" d="M333 235h-225q1 -180 115 -180q47 0 80 19l12 -57q-41 -23 -106 -23q-85 0 -130.5 65t-45.5 178q0 117 45 186t118 69q70 0 104 -61.5t34 -152.5q0 -31 -1 -43zM109 292h151q1 68 -20 104t-52 36q-35 0 -55.5 -42.5t-23.5 -97.5z" />
<glyph unicode="f" horiz-adv-x="228" d="M147 0h-77v425h-61v59h61v29q0 97 43 146q37 41 97 41q36 0 60 -12l-13 -60q-18 8 -42 8q-68 0 -68 -122v-30h88v-59h-88v-425z" />
<glyph unicode="g" horiz-adv-x="399" d="M346 333v-271q0 -91 -11.5 -136.5t-36.5 -73.5q-46 -52 -129 -52q-63 0 -106 24l18 60q40 -21 90 -21q99 0 99 148v49h-2q-26 -59 -93 -59q-64 0 -103 66t-39 173q0 124 46 188t106 64t90 -63h2l4 55h69q-4 -136 -4 -151zM270 177v140q0 22 -4 35q-20 74 -70 74 q-41 0 -63.5 -50t-22.5 -132q0 -89 24 -134.5t62 -45.5q50 0 69 69q5 19 5 44z" />
<glyph unicode="h" horiz-adv-x="405" d="M54 0v692h77v-260h2q15 25 40 42q29 18 65 18q50 0 81.5 -42.5t31.5 -128.5v-321h-77v312q0 115 -65 115q-57 0 -75 -77q-3 -16 -3 -37v-313h-77z" />
<glyph unicode="i" horiz-adv-x="184" d="M131 0h-77v484h77v-484zM91 659q21 0 33.5 -13.5t12.5 -36.5q1 -22 -12 -36t-35 -14q-19 0 -31.5 14t-12.5 36t13 36t32 14z" />
<glyph unicode="j" horiz-adv-x="188" d="M-18 -200l-10 61q48 13 65 38q23 35 23 154v431h77v-453q0 -75 -11.5 -116t-37.5 -69q-20 -21 -50.5 -33t-55.5 -13zM99 659q20 0 32.5 -13.5t12.5 -36.5t-12.5 -36.5t-34.5 -13.5q-19 0 -32 14t-12 36q-1 22 12 36t34 14z" />
<glyph unicode="k" horiz-adv-x="354" d="M130 692v-433h2q23 49 26 54l96 171h83l-128 -204l139 -280h-86l-105 228l-27 -45v-183h-77v692h77z" />
<glyph unicode="l" horiz-adv-x="191" d="M54 0v692h77v-692h-77z" />
<glyph unicode="m" horiz-adv-x="620" d="M54 0v359q0 33 -2 75t-2 50h67l4 -60h2q37 68 109 68q75 0 101 -74h2q19 36 48 55q28 19 67 19q52 0 84 -41.5t32 -129.5v-321h-76v303q0 57 -14 90.5t-54 33.5q-24 0 -43.5 -19.5t-27.5 -52.5q-3 -19 -3 -44v-311h-76v317q0 110 -67 110q-25 0 -45.5 -20.5t-26.5 -57.5 q-3 -19 -3 -42v-307h-76z" />
<glyph unicode="n" horiz-adv-x="405" d="M54 0v359q0 33 -2 75t-2 50h67l4 -58h2q36 66 111 66q53 0 85 -41.5t32 -125.5v-325h-77v312q0 115 -67 115q-25 0 -45.5 -20.5t-27.5 -58.5q-3 -18 -3 -43v-305h-77z" />
<glyph unicode="o" horiz-adv-x="383" d="M195 492q68 0 112 -64.5t44 -185.5q0 -129 -48 -189.5t-113 -60.5q-69 0 -113 63.5t-44 185.5q0 125 47 188t115 63zM192 430q-24 0 -41.5 -18.5t-25.5 -48.5t-11.5 -59.5t-3.5 -61.5q0 -34 3.5 -64t12 -60t26 -47.5t42.5 -17.5q23 0 40 18.5t24.5 49t11 60t3.5 61.5 t-3.5 61.5t-11.5 59.5t-25 48.5t-41 18.5z" />
<glyph unicode="p" horiz-adv-x="399" d="M53 -192v525q0 15 -4 151h69l4 -62h2q35 70 102 70q64 0 102 -65.5t38 -183.5q0 -126 -43.5 -188.5t-106.5 -62.5q-57 0 -84 56h-2v-240h-77zM130 301v-123q0 -29 3 -40q10 -46 30 -64t41 -18q84 0 84 186q0 81 -21 132.5t-64 51.5q-25 0 -46 -27t-25 -61q-2 -12 -2 -37z " />
<glyph unicode="q" horiz-adv-x="399" d="M269 -192v242h-3q-28 -58 -93 -58q-61 0 -100.5 64.5t-39.5 179.5q0 122 44 189t108 67q61 0 90 -64l2 -1l4 57h69q-4 -68 -4 -151v-525h-77zM269 178v125q0 23 -2 32q-5 38 -25 64.5t-45 26.5q-45 0 -66 -51.5t-21 -134.5q0 -81 21.5 -132.5t63.5 -51.5q51 0 70 81 q4 12 4 41z" />
<glyph unicode="r" horiz-adv-x="248" d="M53 0v359q0 24 -2 71.5t-2 53.5h69l4 -76h2q12 36 40.5 60t61.5 24q3 0 8.5 -0.5t7.5 -0.5v-79q-5 1 -16 1q-36 0 -61.5 -29t-31.5 -72q-3 -20 -3 -44v-268h-77z" />
<glyph unicode="s" horiz-adv-x="289" d="M22 22l19 58q39 -25 78 -25q33 0 52 19t19 51q0 29 -13 50t-49 45q-97 63 -97 138q0 58 38 96t95 38q45 0 87 -25l-21 -58q-32 21 -64 21q-30 0 -46.5 -18t-16.5 -43t12 -42t48 -42q100 -64 100 -147q0 -70 -41 -107t-104 -37q-61 0 -96 28z" />
<glyph unicode="t" horiz-adv-x="255" d="M71 566l77 31v-113h93v-59h-93v-287q0 -80 51 -80q17 0 31 3l3 -59q-22 -8 -57 -8q-50 0 -76 29q-29 34 -29 122v280h-59v59h59v82z" />
<glyph unicode="u" horiz-adv-x="398" d="M344 484v-352q0 -32 2 -81.5t2 -50.5h-67l-5 51h-2q-14 -22 -41.5 -40.5t-62.5 -18.5q-62 0 -90 46.5t-28 139.5v306h77v-295q0 -64 14 -98t51 -34q30 0 47.5 21t21.5 43q4 17 4 44v319h77z" />
<glyph unicode="v" horiz-adv-x="347" d="M13 484h80l61 -272q13 -60 21 -118h3q5 36 20 118l60 272h76l-126 -484h-69z" />
<glyph unicode="w" horiz-adv-x="566" d="M13 484h80l47 -237q25 -142 26 -154h4q9 64 30 152l56 239h59l53 -232q22 -100 31 -159h4q7 63 26 156l46 235h77l-122 -484h-63l-56 235q-14 54 -27 145h-2q-11 -75 -28 -148l-58 -232h-65z" />
<glyph unicode="x" horiz-adv-x="340" d="M14 484h83l45 -104l10.5 -26.5l11.5 -31.5t10 -27h2q8 23 32 85l44 104h79l-115 -239l114 -245h-84l-46 109q-8 18 -32 83h-2q-4 -13 -32 -83l-45 -109h-78l115 243z" />
<glyph unicode="y" horiz-adv-x="346" d="M13 484h81l64 -278l20 -100h2q7 38 21 99l57 279h76l-79 -311q-27 -111 -54 -186.5t-66 -125.5q-42 -53 -87 -74l-28 66q35 19 68 61q28 35 44 81q5 15 5 24q0 12 -2 18z" />
<glyph unicode="z" horiz-adv-x="313" d="M16 0v47l153 299l19.5 35.5t19.5 36.5v2h-173v64h258v-51l-151 -295l-19.5 -35.5t-19.5 -36.5v-2h190v-64h-277z" />
<glyph unicode="{" horiz-adv-x="253" d="M29 262v50q68 0 68 71q0 30 -6 86q-6 58 -6 89q0 64 34.5 96t91.5 32h12v-52h-15q-59 -7 -59 -75q0 -28 6 -78q5 -63 5 -74q1 -55 -16.5 -81.5t-52.5 -36.5v-2q35 -11 52.5 -37t16.5 -82q0 -12 -5 -75q-6 -50 -6 -77q0 -35 13.5 -53.5t46.5 -22.5h14v-52h-13 q-55 0 -90 30.5t-35 97.5q0 31 6 89t6 86q0 71 -68 71z" />
<glyph unicode="|" horiz-adv-x="201" d="M69 750h63v-1000h-63v1000z" />
<glyph unicode="}" horiz-adv-x="253" d="M224 312v-50q-68 0 -68 -71q0 -28 6 -86t6 -89q0 -67 -35 -97.5t-90 -30.5h-13v52h14q33 4 46.5 22.5t13.5 53.5q0 14 -5 77q-6 50 -6 75q-1 56 16.5 82t52.5 37v2q-35 10 -52.5 36.5t-16.5 81.5q0 24 6 74q5 63 5 78q0 68 -59 75h-15v52h12q57 0 91.5 -32t34.5 -96 q0 -31 -6 -89q-6 -56 -6 -86q0 -71 68 -71z" />
<glyph unicode="~" horiz-adv-x="596" d="M127 221h-54q-2 64 28.5 99t81.5 35q48 0 129 -42q76 -40 111 -40q49 0 47 78h54q4 -66 -24 -100.5t-79 -34.5q-53 0 -129 40q-81 43 -115 43q-51 0 -50 -78z" />
<glyph unicode="&#xa1;" horiz-adv-x="204" d="M145 -189h-85l10 486h64zM102 496h1q22 0 35 -15t13 -40q0 -24 -13 -39t-36 -15q-21 0 -35 15t-14 39t14 39.5t35 15.5z" />
<glyph unicode="&#xa2;" horiz-adv-x="385" d="M253 -6h-55v97q-50 10 -86 51q-50 60 -50 186q0 89 37 152t100 77v94h55v-89q42 -2 67 -18l-14 -61q-33 18 -69 18q-51 0 -75 -54t-24 -125q0 -80 27.5 -126t76.5 -46q38 0 72 17l10 -58q-28 -17 -72 -20v-95z" />
<glyph unicode="&#xa3;" horiz-adv-x="385" d="M353 0h-322v49q35 14 65 67t30 107q0 45 -6 82h-82v55h74q-14 63 -14 116q0 83 44.5 132.5t110.5 49.5q48 0 78 -20l-17 -62q-26 17 -61 17q-40 0 -60 -31t-20 -75q0 -53 13 -127h105v-55h-97q9 -73 -4 -126q-17 -66 -63 -111v-2h226v-66z" />
<glyph unicode="&#xa4;" horiz-adv-x="385" d="M193 529h1q56 0 94 -41l61 72l40 -40l-73 -73q24 -49 24 -118q0 -70 -24 -117l72 -75l-39 -40l-63 73q-39 -42 -95 -42q-57 0 -93 41l-61 -72l-40 40l71 72q-25 50 -25 118q0 67 27 120l-74 72l41 42l62 -74q37 42 94 42zM193 470h-1q-38 0 -59.5 -38t-21.5 -105 q0 -62 22.5 -101t58.5 -39q38 -1 59 37.5t21 103.5q0 63 -21 102.5t-58 39.5z" />
<glyph unicode="&#xa5;" horiz-adv-x="385" d="M224 0h-71v187h-125v46h125v74h-125v46h106l-119 297h77l67 -191q28 -82 34 -102h2q16 57 33 103l70 190h73l-128 -297h109v-46h-128v-74h128v-46h-128v-187z" />
<glyph unicode="&#xa6;" horiz-adv-x="201" d="M69 174h63v-350h-63v350zM69 674h63v-350h-63v350z" />
<glyph unicode="&#xa7;" horiz-adv-x="401" d="M92 354v-1q0 -50 80 -87q72 -35 98 -56q40 25 40 79q0 55 -69 90q-78 35 -104 54q-45 -30 -45 -79zM327 656l-18 -52q-35 24 -87 24q-36 0 -63 -18t-27 -55q0 -19 7 -33.5t24 -26.5t29 -18t39 -18q67 -28 102.5 -62.5t35.5 -95.5q0 -70 -59 -121q33 -33 33 -85 q0 -70 -46.5 -107.5t-115.5 -37.5q-82 0 -126 34l19 54q49 -34 109 -34q40 0 67 20t27 59q0 34 -23 56.5t-82 50.5q-71 33 -106 66.5t-35 88.5q0 65 69 118q-34 30 -35 81q0 64 47 101t114 37q62 0 101 -26z" />
<glyph unicode="&#xa8;" d="M73 566h-1q-18 0 -31 12.5t-13 31.5t13 32t32 13q18 0 30 -12.5t12 -32.5q0 -19 -12 -31.5t-30 -12.5zM228 566h-1q-18 0 -30.5 12.5t-12.5 31.5t13 32t31 13t30.5 -12.5t12.5 -32.5q0 -19 -12 -31.5t-31 -12.5z" />
<glyph unicode="&#xa9;" horiz-adv-x="677" d="M340 648h1q127 0 215 -90t88 -218q0 -129 -88 -219.5t-216 -90.5q-129 0 -218 90.5t-89 219.5q0 128 89 218t218 90zM340 607h-1q-109 0 -182.5 -78t-73.5 -192q0 -112 74 -189t183 -77q107 -1 180.5 77t73.5 192q0 112 -73.5 189.5t-180.5 77.5zM474 495l-12 -40 q-44 22 -97 22q-67 0 -103.5 -39t-36.5 -101t37 -101.5t103 -39.5q56 0 100 23l12 -37q-48 -29 -122 -29q-83 0 -132.5 52t-49.5 129q0 83 55.5 134.5t137.5 51.5q34 0 65 -8t43 -17z" />
<glyph unicode="&#xaa;" horiz-adv-x="273" d="M243 263h-48l-5 35h-2q-25 -40 -76 -40q-35 0 -60 25.5t-25 66.5q0 58 45 87.5t113 29.5v11q0 63 -60 63q-35 0 -64 -21l-13 41q37 27 87 27q52 0 78 -31.5t26 -88.5v-131q0 -45 4 -74zM186 356v69q-21 0 -40.5 -3t-41.5 -19.5t-22 -45.5q0 -25 14.5 -39t32.5 -14 q31 0 49 30q8 12 8 22z" />
<glyph unicode="&#xab;" horiz-adv-x="354" d="M190 426l-104 -174l104 -174h-63l-102 174l103 174h62zM333 426l-104 -174l104 -174h-63l-103 174l104 174h62z" />
<glyph unicode="&#xac;" horiz-adv-x="596" d="M40 398h516v-278h-56v223h-460v55z" />
<glyph unicode="&#xad;" horiz-adv-x="291" d="M30 291h219v-60h-219v60z" />
<glyph unicode="&#xae;" horiz-adv-x="372" d="M161 508v-62h-33v156q32 5 56 5q34 0 52 -13q16 -11 16 -33q0 -27 -33 -36v-2q20 -6 28 -39q6 -28 11 -38h-35q-5 6 -12 38q-4 24 -33 24h-17zM162 579v-45h17q36 0 36 23t-33 23q-6 0 -12.5 -0.5t-7.5 -0.5zM186 683h1q65 0 110.5 -45.5t45.5 -110.5t-45.5 -111 t-111.5 -46q-65 0 -111 46t-46 111t46 110.5t111 45.5zM186 651h-1q-50 0 -84 -36t-34 -88t34 -88t85 -36q50 -1 84 35.5t34 88.5t-33.5 88t-84.5 36z" />
<glyph unicode="&#xaf;" d="M52 631h197v-50h-197v50z" />
<glyph unicode="&#xb0;" horiz-adv-x="280" d="M151 685h1q51 0 86 -37.5t35 -90.5q0 -56 -37 -92.5t-86 -36.5q-52 0 -87 36.5t-35 90.5t36.5 92t86.5 38zM151 644h-1q-31 0 -53 -26t-22 -63q0 -36 22 -61.5t54 -25.5t53.5 25.5t21.5 62.5q0 36 -21 62t-54 26z" />
<glyph unicode="&#xb1;" horiz-adv-x="596" d="M270 567h56v-194h230v-55h-230v-201h-56v201h-230v55h230v194zM40 55h516v-55h-516v55z" />
<glyph unicode="&#xb2;" horiz-adv-x="245" d="M2 417v29l41 50l53.5 68t37 61.5t20.5 69.5q0 33 -16 49t-44 16q-32 0 -66 -27l-16 44q35 35 98 35q54 0 81 -30.5t27 -76.5q0 -76 -103 -197l-30 -37v-2h140v-52h-223z" />
<glyph unicode="&#xb3;" horiz-adv-x="235" d="M30 743l-13 43q38 26 88 26q48 0 74.5 -26t26.5 -65q0 -62 -64 -89v-2q30 -7 53 -33t23 -65q0 -52 -37 -86t-99 -34q-46 0 -81 21l13 47q32 -20 70 -20q31 0 51 18.5t20 51.5q0 37 -23 56.5t-65 19.5h-8v42h7q27 0 53 17t26 47q0 25 -14 38.5t-38 13.5q-32 0 -63 -21z " />
<glyph unicode="&#xb4;" d="M188 682h79l-105 -135h-51z" />
<glyph unicode="&#xb5;" horiz-adv-x="399" d="M281 50h-2q-10 -19 -33.5 -36t-50.5 -17q-48 0 -68 36v-71q0 -104 9 -154h-70q-13 39 -13 146v530h77v-319q0 -109 64 -109q31 0 48.5 20.5t22.5 44.5q4 16 4 44v319h76v-380q0 -28 7 -41.5t24 -12.5l-8 -55q-10 -3 -25 -3q-50 0 -62 58z" />
<glyph unicode="&#xb6;" horiz-adv-x="401" d="M233 -50h-50v324h-6q-47 0 -94.5 47t-52.5 132q-5 93 52 157t171 64q44 0 89 -6v-718h-50v674h-59v-674z" />
<glyph unicode="&#xb7;" horiz-adv-x="194" d="M97 202h-1q-21 0 -35.5 15.5t-14.5 41.5q0 24 15 40.5t36 16.5q23 0 37 -15.5t14 -41.5t-14 -41.5t-37 -15.5z" />
<glyph unicode="&#xb8;" d="M144 5h48l-28 -55q26 -4 45.5 -24t19.5 -47q0 -40 -27 -59.5t-64 -19.5q-35 0 -67 18l16 42q24 -15 50 -15q36 0 36 30q0 37 -69 44z" />
<glyph unicode="&#xb9;" horiz-adv-x="212" d="M157 417h-60v333h-2l-73 -39l-11 48l95 48h51v-390z" />
<glyph unicode="&#xba;" horiz-adv-x="302" d="M153 588h1q54 0 83.5 -41.5t29.5 -122.5q0 -85 -34.5 -125.5t-82.5 -40.5q-51 0 -83.5 42.5t-32.5 122.5q0 79 34.5 122t84.5 43zM150 543h-1q-29 0 -43 -37.5t-14 -82.5q0 -47 14 -83.5t44 -36.5q59 0 59 120t-59 120z" />
<glyph unicode="&#xbb;" horiz-adv-x="354" d="M125 252l-104 174h62l103 -174l-101 -174h-64zM268 252l-104 174h62l103 -174l-102 -174h-63z" />
<glyph unicode="&#xbc;" horiz-adv-x="613" d="M177 263h-60v333h-2l-74 -39l-10 48l94 48h52v-390zM156 -8h-49l340 666h49zM537 0h-57v106h-147v36l144 251h60v-240h46v-47h-46v-106zM480 153v100q0 5 4 73h-2l-15 -31t-19 -38l-55 -102v-2h87z" />
<glyph unicode="&#xbd;" horiz-adv-x="613" d="M161 263h-60v333h-2l-73 -39l-11 48l95 48h51v-390zM132 -8h-49l340 666h49zM355 0v29l41 50l53.5 68t37 61.5t20.5 69.5q0 32 -16.5 48.5t-43.5 16.5q-32 0 -66 -27l-16 44q35 35 98 35q54 0 81 -30.5t27 -76.5q0 -78 -103 -197l-30 -37v-2h140v-52h-223z" />
<glyph unicode="&#xbe;" horiz-adv-x="613" d="M57 589l-13 43q38 26 88 26q48 0 74.5 -26t26.5 -65q0 -62 -64 -89v-2q30 -7 53 -33t23 -65q0 -52 -36.5 -86t-98.5 -34q-47 0 -82 21l13 47q33 -20 70 -20q31 0 51 18.5t20 51.5q0 37 -23 56.5t-65 19.5h-8v42h7q27 1 53 17.5t26 46.5q0 25 -14 38.5t-38 13.5 q-32 0 -63 -21zM173 -8h-49l340 666h49zM539 0h-56v106h-147v36l144 251h59v-240h47v-47h-47v-106zM483 153v100q0 39 4 73h-2q-28 -56 -35 -69l-55 -102v-2h88z" />
<glyph unicode="&#xbf;" horiz-adv-x="309" d="M175 496h1q22 0 35.5 -15.5t13.5 -40.5q0 -24 -13.5 -40t-35.5 -16q-23 0 -37 16t-14 40q0 25 13.5 40.5t36.5 15.5zM136 302h69l2 -15q15 -95 -42 -190q-2 -3 -9.5 -16l-9.5 -16.5l-8.5 -14.5t-8 -14.5t-6.5 -13.5t-6.5 -14.5t-4 -13.5t-3.5 -15.5t-2 -14.5t-1 -16 q0 -41 21 -61t56 -20q38 0 66 19l17 -60q-38 -26 -100 -26q-70 0 -104.5 39.5t-34.5 98.5q0 18 3.5 36t8 31.5t14 32t15 28t18 29.5t16.5 27q24 42 32.5 78t2.5 85z" />
<glyph unicode="&#xc0;" horiz-adv-x="435" d="M290 202h-149l-45 -202h-74l154 674h85l150 -674h-76zM152 264h128l-35 171q-10 49 -27 154h-4q-14 -88 -27 -154zM86 818h91l95 -108h-61z" />
<glyph unicode="&#xc1;" horiz-adv-x="435" d="M290 202h-149l-45 -202h-74l154 674h85l150 -674h-76zM152 264h128l-35 171q-10 49 -27 154h-4q-14 -88 -27 -154zM263 818h91l-124 -108h-61z" />
<glyph unicode="&#xc2;" horiz-adv-x="435" d="M290 202h-149l-45 -202h-74l154 674h85l150 -674h-76zM152 264h128l-35 171q-10 49 -27 154h-4q-14 -88 -27 -154zM185 808h67l87 -98h-68l-52 55h-2l-51 -55h-67z" />
<glyph unicode="&#xc3;" horiz-adv-x="435" d="M290 202h-149l-45 -202h-74l154 674h85l150 -674h-76zM152 264h128l-35 171q-10 49 -27 154h-4q-14 -88 -27 -154zM156 718h-42q0 43 16 68.5t44 25.5q19 0 47 -17q30 -18 39 -18q13 0 19 8t8 28h40q2 -90 -62 -90q-21 0 -49 17q-25 17 -36 17q-21 0 -24 -39z" />
<glyph unicode="&#xc4;" horiz-adv-x="435" d="M290 202h-149l-45 -202h-74l154 674h85l150 -674h-76zM152 264h128l-35 171q-10 49 -27 154h-4q-14 -88 -27 -154zM140 718h-1q-18 0 -30 12.5t-12 33.5q0 20 12.5 33.5t30.5 13.5q19 0 31 -13t12 -34t-11.5 -33.5t-31.5 -12.5zM302 718h-1q-18 0 -30.5 12.5t-12.5 33.5 q0 20 12.5 33.5t31.5 13.5t31 -13t12 -34t-11.5 -33.5t-31.5 -12.5z" />
<glyph unicode="&#xc5;" horiz-adv-x="435" d="M290 202h-149l-45 -202h-74l154 674h85l150 -674h-76zM152 264h128l-35 171q-10 49 -27 154h-4q-14 -88 -27 -154zM221 871h1q42 0 67 -25.5t25 -62.5q0 -36 -26 -61.5t-67 -25.5q-43 0 -68.5 25t-25.5 61q0 37 26 63t68 26zM220 835h-1q-21 0 -32.5 -15.5t-11.5 -37.5 q0 -19 12.5 -34t32.5 -15q21 0 33.5 15t12.5 36t-12.5 36t-33.5 15z" />
<glyph unicode="&#xc6;" horiz-adv-x="556" d="M83 0h-75l203 674h304v-67h-186l13 -226h171v-65h-165l14 -249h179l-1 -67h-247l-13 222h-134zM162 284h112l-9 205q-1 14 -3 61l-3 70h-5l-39 -144z" />
<glyph unicode="&#xc7;" horiz-adv-x="396" d="M342 77l12 -65q-31 -17 -82 -17l-22 -44q26 -4 45.5 -24t19.5 -48q0 -39 -27 -58.5t-64 -19.5q-38 0 -67 18l16 41q25 -14 50 -14q36 0 36 30q0 37 -69 44l36 77q-90 13 -142 95.5t-52 236.5q0 95 22 166.5t58 110t75.5 56.5t82.5 18q58 0 84 -17l-17 -65q-32 14 -68 14 q-63 0 -109.5 -67t-46.5 -209q0 -144 44.5 -209t113.5 -65q41 0 71 15z" />
<glyph unicode="&#xc8;" horiz-adv-x="354" d="M306 385v-65h-169v-253h192v-67h-269v674h257v-67h-180v-222h169zM56 818h91l95 -108h-61z" />
<glyph unicode="&#xc9;" horiz-adv-x="354" d="M306 385v-65h-169v-253h192v-67h-269v674h257v-67h-180v-222h169zM246 818h91l-124 -108h-61z" />
<glyph unicode="&#xca;" horiz-adv-x="354" d="M306 385v-65h-169v-253h192v-67h-269v674h257v-67h-180v-222h169zM155 808h67l87 -98h-68l-52 55h-2l-51 -55h-67z" />
<glyph unicode="&#xcb;" horiz-adv-x="354" d="M306 385v-65h-169v-253h192v-67h-269v674h257v-67h-180v-222h169zM109 725h-1q-18 0 -30 12.5t-12 33.5q0 20 12.5 33.5t30.5 13.5q19 0 31 -13t12 -34t-11.5 -33.5t-31.5 -12.5zM271 725h-1q-18 0 -30.5 12.5t-12.5 33.5q0 20 12.5 33.5t31.5 13.5t31 -13t12 -34 t-11.5 -33.5t-31.5 -12.5z" />
<glyph unicode="&#xcc;" horiz-adv-x="199" d="M60 674h77v-674h-77v674zM-41 818h91l95 -108h-61z" />
<glyph unicode="&#xcd;" horiz-adv-x="199" d="M60 674h77v-674h-77v674zM141 818h91l-124 -108h-61z" />
<glyph unicode="&#xce;" horiz-adv-x="199" d="M60 674h77v-674h-77v674zM66 808h67l87 -98h-68l-52 55h-2l-51 -55h-67z" />
<glyph unicode="&#xcf;" horiz-adv-x="199" d="M60 674h77v-674h-77v674zM19 725h-1q-18 0 -30 12.5t-12 33.5q0 20 12.5 33.5t30.5 13.5q19 0 31 -13t12 -34t-11.5 -33.5t-31.5 -12.5zM181 725h-1q-18 0 -30.5 12.5t-12.5 33.5q0 20 12.5 33.5t31.5 13.5t31 -13t12 -34t-11.5 -33.5t-31.5 -12.5z" />
<glyph unicode="&#xd0;" horiz-adv-x="453" d="M0 323v57h69v284q42 13 103 13q101 0 158 -51q91 -77 91 -275t-81 -285q-63 -72 -185 -72q-55 0 -86 7v322h-69zM247 380v-57h-102v-263q12 -2 30 -2q73 0 120 67t47 226q0 263 -161 263q-14 0 -36 -4v-230h102z" />
<glyph unicode="&#xd1;" horiz-adv-x="465" d="M130 0h-70v674h73l124 -316q63 -162 86 -235h2q-9 159 -9 310v241h69v-674h-73l-128 324q-52 131 -80 229h-2q8 -120 8 -320v-233zM171 718h-42q0 43 16 68.5t44 25.5q19 0 47 -17q30 -18 39 -18q13 0 19 8t8 28h40q2 -90 -62 -90q-21 0 -49 17q-25 17 -36 17 q-21 0 -24 -39z" />
<glyph unicode="&#xd2;" horiz-adv-x="446" d="M230 682q86 0 135 -89.5t49 -250.5q0 -180 -54 -265t-141 -85q-86 0 -136.5 89.5t-50.5 256.5q0 164 54 254t144 90zM223 614q-58 0 -84.5 -80t-26.5 -197q0 -75 9.5 -134.5t36 -101t66.5 -41.5q41 0 67 44t34.5 102.5t8.5 132.5q0 52 -5 97t-17 87t-35 66.5t-54 24.5z M86 818h91l95 -108h-61z" />
<glyph unicode="&#xd3;" horiz-adv-x="446" d="M230 682q86 0 135 -89.5t49 -250.5q0 -180 -54 -265t-141 -85q-86 0 -136.5 89.5t-50.5 256.5q0 164 54 254t144 90zM223 614q-58 0 -84.5 -80t-26.5 -197q0 -75 9.5 -134.5t36 -101t66.5 -41.5q41 0 67 44t34.5 102.5t8.5 132.5q0 52 -5 97t-17 87t-35 66.5t-54 24.5z M269 818h91l-124 -108h-61z" />
<glyph unicode="&#xd4;" horiz-adv-x="446" d="M230 682q86 0 135 -89.5t49 -250.5q0 -180 -54 -265t-141 -85q-86 0 -136.5 89.5t-50.5 256.5q0 164 54 254t144 90zM223 614q-58 0 -84.5 -80t-26.5 -197q0 -75 9.5 -134.5t36 -101t66.5 -41.5q41 0 67 44t34.5 102.5t8.5 132.5q0 52 -5 97t-17 87t-35 66.5t-54 24.5z M190 808h67l87 -98h-68l-52 55h-2l-51 -55h-67z" />
<glyph unicode="&#xd5;" horiz-adv-x="446" d="M230 682q86 0 135 -89.5t49 -250.5q0 -180 -54 -265t-141 -85q-86 0 -136.5 89.5t-50.5 256.5q0 164 54 254t144 90zM223 614q-58 0 -84.5 -80t-26.5 -197q0 -75 9.5 -134.5t36 -101t66.5 -41.5q41 0 67 44t34.5 102.5t8.5 132.5q0 52 -5 97t-17 87t-35 66.5t-54 24.5z M158 716h-42q0 43 16 68.5t44 25.5q19 0 47 -17q30 -18 39 -18q13 0 19 8t8 28h40q2 -90 -62 -90q-21 0 -49 17q-25 17 -36 17q-21 0 -24 -39z" />
<glyph unicode="&#xd6;" horiz-adv-x="446" d="M230 682q86 0 135 -89.5t49 -250.5q0 -180 -54 -265t-141 -85q-86 0 -136.5 89.5t-50.5 256.5q0 164 54 254t144 90zM223 614q-58 0 -84.5 -80t-26.5 -197q0 -75 9.5 -134.5t36 -101t66.5 -41.5q41 0 67 44t34.5 102.5t8.5 132.5q0 52 -5 97t-17 87t-35 66.5t-54 24.5z M142 725h-1q-18 0 -30 12.5t-12 33.5q0 20 12.5 33.5t30.5 13.5q19 0 31 -13t12 -34t-11.5 -33.5t-31.5 -12.5zM304 725h-1q-18 0 -30.5 12.5t-12.5 33.5q0 20 12.5 33.5t31.5 13.5t31 -13t12 -34t-11.5 -33.5t-31.5 -12.5z" />
<glyph unicode="&#xd7;" horiz-adv-x="596" d="M40 486l37 40l220 -225l222 225l37 -40l-220 -224l219 -221l-38 -41l-219 224l-220 -224l-38 41l219 222z" />
<glyph unicode="&#xd8;" horiz-adv-x="446" d="M86 -37l-43 23l42 95q-53 89 -53 257q0 164 53 254t139 90q59 0 101 -41l30 70l46 -20l-40 -91q53 -90 53 -257q0 -179 -53.5 -265t-137.5 -86q-62 0 -103 45zM129 172l164 398q-29 44 -70 44q-31 0 -54 -23.5t-36 -64t-19 -87.5t-6 -101q0 -103 19 -166h2zM317 507 l-168 -397q27 -50 74 -50q31 0 54 24t35.5 65t18.5 88t6 102q0 103 -18 168h-2z" />
<glyph unicode="&#xd9;" horiz-adv-x="457" d="M59 674h77v-452q0 -162 92 -162q93 0 93 162v452h77v-440q0 -125 -46 -183.5t-126 -58.5q-167 0 -167 233v449zM86 818h91l95 -108h-61z" />
<glyph unicode="&#xda;" horiz-adv-x="457" d="M59 674h77v-452q0 -162 92 -162q93 0 93 162v452h77v-440q0 -125 -46 -183.5t-126 -58.5q-167 0 -167 233v449zM277 818h91l-124 -108h-61z" />
<glyph unicode="&#xdb;" horiz-adv-x="457" d="M59 674h77v-452q0 -162 92 -162q93 0 93 162v452h77v-440q0 -125 -46 -183.5t-126 -58.5q-167 0 -167 233v449zM196 808h67l87 -98h-68l-52 55h-2l-51 -55h-67z" />
<glyph unicode="&#xdc;" horiz-adv-x="457" d="M59 674h77v-452q0 -162 92 -162q93 0 93 162v452h77v-440q0 -125 -46 -183.5t-126 -58.5q-167 0 -167 233v449zM147 725h-1q-18 0 -30 12.5t-12 33.5q0 20 12.5 33.5t30.5 13.5q19 0 31 -13t12 -34t-11.5 -33.5t-31.5 -12.5zM309 725h-1q-18 0 -30.5 12.5t-12.5 33.5 q0 20 12.5 33.5t31.5 13.5t31 -13t12 -34t-11.5 -33.5t-31.5 -12.5z" />
<glyph unicode="&#xdd;" horiz-adv-x="394" d="M235 0h-77v285l-148 389h81l60 -169q30 -84 50 -152h2q16 61 49 155l57 166h81l-155 -386v-288zM252 818h91l-124 -108h-61z" />
<glyph unicode="&#xde;" horiz-adv-x="396" d="M60 0v674h76v-133q20 3 51 3q85 0 134 -48q49 -49 49 -134q0 -97 -56.5 -149t-139.5 -52q-22 0 -38 3v-164h-76zM136 477v-248q12 -4 35 -4q57 0 89.5 35t32.5 97q0 124 -116 124q-26 0 -41 -4z" />
<glyph unicode="&#xdf;" horiz-adv-x="430" d="M131 0h-77v450q0 146 63 206q47 44 117 44q61 0 104 -40t43 -116q0 -46 -24 -82q-66 -26 -66 -81q0 -17 6.5 -33t14.5 -26l24 -30q34 -39 50.5 -73.5t16.5 -76.5q0 -70 -45.5 -110t-110.5 -40q-49 0 -79 15l13 60q25 -13 65 -13q38 0 60.5 23t22.5 57q0 48 -52 109 q-20 23 -30 37t-19.5 38.5t-9.5 50.5q0 40 22 71.5t58 48.5q9 19 9 48q0 54 -25 76.5t-56 22.5q-95 0 -95 -191v-445z" />
<glyph unicode="&#xe0;" horiz-adv-x="364" d="M57 682h79l77 -135h-51zM310 319v-209q0 -79 5 -110h-70l-5 51h-3q-33 -59 -96 -59q-49 0 -82 38.5t-33 99.5q0 86 59 130.5t147 45.5v15q0 53 -17 81.5t-60 28.5q-42 0 -80 -25l-17 54q43 32 113 32q139 0 139 -173zM234 152v98q-133 0 -133 -112q0 -43 18 -64.5 t41 -21.5q26 0 45.5 19t26.5 54q2 9 2 27z" />
<glyph unicode="&#xe1;" horiz-adv-x="364" d="M218 682h79l-105 -135h-51zM310 319v-209q0 -79 5 -110h-70l-5 51h-3q-33 -59 -96 -59q-49 0 -82 38.5t-33 99.5q0 86 59 130.5t147 45.5v15q0 53 -17 81.5t-60 28.5q-42 0 -80 -25l-17 54q43 32 113 32q139 0 139 -173zM234 152v98q-133 0 -133 -112q0 -43 18 -64.5 t41 -21.5q26 0 45.5 19t26.5 54q2 9 2 27z" />
<glyph unicode="&#xe2;" horiz-adv-x="364" d="M153 682h52l79 -135h-57l-47 86h-2l-46 -86h-58zM310 319v-209q0 -79 5 -110h-70l-5 51h-3q-33 -59 -96 -59q-49 0 -82 38.5t-33 99.5q0 86 59 130.5t147 45.5v15q0 53 -17 81.5t-60 28.5q-42 0 -80 -25l-17 54q43 32 113 32q139 0 139 -173zM234 152v98 q-133 0 -133 -112q0 -43 18 -64.5t41 -21.5q26 0 45.5 19t26.5 54q2 9 2 27z" />
<glyph unicode="&#xe3;" horiz-adv-x="364" d="M116 561h-42q-1 41 15 67.5t46 26.5q19 0 49 -17q28 -17 40 -17q23 0 25 36h41q0 -90 -63 -90q-19 0 -49 17t-37 17q-22 0 -25 -40zM310 319v-209q0 -79 5 -110h-70l-5 51h-3q-33 -59 -96 -59q-49 0 -82 38.5t-33 99.5q0 86 59 130.5t147 45.5v15q0 53 -17 81.5t-60 28.5 q-42 0 -80 -25l-17 54q43 32 113 32q139 0 139 -173zM234 152v98q-133 0 -133 -112q0 -43 18 -64.5t41 -21.5q26 0 45.5 19t26.5 54q2 9 2 27z" />
<glyph unicode="&#xe4;" horiz-adv-x="364" d="M105 566h-1q-18 0 -31 12.5t-13 31.5t13 32t32 13q18 0 30 -12.5t12 -32.5q0 -19 -12 -31.5t-30 -12.5zM260 566h-1q-18 0 -30.5 12.5t-12.5 31.5t13 32t31 13t30.5 -12.5t12.5 -32.5q0 -19 -12 -31.5t-31 -12.5zM310 319v-209q0 -79 5 -110h-70l-5 51h-3 q-33 -59 -96 -59q-49 0 -82 38.5t-33 99.5q0 86 59 130.5t147 45.5v15q0 53 -17 81.5t-60 28.5q-42 0 -80 -25l-17 54q43 32 113 32q139 0 139 -173zM234 152v98q-133 0 -133 -112q0 -43 18 -64.5t41 -21.5q26 0 45.5 19t26.5 54q2 9 2 27z" />
<glyph unicode="&#xe5;" horiz-adv-x="364" d="M181 533q-42 0 -67.5 24.5t-25.5 60.5q0 38 25 63.5t69 25.5q40 0 65.5 -25.5t25.5 -62.5t-26 -61.5t-66 -24.5zM180 568q22 0 35 15t13 37t-13 37t-36 15q-21 0 -33 -16t-12 -38q0 -19 12.5 -34.5t33.5 -15.5zM310 319v-209q0 -79 5 -110h-70l-5 51h-3q-33 -59 -96 -59 q-49 0 -82 38.5t-33 99.5q0 86 59 130.5t147 45.5v15q0 53 -17 81.5t-60 28.5q-42 0 -80 -25l-17 54q43 32 113 32q139 0 139 -173zM234 152v98q-133 0 -133 -112q0 -43 18 -64.5t41 -21.5q26 0 45.5 19t26.5 54q2 9 2 27z" />
<glyph unicode="&#xe6;" horiz-adv-x="561" d="M531 241h-224q0 -104 30 -146t83 -42q45 0 82 21l13 -55q-42 -27 -111 -27q-45 0 -82 24.5t-51 68.5h-2q-16 -44 -48 -68.5t-76 -24.5q-52 0 -85.5 38.5t-33.5 101.5q0 83 59 126.5t148 43.5v27q0 46 -20 74t-61 28q-42 0 -78 -25l-17 53q49 33 111 33q40 0 70.5 -22 t40.5 -65h2q16 41 47.5 64t70.5 23q66 0 99.5 -62.5t33.5 -151.5q0 -6 -0.5 -18t-0.5 -19zM234 154v95q-21 0 -39.5 -3.5t-43 -13.5t-39 -34.5t-14.5 -60.5q0 -42 18.5 -63t44.5 -21q25 0 44.5 19.5t25.5 53.5q3 9 3 28zM308 296h150q2 65 -18.5 101t-50.5 36q-37 0 -58 -41 t-23 -96z" />
<glyph unicode="&#xe7;" horiz-adv-x="301" d="M280 72l12 -59q-31 -17 -77 -19l-22 -44q26 -4 45.5 -24t19.5 -47q0 -40 -27 -59.5t-64 -19.5q-35 0 -67 18l16 42q24 -15 50 -15q36 0 36 31q0 36 -68 43l35 80q-64 15 -100 76t-36 164q0 108 51.5 180t139.5 72q42 0 68 -15l-15 -63q-26 13 -55 13q-54 0 -83 -54.5 t-29 -132.5q0 -85 30.5 -133t83.5 -48q33 0 56 14z" />
<glyph unicode="&#xe8;" horiz-adv-x="363" d="M74 682h79l77 -135h-51zM333 235h-225q1 -180 115 -180q47 0 80 19l12 -57q-41 -23 -106 -23q-85 0 -130.5 65t-45.5 178q0 117 45 186t118 69q70 0 104 -61.5t34 -152.5q0 -31 -1 -43zM109 292h151q1 68 -20 104t-52 36q-35 0 -55.5 -42.5t-23.5 -97.5z" />
<glyph unicode="&#xe9;" horiz-adv-x="363" d="M235 682h79l-105 -135h-51zM333 235h-225q1 -180 115 -180q47 0 80 19l12 -57q-41 -23 -106 -23q-85 0 -130.5 65t-45.5 178q0 117 45 186t118 69q70 0 104 -61.5t34 -152.5q0 -31 -1 -43zM109 292h151q1 68 -20 104t-52 36q-35 0 -55.5 -42.5t-23.5 -97.5z" />
<glyph unicode="&#xea;" horiz-adv-x="363" d="M168 682h52l79 -135h-57l-47 86h-2l-46 -86h-58zM333 235h-225q1 -180 115 -180q47 0 80 19l12 -57q-41 -23 -106 -23q-85 0 -130.5 65t-45.5 178q0 117 45 186t118 69q70 0 104 -61.5t34 -152.5q0 -31 -1 -43zM109 292h151q1 68 -20 104t-52 36q-35 0 -55.5 -42.5 t-23.5 -97.5z" />
<glyph unicode="&#xeb;" horiz-adv-x="363" d="M120 566h-1q-18 0 -31 12.5t-13 31.5t13 32t32 13q18 0 30 -12.5t12 -32.5q0 -19 -12 -31.5t-30 -12.5zM275 566h-1q-18 0 -30.5 12.5t-12.5 31.5t13 32t31 13t30.5 -12.5t12.5 -32.5q0 -19 -12 -31.5t-31 -12.5zM333 235h-225q1 -180 115 -180q47 0 80 19l12 -57 q-41 -23 -106 -23q-85 0 -130.5 65t-45.5 178q0 117 45 186t118 69q70 0 104 -61.5t34 -152.5q0 -31 -1 -43zM109 292h151q1 68 -20 104t-52 36q-35 0 -55.5 -42.5t-23.5 -97.5z" />
<glyph unicode="&#xec;" horiz-adv-x="184" d="M-29 682h79l77 -135h-51zM131 0h-77v484h77v-484z" />
<glyph unicode="&#xed;" horiz-adv-x="184" d="M131 682h79l-105 -135h-51zM131 0h-77v484h77v-484z" />
<glyph unicode="&#xee;" horiz-adv-x="184" d="M67 682h52l79 -135h-57l-47 86h-2l-46 -86h-58zM131 0h-77v484h77v-484z" />
<glyph unicode="&#xef;" horiz-adv-x="184" d="M16 566h-1q-18 0 -31 12.5t-13 31.5t13 32t32 13q18 0 30 -12.5t12 -32.5q0 -19 -12 -31.5t-30 -12.5zM171 566h-1q-18 0 -30.5 12.5t-12.5 31.5t13 32t31 13t30.5 -12.5t12.5 -32.5q0 -19 -12 -31.5t-31 -12.5zM131 0h-77v484h77v-484z" />
<glyph unicode="&#xf0;" horiz-adv-x="381" d="M191 53h1q31 0 49.5 32.5t24 70t5.5 81.5q0 103 -15 145q-15 49 -64 49q-25 0 -42 -19t-25.5 -50.5t-11.5 -60t-3 -58.5q0 -47 5.5 -86t25 -71.5t50.5 -32.5zM79 508l-20 33l84 48q-10 12 -71 73l45 41q54 -48 84 -82l91 52l20 -35l-84 -47q49 -58 80 -126 q40 -86 40 -217q1 -131 -47 -193.5t-113 -62.5q-69 0 -112 64t-43 185q0 116 42 178.5t101 66.5q32 2 54 -15l2 3q-19 41 -59 86z" />
<glyph unicode="&#xf1;" horiz-adv-x="405" d="M138 561h-42q-1 41 15 67.5t46 26.5q19 0 49 -17q28 -17 40 -17q23 0 25 36h41q0 -90 -63 -90q-19 0 -49 17t-37 17q-22 0 -25 -40zM54 0v359q0 33 -2 75t-2 50h67l4 -58h2q36 66 111 66q53 0 85 -41.5t32 -125.5v-325h-77v312q0 115 -67 115q-25 0 -45.5 -20.5 t-27.5 -58.5q-3 -18 -3 -43v-305h-77z" />
<glyph unicode="&#xf2;" horiz-adv-x="383" d="M77 682h79l77 -135h-51zM195 492q68 0 112 -64.5t44 -185.5q0 -129 -48 -189.5t-113 -60.5q-69 0 -113 63.5t-44 185.5q0 125 47 188t115 63zM192 430q-24 0 -41.5 -18.5t-25.5 -48.5t-11.5 -59.5t-3.5 -61.5q0 -34 3.5 -64t12 -60t26 -47.5t42.5 -17.5q23 0 40 18.5 t24.5 49t11 60t3.5 61.5t-3.5 61.5t-11.5 59.5t-25 48.5t-41 18.5z" />
<glyph unicode="&#xf3;" horiz-adv-x="383" d="M231 682h79l-105 -135h-51zM195 492q68 0 112 -64.5t44 -185.5q0 -129 -48 -189.5t-113 -60.5q-69 0 -113 63.5t-44 185.5q0 125 47 188t115 63zM192 430q-24 0 -41.5 -18.5t-25.5 -48.5t-11.5 -59.5t-3.5 -61.5q0 -34 3.5 -64t12 -60t26 -47.5t42.5 -17.5q23 0 40 18.5 t24.5 49t11 60t3.5 61.5t-3.5 61.5t-11.5 59.5t-25 48.5t-41 18.5z" />
<glyph unicode="&#xf4;" horiz-adv-x="383" d="M166 682h52l79 -135h-57l-47 86h-2l-46 -86h-58zM195 492q68 0 112 -64.5t44 -185.5q0 -129 -48 -189.5t-113 -60.5q-69 0 -113 63.5t-44 185.5q0 125 47 188t115 63zM192 430q-24 0 -41.5 -18.5t-25.5 -48.5t-11.5 -59.5t-3.5 -61.5q0 -34 3.5 -64t12 -60t26 -47.5 t42.5 -17.5q23 0 40 18.5t24.5 49t11 60t3.5 61.5t-3.5 61.5t-11.5 59.5t-25 48.5t-41 18.5z" />
<glyph unicode="&#xf5;" horiz-adv-x="383" d="M126 561h-42q-1 41 15 67.5t46 26.5q19 0 49 -17q28 -17 40 -17q23 0 25 36h41q0 -90 -63 -90q-19 0 -49 17t-37 17q-22 0 -25 -40zM195 492q68 0 112 -64.5t44 -185.5q0 -129 -48 -189.5t-113 -60.5q-69 0 -113 63.5t-44 185.5q0 125 47 188t115 63zM192 430 q-24 0 -41.5 -18.5t-25.5 -48.5t-11.5 -59.5t-3.5 -61.5q0 -34 3.5 -64t12 -60t26 -47.5t42.5 -17.5q23 0 40 18.5t24.5 49t11 60t3.5 61.5t-3.5 61.5t-11.5 59.5t-25 48.5t-41 18.5z" />
<glyph unicode="&#xf6;" horiz-adv-x="383" d="M115 566h-1q-18 0 -31 12.5t-13 31.5t13 32t32 13q18 0 30 -12.5t12 -32.5q0 -19 -12 -31.5t-30 -12.5zM270 566h-1q-18 0 -30.5 12.5t-12.5 31.5t13 32t31 13t30.5 -12.5t12.5 -32.5q0 -19 -12 -31.5t-31 -12.5zM195 492q68 0 112 -64.5t44 -185.5q0 -129 -48 -189.5 t-113 -60.5q-69 0 -113 63.5t-44 185.5q0 125 47 188t115 63zM192 430q-24 0 -41.5 -18.5t-25.5 -48.5t-11.5 -59.5t-3.5 -61.5q0 -34 3.5 -64t12 -60t26 -47.5t42.5 -17.5q23 0 40 18.5t24.5 49t11 60t3.5 61.5t-3.5 61.5t-11.5 59.5t-25 48.5t-41 18.5z" />
<glyph unicode="&#xf7;" horiz-adv-x="596" d="M298 397h-1q-19 0 -31 13t-12 33q0 21 12 34t32 13q21 0 33 -13t12 -34t-12 -33.5t-33 -12.5zM556 240h-516v54h516v-54zM298 44h-1q-19 0 -31 13t-12 33q0 21 12 34t32 13q21 0 33 -13t12 -34t-12 -33.5t-33 -12.5z" />
<glyph unicode="&#xf8;" horiz-adv-x="383" d="M192 492h1q43 0 81 -30l25 53l42 -22l-34 -68q44 -64 44 -183q0 -128 -48 -189t-111 -61q-46 0 -81 28l-26 -53l-39 25l31 64q-44 65 -44 185q0 124 46.5 187.5t112.5 63.5zM122 131l121 267q-13 32 -51 32q-26 0 -44 -19t-26.5 -50t-11.5 -59.5t-3 -59.5q0 -63 13 -110z M263 348l-120 -264q15 -31 49 -31q25 0 43 17.5t26.5 47t12 58.5t3.5 61q0 61 -12 110z" />
<glyph unicode="&#xf9;" horiz-adv-x="398" d="M85 682h79l77 -135h-51zM344 484v-352q0 -32 2 -81.5t2 -50.5h-67l-5 51h-2q-14 -22 -41.5 -40.5t-62.5 -18.5q-62 0 -90 46.5t-28 139.5v306h77v-295q0 -64 14 -98t51 -34q30 0 47.5 21t21.5 43q4 17 4 44v319h77z" />
<glyph unicode="&#xfa;" horiz-adv-x="398" d="M245 682h79l-105 -135h-51zM344 484v-352q0 -32 2 -81.5t2 -50.5h-67l-5 51h-2q-14 -22 -41.5 -40.5t-62.5 -18.5q-62 0 -90 46.5t-28 139.5v306h77v-295q0 -64 14 -98t51 -34q30 0 47.5 21t21.5 43q4 17 4 44v319h77z" />
<glyph unicode="&#xfb;" horiz-adv-x="398" d="M173 682h52l79 -135h-57l-47 86h-2l-46 -86h-58zM344 484v-352q0 -32 2 -81.5t2 -50.5h-67l-5 51h-2q-14 -22 -41.5 -40.5t-62.5 -18.5q-62 0 -90 46.5t-28 139.5v306h77v-295q0 -64 14 -98t51 -34q30 0 47.5 21t21.5 43q4 17 4 44v319h77z" />
<glyph unicode="&#xfc;" horiz-adv-x="398" d="M125 566h-1q-18 0 -31 12.5t-13 31.5t13 32t32 13q18 0 30 -12.5t12 -32.5q0 -19 -12 -31.5t-30 -12.5zM280 566h-1q-18 0 -30.5 12.5t-12.5 31.5t13 32t31 13t30.5 -12.5t12.5 -32.5q0 -19 -12 -31.5t-31 -12.5zM344 484v-352q0 -32 2 -81.5t2 -50.5h-67l-5 51h-2 q-14 -22 -41.5 -40.5t-62.5 -18.5q-62 0 -90 46.5t-28 139.5v306h77v-295q0 -64 14 -98t51 -34q30 0 47.5 21t21.5 43q4 17 4 44v319h77z" />
<glyph unicode="&#xfd;" horiz-adv-x="346" d="M216 682h79l-105 -135h-51zM13 484h81l64 -278l20 -100h2q7 38 21 99l57 279h76l-79 -311q-27 -111 -54 -186.5t-66 -125.5q-42 -53 -87 -74l-28 66q35 19 68 61q28 35 44 81q5 15 5 24q0 12 -2 18z" />
<glyph unicode="&#xfe;" horiz-adv-x="399" d="M53 665h76v-241h2q33 68 100 68q60 0 97.5 -66t37.5 -183q0 -124 -43.5 -187.5t-101.5 -63.5q-63 0 -89 57h-2v-241h-77v857zM130 301v-124q0 -25 4 -40q10 -45 30 -63t40 -18q84 0 84 186q0 81 -20.5 132.5t-63.5 51.5q-26 0 -46.5 -26.5t-24.5 -61.5q-3 -12 -3 -37z " />
<glyph unicode="&#xff;" horiz-adv-x="346" d="M100 566h-1q-18 0 -31 12.5t-13 31.5t13 32t32 13q18 0 30 -12.5t12 -32.5q0 -19 -12 -31.5t-30 -12.5zM255 566h-1q-18 0 -30.5 12.5t-12.5 31.5t13 32t31 13t30.5 -12.5t12.5 -32.5q0 -19 -12 -31.5t-31 -12.5zM13 484h81l64 -278l20 -100h2q7 38 21 99l57 279h76 l-79 -311q-27 -111 -54 -186.5t-66 -125.5q-42 -53 -87 -74l-28 66q35 19 68 61q28 35 44 81q5 15 5 24q0 12 -2 18z" />
<glyph unicode="&#x100;" horiz-adv-x="435" d="M290 202h-149l-45 -202h-74l154 674h85l150 -674h-76zM152 264h128l-35 171q-10 49 -27 154h-4q-14 -88 -27 -154zM111 788h213v-53h-213v53z" />
<glyph unicode="&#x101;" horiz-adv-x="364" d="M84 631h197v-50h-197v50zM310 319v-209q0 -79 5 -110h-70l-5 51h-3q-33 -59 -96 -59q-49 0 -82 38.5t-33 99.5q0 86 59 130.5t147 45.5v15q0 53 -17 81.5t-60 28.5q-42 0 -80 -25l-17 54q43 32 113 32q139 0 139 -173zM234 152v98q-133 0 -133 -112q0 -43 18 -64.5 t41 -21.5q26 0 45.5 19t26.5 54q2 9 2 27z" />
<glyph unicode="&#x102;" horiz-adv-x="435" d="M290 202h-149l-45 -202h-74l154 674h85l150 -674h-76zM152 264h128l-35 171q-10 49 -27 154h-4q-14 -88 -27 -154zM111 807h45q8 -43 61 -43t62 43h45q0 -43 -28.5 -69.5t-77.5 -26.5q-50 0 -78.5 25.5t-28.5 70.5z" />
<glyph unicode="&#x103;" horiz-adv-x="364" d="M76 669h43q2 -28 19.5 -45t42.5 -17q29 0 46 17t18 45h43q2 -50 -27.5 -81.5t-79.5 -31.5t-78.5 32t-26.5 81zM310 319v-209q0 -79 5 -110h-70l-5 51h-3q-33 -59 -96 -59q-49 0 -82 38.5t-33 99.5q0 86 59 130.5t147 45.5v15q0 53 -17 81.5t-60 28.5q-42 0 -80 -25 l-17 54q43 32 113 32q139 0 139 -173zM234 152v98q-133 0 -133 -112q0 -43 18 -64.5t41 -21.5q26 0 45.5 19t26.5 54q2 9 2 27z" />
<glyph unicode="&#x104;" horiz-adv-x="435" d="M261 674l150 -674h-23q-45 -56 -45 -97q0 -22 12.5 -34t29.5 -12q24 0 42 9l11 -43q-28 -22 -72 -22q-39 0 -61.5 22t-22.5 61q0 51 51 122l-43 196h-149l-45 -202h-74l154 674h85zM152 264h128l-35 171q-10 49 -27 154h-4q-14 -88 -27 -154z" />
<glyph unicode="&#x105;" horiz-adv-x="364" d="M310 319v-209q0 -79 8 -110h-18q-41 -53 -41 -103q0 -21 12.5 -33.5t28.5 -12.5q25 0 43 9l11 -43q-30 -22 -72 -22q-39 0 -61.5 22t-22.5 61q0 49 47 122l-5 51h-3q-33 -59 -96 -59q-49 0 -82 38.5t-33 99.5q0 86 59 130.5t147 45.5v15q0 53 -17 81.5t-60 28.5 q-42 0 -80 -25l-17 54q43 32 113 32q139 0 139 -173zM234 152v98q-133 0 -133 -112q0 -43 18 -64.5t41 -21.5q26 0 45.5 19t26.5 54q2 9 2 27z" />
<glyph unicode="&#x106;" horiz-adv-x="373" d="M342 77l12 -65q-34 -18 -96 -18q-103 0 -164.5 84.5t-61.5 250.5q0 95 22 166.5t58 110t75.5 56.5t82.5 18q58 0 84 -17l-17 -65q-32 14 -68 14q-63 0 -109.5 -67t-46.5 -209q0 -144 44.5 -209t113.5 -65q41 0 71 15zM289 818h91l-124 -108h-61z" />
<glyph unicode="&#x107;" horiz-adv-x="302" d="M235 682h79l-105 -135h-51zM280 71l10 -59q-31 -18 -80 -18q-81 0 -129 63.5t-48 181.5q0 108 51.5 180t139.5 72q42 0 68 -15l-15 -63q-26 13 -55 13q-54 0 -83 -54.5t-29 -132.5q0 -85 30.5 -133t83.5 -48q27 0 56 13z" />
<glyph unicode="&#x108;" horiz-adv-x="373" d="M342 77l12 -65q-34 -18 -96 -18q-103 0 -164.5 84.5t-61.5 250.5q0 95 22 166.5t58 110t75.5 56.5t82.5 18q58 0 84 -17l-17 -65q-32 14 -68 14q-63 0 -109.5 -67t-46.5 -209q0 -144 44.5 -209t113.5 -65q41 0 71 15zM202 808h67l87 -98h-68l-52 55h-2l-51 -55h-67z" />
<glyph unicode="&#x109;" horiz-adv-x="302" d="M167 682h52l79 -135h-57l-47 86h-2l-46 -86h-58zM280 71l10 -59q-31 -18 -80 -18q-81 0 -129 63.5t-48 181.5q0 108 51.5 180t139.5 72q42 0 68 -15l-15 -63q-26 13 -55 13q-54 0 -83 -54.5t-29 -132.5q0 -85 30.5 -133t83.5 -48q27 0 56 13z" />
<glyph unicode="&#x10a;" horiz-adv-x="373" d="M342 77l12 -65q-34 -18 -96 -18q-103 0 -164.5 84.5t-61.5 250.5q0 95 22 166.5t58 110t75.5 56.5t82.5 18q58 0 84 -17l-17 -65q-32 14 -68 14q-63 0 -109.5 -67t-46.5 -209q0 -144 44.5 -209t113.5 -65q41 0 71 15zM242 720h-1q-18 0 -31 13t-13 32t13 31.5t32 12.5 t31.5 -12.5t12.5 -31.5t-12.5 -32t-31.5 -13z" />
<glyph unicode="&#x10b;" horiz-adv-x="302" d="M191 566h-1q-18 0 -30.5 12.5t-12.5 31.5t13 32t31 13t30.5 -12.5t12.5 -32.5q0 -19 -12 -31.5t-31 -12.5zM280 71l10 -59q-31 -18 -80 -18q-81 0 -129 63.5t-48 181.5q0 108 51.5 180t139.5 72q42 0 68 -15l-15 -63q-26 13 -55 13q-54 0 -83 -54.5t-29 -132.5 q0 -85 30.5 -133t83.5 -48q27 0 56 13z" />
<glyph unicode="&#x10c;" horiz-adv-x="373" d="M342 77l12 -65q-34 -18 -96 -18q-103 0 -164.5 84.5t-61.5 250.5q0 95 22 166.5t58 110t75.5 56.5t82.5 18q58 0 84 -17l-17 -65q-32 14 -68 14q-63 0 -109.5 -67t-46.5 -209q0 -144 44.5 -209t113.5 -65q41 0 71 15zM276 710h-66l-87 98h67l52 -58h2l52 58h66z" />
<glyph unicode="&#x10d;" horiz-adv-x="302" d="M217 547h-53l-79 135h58l46 -87h2l47 87h58zM280 71l10 -59q-31 -18 -80 -18q-81 0 -129 63.5t-48 181.5q0 108 51.5 180t139.5 72q42 0 68 -15l-15 -63q-26 13 -55 13q-54 0 -83 -54.5t-29 -132.5q0 -85 30.5 -133t83.5 -48q27 0 56 13z" />
<glyph unicode="&#x10e;" horiz-adv-x="445" d="M60 3v661q43 13 104 13q101 0 158 -51q91 -79 91 -273q0 -197 -81 -284q-64 -73 -186 -73q-54 0 -86 7zM137 610v-547q11 -2 29 -2q34 0 62 13.5t53 45t38.5 90.5t13.5 141q0 263 -160 263q-23 0 -36 -4zM228 710h-66l-87 98h67l52 -58h2l52 58h66z" />
<glyph unicode="&#x10f;" horiz-adv-x="409" d="M269 692h76v-576q0 -4 4 -116h-66l-5 61h-3q-32 -69 -101 -69q-63 0 -102 65.5t-39 182.5q0 122 42.5 187t103.5 65t88 -58h2v258zM269 171v129q0 21 -1 32q-4 38 -24.5 66t-47.5 28q-45 0 -65.5 -52.5t-20.5 -133.5t21 -132.5t61 -51.5q54 0 74 83q3 13 3 32zM422 505 l-34 22q29 45 29 90q0 42 -32 68l57 12q33 -23 33 -72q0 -57 -53 -120z" />
<glyph unicode="&#x110;" horiz-adv-x="453" d="M0 323v57h69v284q42 13 103 13q101 0 158 -51q91 -77 91 -275t-81 -285q-63 -72 -185 -72q-55 0 -86 7v322h-69zM247 380v-57h-102v-263q12 -2 30 -2q73 0 120 67t47 226q0 263 -161 263q-14 0 -36 -4v-230h102z" />
<glyph unicode="&#x111;" horiz-adv-x="399" d="M403 543h-58v-427q0 -4 4 -116h-66l-5 61h-3q-32 -69 -101 -69q-63 0 -102 65.5t-39 182.5q0 122 42.5 187t103.5 65t88 -58h2v109h-131v54h131v95h76v-95h58v-54zM269 171v129q0 21 -1 32q-4 38 -24.5 66t-47.5 28q-45 0 -65.5 -52.5t-20.5 -133.5t21 -132.5t61 -51.5 q54 0 74 83q3 13 3 32z" />
<glyph unicode="&#x112;" horiz-adv-x="354" d="M306 385v-65h-169v-253h192v-67h-269v674h257v-67h-180v-222h169zM86 788h213v-53h-213v53z" />
<glyph unicode="&#x113;" horiz-adv-x="363" d="M89 631h197v-50h-197v50zM333 235h-225q1 -180 115 -180q47 0 80 19l12 -57q-41 -23 -106 -23q-85 0 -130.5 65t-45.5 178q0 117 45 186t118 69q70 0 104 -61.5t34 -152.5q0 -31 -1 -43zM109 292h151q1 68 -20 104t-52 36q-35 0 -55.5 -42.5t-23.5 -97.5z" />
<glyph unicode="&#x114;" horiz-adv-x="354" d="M306 385v-65h-169v-253h192v-67h-269v674h257v-67h-180v-222h169zM84 809h45q8 -43 61 -43t62 43h45q0 -43 -28.5 -69.5t-77.5 -26.5q-50 0 -78.5 25.5t-28.5 70.5z" />
<glyph unicode="&#x115;" horiz-adv-x="363" d="M83 669h43q2 -28 19 -45t43 -17q29 0 46 17t18 45h43q2 -50 -27.5 -81.5t-79.5 -31.5t-78.5 32t-26.5 81zM333 235h-225q1 -180 115 -180q47 0 80 19l12 -57q-41 -23 -106 -23q-85 0 -130.5 65t-45.5 178q0 117 45 186t118 69q70 0 104 -61.5t34 -152.5q0 -31 -1 -43z M109 292h151q1 68 -20 104t-52 36q-35 0 -55.5 -42.5t-23.5 -97.5z" />
<glyph unicode="&#x116;" horiz-adv-x="354" d="M306 385v-65h-169v-253h192v-67h-269v674h257v-67h-180v-222h169zM194 727h-1q-18 0 -31 13t-13 32t13 31.5t32 12.5t31.5 -12.5t12.5 -31.5t-12.5 -32t-31.5 -13z" />
<glyph unicode="&#x117;" horiz-adv-x="363" d="M190 566h-1q-18 0 -30.5 12.5t-12.5 31.5t13 32t31 13t30.5 -12.5t12.5 -32.5q0 -19 -12 -31.5t-31 -12.5zM333 235h-225q1 -180 115 -180q47 0 80 19l12 -57q-41 -23 -106 -23q-85 0 -130.5 65t-45.5 178q0 117 45 186t118 69q70 0 104 -61.5t34 -152.5q0 -31 -1 -43z M109 292h151q1 68 -20 104t-52 36q-35 0 -55.5 -42.5t-23.5 -97.5z" />
<glyph unicode="&#x118;" horiz-adv-x="354" d="M324 -136l11 -43q-30 -22 -76 -22q-37 0 -58.5 20.5t-21.5 56.5t24 69t58 55h-201v674h257v-67h-180v-222h169v-65h-169v-253h192v-67q-1 0 -5 -1t-5 -2q-79 -52 -79 -102q0 -20 12 -30t28 -10q26 0 44 9z" />
<glyph unicode="&#x119;" horiz-adv-x="363" d="M277 -132l13 -42q-31 -25 -74 -25q-38 0 -60.5 20.5t-22.5 54.5q0 33 23 65.5t53 51.5v1h-4q-83 1 -127.5 66t-44.5 177q0 117 45 186t118 69q70 0 104 -61.5t34 -152.5q0 -33 -1 -43h-225q1 -180 115 -180q47 0 80 19l12 -57q-21 -9 -26 -11q-38 -19 -66.5 -51 t-28.5 -61q0 -20 11 -29.5t26 -9.5q23 0 46 13zM109 292h151q1 68 -20 104t-52 36q-35 0 -55.5 -42.5t-23.5 -97.5z" />
<glyph unicode="&#x11a;" horiz-adv-x="354" d="M306 385v-65h-169v-253h192v-67h-269v674h257v-67h-180v-222h169zM223 710h-66l-87 98h67l52 -58h2l52 58h66z" />
<glyph unicode="&#x11b;" horiz-adv-x="363" d="M214 547h-53l-79 135h58l46 -87h2l47 87h58zM333 235h-225q1 -180 115 -180q47 0 80 19l12 -57q-41 -23 -106 -23q-85 0 -130.5 65t-45.5 178q0 117 45 186t118 69q70 0 104 -61.5t34 -152.5q0 -31 -1 -43zM109 292h151q1 68 -20 104t-52 36q-35 0 -55.5 -42.5 t-23.5 -97.5z" />
<glyph unicode="&#x11c;" horiz-adv-x="436" d="M392 352v-335q-56 -23 -120 -23q-100 0 -159 66q-82 88 -81 268q0 94 23 165t60.5 110t80.5 58t90 19q60 0 96 -19l-17 -66q-32 16 -78 16q-73 0 -124 -66t-51 -210t45.5 -209.5t114.5 -65.5q31 0 47 8v220h-87v64h160zM221 808h67l87 -98h-68l-52 55h-2l-51 -55h-67z " />
<glyph unicode="&#x11d;" horiz-adv-x="399" d="M171 682h52l79 -135h-57l-47 86h-2l-46 -86h-58zM346 333v-271q0 -91 -11.5 -136.5t-36.5 -73.5q-46 -52 -129 -52q-63 0 -106 24l18 60q40 -21 90 -21q99 0 99 148v49h-2q-26 -59 -93 -59q-64 0 -103 66t-39 173q0 124 46 188t106 64t90 -63h2l4 55h69q-4 -136 -4 -151z M270 177v140q0 22 -4 35q-20 74 -70 74q-41 0 -63.5 -50t-22.5 -132q0 -89 24 -134.5t62 -45.5q50 0 69 69q5 19 5 44z" />
<glyph unicode="&#x11e;" horiz-adv-x="436" d="M392 352v-335q-56 -23 -120 -23q-100 0 -159 66q-82 88 -81 268q0 94 23 165t60.5 110t80.5 58t90 19q60 0 96 -19l-17 -66q-32 16 -78 16q-73 0 -124 -66t-51 -210t45.5 -209.5t114.5 -65.5q31 0 47 8v220h-87v64h160zM146 807h45q8 -43 61 -43t62 43h45 q0 -43 -28.5 -69.5t-77.5 -26.5q-50 0 -78.5 25.5t-28.5 70.5z" />
<glyph unicode="&#x11f;" horiz-adv-x="399" d="M93 669h43q2 -28 19 -45t43 -17q29 0 46 17t18 45h43q2 -50 -27.5 -81.5t-79.5 -31.5t-78.5 32t-26.5 81zM346 333v-271q0 -91 -11.5 -136.5t-36.5 -73.5q-46 -52 -129 -52q-63 0 -106 24l18 60q40 -21 90 -21q99 0 99 148v49h-2q-26 -59 -93 -59q-64 0 -103 66t-39 173 q0 124 46 188t106 64t90 -63h2l4 55h69q-4 -136 -4 -151zM270 177v140q0 22 -4 35q-20 74 -70 74q-41 0 -63.5 -50t-22.5 -132q0 -89 24 -134.5t62 -45.5q50 0 69 69q5 19 5 44z" />
<glyph unicode="&#x120;" horiz-adv-x="436" d="M392 352v-335q-56 -23 -120 -23q-100 0 -159 66q-82 88 -81 268q0 94 23 165t60.5 110t80.5 58t90 19q60 0 96 -19l-17 -66q-32 16 -78 16q-73 0 -124 -66t-51 -210t45.5 -209.5t114.5 -65.5q31 0 47 8v220h-87v64h160zM256 720h-1q-18 0 -31 13t-13 32t13 31.5t32 12.5 t31.5 -12.5t12.5 -31.5t-12.5 -32t-31.5 -13z" />
<glyph unicode="&#x121;" horiz-adv-x="399" d="M201 566h-1q-18 0 -30.5 12.5t-12.5 31.5t13 32t31 13t30.5 -12.5t12.5 -32.5q0 -19 -12 -31.5t-31 -12.5zM346 333v-271q0 -91 -11.5 -136.5t-36.5 -73.5q-46 -52 -129 -52q-63 0 -106 24l18 60q40 -21 90 -21q99 0 99 148v49h-2q-26 -59 -93 -59q-64 0 -103 66t-39 173 q0 124 46 188t106 64t90 -63h2l4 55h69q-4 -136 -4 -151zM270 177v140q0 22 -4 35q-20 74 -70 74q-41 0 -63.5 -50t-22.5 -132q0 -89 24 -134.5t62 -45.5q50 0 69 69q5 19 5 44z" />
<glyph unicode="&#x122;" horiz-adv-x="436" d="M392 352v-335q-56 -23 -120 -23q-100 0 -159 66q-82 88 -81 268q0 94 23 165t60.5 110t80.5 58t90 19q60 0 96 -19l-17 -66q-32 16 -78 16q-73 0 -124 -66t-51 -210t45.5 -209.5t114.5 -65.5q31 0 47 8v220h-87v64h160zM206 -214l-17 37q64 19 64 63q0 34 -33 61l62 11 q34 -22 34 -70q0 -44 -31.5 -69t-78.5 -33z" />
<glyph unicode="&#x123;" horiz-adv-x="399" d="M346 333v-271q0 -91 -11.5 -136.5t-36.5 -73.5q-46 -52 -129 -52q-63 0 -106 24l18 60q40 -21 90 -21q99 0 99 148v49h-2q-26 -59 -93 -59q-64 0 -103 66t-39 173q0 124 46 188t106 64t90 -63h2l4 55h69q-4 -136 -4 -151zM270 177v140q0 22 -4 35q-20 74 -70 74 q-41 0 -63.5 -50t-22.5 -132q0 -89 24 -134.5t62 -45.5q50 0 69 69q5 19 5 44zM259 701l16 -34q-67 -18 -67 -65q0 -34 35 -61l-60 -12q-34 26 -34 70t31 69t79 33z" />
<glyph unicode="&#x124;" horiz-adv-x="463" d="M60 674h77v-289h189v289h77v-674h-77v315h-189v-315h-77v674zM200 808h67l87 -98h-68l-52 55h-2l-51 -55h-67z" />
<glyph unicode="&#x125;" horiz-adv-x="405" d="M54 0v692h77v-260h2q15 25 40 42q29 18 65 18q50 0 81.5 -42.5t31.5 -128.5v-321h-77v312q0 115 -65 115q-57 0 -75 -77q-3 -16 -3 -37v-313h-77zM60 818h67l87 -98h-68l-52 55h-2l-51 -55h-67z" />
<glyph unicode="&#x126;" horiz-adv-x="463" d="M450 483h-47v-483h-77v305h-189v-305h-77v483h-47v55h47v136h77v-136h189v136h77v-136h47v-55zM326 375v108h-189v-108h189z" />
<glyph unicode="&#x127;" horiz-adv-x="405" d="M351 0h-77v312q0 115 -65 115q-57 0 -75 -77q-3 -16 -3 -37v-313h-77v543h-60v54h60v95h77v-95h133v-54h-133v-111h2q15 25 40 42q29 18 65 18q50 0 81.5 -42.5t31.5 -128.5v-321z" />
<glyph unicode="&#x128;" horiz-adv-x="199" d="M60 674h77v-674h-77v674zM35 718h-42q0 43 16 68.5t44 25.5q19 0 47 -17q30 -18 39 -18q13 0 19 8t8 28h40q2 -90 -62 -90q-21 0 -49 17q-25 17 -36 17q-21 0 -24 -39z" />
<glyph unicode="&#x129;" horiz-adv-x="184" d="M27 561h-42q-1 41 15 67.5t46 26.5q19 0 49 -17q28 -17 40 -17q23 0 25 36h41q0 -90 -63 -90q-19 0 -49 17t-37 17q-22 0 -25 -40zM131 0h-77v484h77v-484z" />
<glyph unicode="&#x12a;" horiz-adv-x="199" d="M60 674h77v-674h-77v674zM-6 788h213v-53h-213v53z" />
<glyph unicode="&#x12b;" horiz-adv-x="184" d="M-5 631h197v-50h-197v50zM131 0h-77v484h77v-484z" />
<glyph unicode="&#x12c;" horiz-adv-x="199" d="M60 674h77v-674h-77v674zM-8 809h45q8 -43 61 -43t62 43h45q0 -43 -28.5 -69.5t-77.5 -26.5q-50 0 -78.5 25.5t-28.5 70.5z" />
<glyph unicode="&#x12d;" horiz-adv-x="184" d="M-13 669h43q2 -28 19 -45t43 -17q29 0 46 17t18 45h43q2 -50 -27.5 -81.5t-79.5 -31.5t-78.5 32t-26.5 81zM131 0h-77v484h77v-484z" />
<glyph unicode="&#x12e;" horiz-adv-x="199" d="M137 674v-674h-22q-41 -56 -41 -102q0 -22 12 -34.5t29 -12.5q25 0 43 9l11 -43q-30 -22 -72 -22q-38 0 -61 22t-23 60q0 50 47 123v674h77z" />
<glyph unicode="&#x12f;" horiz-adv-x="184" d="M91 559h-1q-19 0 -31.5 14t-12.5 36t13 36t32 14q21 0 33.5 -13.5t12.5 -36.5q1 -22 -12 -36t-34 -14zM131 484v-484h-23q-41 -56 -41 -103q0 -21 13 -33.5t29 -12.5q26 0 42 9l11 -43q-28 -22 -72 -22q-39 0 -61.5 22t-22.5 61q0 47 48 122v484h77z" />
<glyph unicode="&#x130;" horiz-adv-x="199" d="M60 674h77v-674h-77v674zM100 727h-1q-18 0 -31 13t-13 32t13 31.5t32 12.5t31.5 -12.5t12.5 -31.5t-12.5 -32t-31.5 -13z" />
<glyph unicode="&#x131;" horiz-adv-x="184" d="M131 0h-77v484h77v-484z" />
<glyph unicode="&#x132;" horiz-adv-x="464" d="M60 674h77v-674h-77v674zM333 189v485h77v-484q0 -108 -40.5 -153t-117.5 -45q-32 0 -50 7l7 65q13 -4 37 -4q45 0 66 26.5t21 102.5z" />
<glyph unicode="&#x133;" horiz-adv-x="373" d="M131 0h-77v484h77v-484zM91 659q21 0 33.5 -13.5t12.5 -36.5q1 -22 -12 -36t-35 -14q-19 0 -31.5 14t-12.5 36t13 36t32 14zM166 -200l-10 61q48 13 65 38q23 35 23 154v431h77v-453q0 -75 -11.5 -116t-37.5 -69q-20 -21 -50.5 -33t-55.5 -13zM283 659q20 0 32.5 -13.5 t12.5 -36.5t-12.5 -36.5t-34.5 -13.5q-19 0 -32 14t-12 36q-1 22 12 36t34 14z" />
<glyph unicode="&#x134;" horiz-adv-x="265" d="M134 189v485h77v-484q0 -108 -40.5 -153t-117.5 -45q-32 0 -50 7l7 65q13 -4 37 -4q45 0 66 26.5t21 102.5zM135 808h67l87 -98h-68l-52 55h-2l-51 -55h-67z" />
<glyph unicode="&#x135;" horiz-adv-x="188" d="M-18 -200l-10 61q48 13 65 38q23 35 23 154v431h77v-453q0 -75 -11.5 -116t-37.5 -69q-20 -21 -50.5 -33t-55.5 -13zM69 675h52l79 -135h-57l-47 86h-2l-46 -86h-58z" />
<glyph unicode="&#x136;" horiz-adv-x="404" d="M60 0v674h77v-320h2l42 81l126 239h85l-165 -288l169 -386h-83l-138 325l-38 -65v-260h-77zM159 -207l-17 37q64 19 64 63q0 34 -33 61l62 11q34 -22 34 -70q0 -44 -31.5 -69t-78.5 -33z" />
<glyph unicode="&#x137;" horiz-adv-x="354" d="M130 692v-433h2q23 49 26 54l96 171h83l-128 -204l139 -280h-86l-105 228l-27 -45v-183h-77v692h77zM130 -214l-17 37q64 19 64 63q0 34 -33 61l62 11q34 -22 34 -70q0 -44 -31.5 -69t-78.5 -33z" />
<glyph unicode="&#x138;" horiz-adv-x="354" d="M130 484v-225h2q23 49 26 54l96 171h83l-128 -204l139 -280h-86l-105 228l-27 -45v-183h-77v484h77z" />
<glyph unicode="&#x139;" horiz-adv-x="344" d="M60 0v674h77v-609h190v-65h-267zM160 818h91l-124 -108h-61z" />
<glyph unicode="&#x13a;" horiz-adv-x="191" d="M54 0v692h77v-692h-77zM144 828h91l-124 -108h-61z" />
<glyph unicode="&#x13b;" horiz-adv-x="344" d="M60 0v674h77v-609h190v-65h-267zM125 -214l-17 37q64 19 64 63q0 34 -33 61l62 11q34 -22 34 -70q0 -44 -31.5 -69t-78.5 -33z" />
<glyph unicode="&#x13c;" horiz-adv-x="191" d="M54 0v692h77v-692h-77zM44 -214l-17 37q64 19 64 63q0 34 -33 61l62 11q34 -22 34 -70q0 -44 -31.5 -69t-78.5 -33z" />
<glyph unicode="&#x13d;" horiz-adv-x="344" d="M60 0v674h77v-609h190v-65h-267zM200 503l-17 37q64 19 64 63q0 34 -33 61l62 11q34 -22 34 -70q0 -44 -31.5 -69t-78.5 -33z" />
<glyph unicode="&#x13e;" horiz-adv-x="194" d="M54 0v692h77v-692h-77zM208 505l-34 22q29 45 29 90q0 42 -32 68l57 12q33 -23 33 -72q0 -57 -53 -120z" />
<glyph unicode="&#x13f;" horiz-adv-x="344" d="M60 0v674h77v-609h190v-65h-267zM241 317h-1q-18 0 -31 13t-13 32t13 31.5t32 12.5t31.5 -12.5t12.5 -31.5t-12.5 -32t-31.5 -13z" />
<glyph unicode="&#x140;" horiz-adv-x="235" d="M54 0v692h77v-692h-77zM212 349h-1q-17 0 -29 13t-12 32t12.5 31.5t29.5 12.5t28.5 -12.5t11.5 -31.5t-11.5 -32t-28.5 -13z" />
<glyph unicode="&#x141;" horiz-adv-x="351" d="M334 0h-267v256l-68 -65v70l68 65v348h77v-286l106 102v-71l-106 -101v-253h190v-65z" />
<glyph unicode="&#x142;" horiz-adv-x="198" d="M138 0h-77v296l-62 -63v68l62 64v327h77v-267l63 66v-70l-63 -66v-355z" />
<glyph unicode="&#x143;" horiz-adv-x="465" d="M130 0h-70v674h73l124 -316q63 -162 86 -235h2q-9 159 -9 310v241h69v-674h-73l-128 324q-52 131 -80 229h-2q8 -120 8 -320v-233zM290 818h91l-124 -108h-61z" />
<glyph unicode="&#x144;" horiz-adv-x="405" d="M247 682h79l-105 -135h-51zM54 0v359q0 33 -2 75t-2 50h67l4 -58h2q36 66 111 66q53 0 85 -41.5t32 -125.5v-325h-77v312q0 115 -67 115q-25 0 -45.5 -20.5t-27.5 -58.5q-3 -18 -3 -43v-305h-77z" />
<glyph unicode="&#x145;" horiz-adv-x="465" d="M130 0h-70v674h73l124 -316q63 -162 86 -235h2q-9 159 -9 310v241h69v-674h-73l-128 324q-52 131 -80 229h-2q8 -120 8 -320v-233zM176 -211l-17 37q64 19 64 63q0 34 -33 61l62 11q34 -22 34 -70q0 -44 -31.5 -69t-78.5 -33z" />
<glyph unicode="&#x146;" horiz-adv-x="405" d="M54 0v359q0 33 -2 75t-2 50h67l4 -58h2q36 66 111 66q53 0 85 -41.5t32 -125.5v-325h-77v312q0 115 -67 115q-25 0 -45.5 -20.5t-27.5 -58.5q-3 -18 -3 -43v-305h-77zM158 -208l-17 37q64 19 64 63q0 34 -33 61l62 11q34 -22 34 -70q0 -44 -31.5 -69t-78.5 -33z" />
<glyph unicode="&#x147;" horiz-adv-x="465" d="M130 0h-70v674h73l124 -316q63 -162 86 -235h2q-9 159 -9 310v241h69v-674h-73l-128 324q-52 131 -80 229h-2q8 -120 8 -320v-233zM265 710h-66l-87 98h67l52 -58h2l52 58h66z" />
<glyph unicode="&#x148;" horiz-adv-x="405" d="M229 547h-53l-79 135h58l46 -87h2l47 87h58zM54 0v359q0 33 -2 75t-2 50h67l4 -58h2q36 66 111 66q53 0 85 -41.5t32 -125.5v-325h-77v312q0 115 -67 115q-25 0 -45.5 -20.5t-27.5 -58.5q-3 -18 -3 -43v-305h-77z" />
<glyph unicode="&#x149;" horiz-adv-x="405" d="M54 0v359q0 33 -2 75t-2 50h67l4 -58h2q36 66 111 66q53 0 85 -41.5t32 -125.5v-325h-77v312q0 115 -67 115q-25 0 -45.5 -20.5t-27.5 -58.5q-3 -18 -3 -43v-305h-77zM53 527l-37 20q29 40 29 81q0 38 -32 61l60 11q33 -21 33 -65q0 -52 -53 -108z" />
<glyph unicode="&#x14a;" horiz-adv-x="465" d="M130 0h-70v674h73l124 -316q63 -162 86 -235h2q-9 159 -9 310v241h69v-653q0 -176 -141 -207l-18 59q89 26 89 121l-131 330q-52 131 -80 229h-2q8 -120 8 -320v-233z" />
<glyph unicode="&#x14b;" horiz-adv-x="405" d="M54 0v359q0 33 -2 75t-2 50h67l4 -58h2q36 66 111 66q53 0 85 -41.5t32 -125.5v-294q0 -178 -140 -204l-16 62q39 10 59 41t20 97v285q0 115 -67 115q-25 0 -45.5 -20.5t-27.5 -58.5q-3 -18 -3 -43v-305h-77z" />
<glyph unicode="&#x14c;" horiz-adv-x="446" d="M230 682q86 0 135 -89.5t49 -250.5q0 -180 -54 -265t-141 -85q-86 0 -136.5 89.5t-50.5 256.5q0 164 54 254t144 90zM223 614q-58 0 -84.5 -80t-26.5 -197q0 -75 9.5 -134.5t36 -101t66.5 -41.5q41 0 67 44t34.5 102.5t8.5 132.5q0 52 -5 97t-17 87t-35 66.5t-54 24.5z M118 788h213v-53h-213v53z" />
<glyph unicode="&#x14d;" horiz-adv-x="383" d="M94 631h197v-50h-197v50zM195 492q68 0 112 -64.5t44 -185.5q0 -129 -48 -189.5t-113 -60.5q-69 0 -113 63.5t-44 185.5q0 125 47 188t115 63zM192 430q-24 0 -41.5 -18.5t-25.5 -48.5t-11.5 -59.5t-3.5 -61.5q0 -34 3.5 -64t12 -60t26 -47.5t42.5 -17.5q23 0 40 18.5 t24.5 49t11 60t3.5 61.5t-3.5 61.5t-11.5 59.5t-25 48.5t-41 18.5z" />
<glyph unicode="&#x14e;" horiz-adv-x="446" d="M230 682q86 0 135 -89.5t49 -250.5q0 -180 -54 -265t-141 -85q-86 0 -136.5 89.5t-50.5 256.5q0 164 54 254t144 90zM223 614q-58 0 -84.5 -80t-26.5 -197q0 -75 9.5 -134.5t36 -101t66.5 -41.5q41 0 67 44t34.5 102.5t8.5 132.5q0 52 -5 97t-17 87t-35 66.5t-54 24.5z M114 809h45q8 -43 61 -43t62 43h45q0 -43 -28.5 -69.5t-77.5 -26.5q-50 0 -78.5 25.5t-28.5 70.5z" />
<glyph unicode="&#x14f;" horiz-adv-x="383" d="M84 669h43q2 -28 19.5 -45t42.5 -17q29 0 46 17t18 45h43q2 -50 -27.5 -81.5t-79.5 -31.5t-78.5 32t-26.5 81zM195 492q68 0 112 -64.5t44 -185.5q0 -129 -48 -189.5t-113 -60.5q-69 0 -113 63.5t-44 185.5q0 125 47 188t115 63zM192 430q-24 0 -41.5 -18.5t-25.5 -48.5 t-11.5 -59.5t-3.5 -61.5q0 -34 3.5 -64t12 -60t26 -47.5t42.5 -17.5q23 0 40 18.5t24.5 49t11 60t3.5 61.5t-3.5 61.5t-11.5 59.5t-25 48.5t-41 18.5z" />
<glyph unicode="&#x150;" horiz-adv-x="446" d="M230 682q86 0 135 -89.5t49 -250.5q0 -180 -54 -265t-141 -85q-86 0 -136.5 89.5t-50.5 256.5q0 164 54 254t144 90zM223 614q-58 0 -84.5 -80t-26.5 -197q0 -75 9.5 -134.5t36 -101t66.5 -41.5q41 0 67 44t34.5 102.5t8.5 132.5q0 52 -5 97t-17 87t-35 66.5t-54 24.5z M203 818h81l-100 -99h-53zM330 818h81l-100 -99h-53z" />
<glyph unicode="&#x151;" horiz-adv-x="383" d="M179 682h70l-104 -135h-44zM303 682h70l-104 -135h-44zM195 492q68 0 112 -64.5t44 -185.5q0 -129 -48 -189.5t-113 -60.5q-69 0 -113 63.5t-44 185.5q0 125 47 188t115 63zM192 430q-24 0 -41.5 -18.5t-25.5 -48.5t-11.5 -59.5t-3.5 -61.5q0 -34 3.5 -64t12 -60 t26 -47.5t42.5 -17.5q23 0 40 18.5t24.5 49t11 60t3.5 61.5t-3.5 61.5t-11.5 59.5t-25 48.5t-41 18.5z" />
<glyph unicode="&#x152;" horiz-adv-x="610" d="M585 67v-67h-246q-15 -1 -38 -5q-19 -3 -37 -3q-51 0 -91.5 18.5t-66.5 50t-43 76t-24 92.5t-7 104q0 170 67 259.5t173 89.5q22 0 38 -3q27 -4 36 -5h227v-67h-180v-222h169v-65h-169v-253h192zM316 68v535q-19 11 -54 11q-27 0 -52 -14.5t-48 -45t-36.5 -86.5 t-13.5 -130q-1 -148 43 -213t112 -65q34 0 49 8z" />
<glyph unicode="&#x153;" horiz-adv-x="609" d="M580 237h-225q1 -103 31 -143.5t81 -40.5q34 0 84 20l14 -55q-42 -26 -113 -26q-44 0 -81 26t-53 76h-2q-15 -51 -49.5 -76.5t-75.5 -25.5q-70 0 -114 64t-44 185q0 122 47.5 186.5t115.5 64.5q42 0 75.5 -25t47.5 -74h2q18 46 51 72.5t75 26.5q66 0 100 -62.5t34 -151.5 q0 -9 -0.5 -23t-0.5 -18zM197 430h-1q-26 0 -44.5 -18.5t-26.5 -49.5t-11.5 -60t-3.5 -60q0 -189 88 -189q85 0 85 190q0 187 -86 187zM356 292h151q1 67 -19.5 103t-49.5 36q-36 0 -58 -41.5t-24 -97.5z" />
<glyph unicode="&#x154;" horiz-adv-x="409" d="M60 0v664q48 13 111 13q103 0 152 -48q47 -48 47 -132q0 -124 -108 -173v-2q37 -11 58.5 -47.5t32.5 -103.5q21 -132 38 -171h-78q-14 29 -36 167q-11 69 -36 98t-74 29h-30v-294h-77zM137 611v-258h32q55 0 89 37t34 98q0 126 -115 127q-27 0 -40 -4zM244 818h91 l-124 -108h-61z" />
<glyph unicode="&#x155;" horiz-adv-x="248" d="M180 682h79l-105 -135h-51zM53 0v359q0 24 -2 71.5t-2 53.5h69l4 -76h2q12 36 40.5 60t61.5 24q3 0 8.5 -0.5t7.5 -0.5v-79q-5 1 -16 1q-36 0 -61.5 -29t-31.5 -72q-3 -20 -3 -44v-268h-77z" />
<glyph unicode="&#x156;" horiz-adv-x="409" d="M60 0v664q48 13 111 13q103 0 152 -48q47 -48 47 -132q0 -124 -108 -173v-2q37 -11 58.5 -47.5t32.5 -103.5q21 -132 38 -171h-78q-14 29 -36 167q-11 69 -36 98t-74 29h-30v-294h-77zM137 611v-258h32q55 0 89 37t34 98q0 126 -115 127q-27 0 -40 -4zM157 -207l-17 37 q64 19 64 63q0 34 -33 61l62 11q34 -22 34 -70q0 -44 -31.5 -69t-78.5 -33z" />
<glyph unicode="&#x157;" horiz-adv-x="248" d="M53 0v359q0 24 -2 71.5t-2 53.5h69l4 -76h2q12 36 40.5 60t61.5 24q3 0 8.5 -0.5t7.5 -0.5v-79q-5 1 -16 1q-36 0 -61.5 -29t-31.5 -72q-3 -20 -3 -44v-268h-77zM55 -214l-17 37q64 19 64 63q0 34 -33 61l62 11q34 -22 34 -70q0 -44 -31.5 -69t-78.5 -33z" />
<glyph unicode="&#x158;" horiz-adv-x="409" d="M60 0v664q48 13 111 13q103 0 152 -48q47 -48 47 -132q0 -124 -108 -173v-2q37 -11 58.5 -47.5t32.5 -103.5q21 -132 38 -171h-78q-14 29 -36 167q-11 69 -36 98t-74 29h-30v-294h-77zM137 611v-258h32q55 0 89 37t34 98q0 126 -115 127q-27 0 -40 -4zM229 710h-66 l-87 98h67l52 -58h2l52 58h66z" />
<glyph unicode="&#x159;" horiz-adv-x="248" d="M162 547h-53l-79 135h58l46 -87h2l47 87h58zM53 0v359q0 24 -2 71.5t-2 53.5h69l4 -76h2q12 36 40.5 60t61.5 24q3 0 8.5 -0.5t7.5 -0.5v-79q-5 1 -16 1q-36 0 -61.5 -29t-31.5 -72q-3 -20 -3 -44v-268h-77z" />
<glyph unicode="&#x15a;" horiz-adv-x="361" d="M28 23l17 66q41 -27 97 -27q52 0 82 31t30 83q0 43 -22 74.5t-67 65.5q-127 89 -127 187q0 77 49.5 127t128.5 50q62 0 95 -25l-19 -66q-33 23 -80 23q-46 0 -71.5 -29t-25.5 -67q0 -46 21.5 -72.5t77.5 -66.5q117 -82 117 -194q0 -85 -53.5 -137t-135.5 -52q-33 0 -66 9 t-48 20zM229 818h91l-124 -108h-61z" />
<glyph unicode="&#x15b;" horiz-adv-x="289" d="M190 682h79l-105 -135h-51zM22 22l19 58q39 -25 78 -25q33 0 52 19t19 51q0 29 -13 50t-49 45q-97 63 -97 138q0 58 38 96t95 38q45 0 87 -25l-21 -58q-32 21 -64 21q-30 0 -46.5 -18t-16.5 -43t12 -42t48 -42q100 -64 100 -147q0 -70 -41 -107t-104 -37q-61 0 -96 28z " />
<glyph unicode="&#x15c;" horiz-adv-x="361" d="M28 23l17 66q41 -27 97 -27q52 0 82 31t30 83q0 43 -22 74.5t-67 65.5q-127 89 -127 187q0 77 49.5 127t128.5 50q62 0 95 -25l-19 -66q-33 23 -80 23q-46 0 -71.5 -29t-25.5 -67q0 -46 21.5 -72.5t77.5 -66.5q117 -82 117 -194q0 -85 -53.5 -137t-135.5 -52q-33 0 -66 9 t-48 20zM155 808h67l87 -98h-68l-52 55h-2l-51 -55h-67z" />
<glyph unicode="&#x15d;" horiz-adv-x="289" d="M119 682h52l79 -135h-57l-47 86h-2l-46 -86h-58zM22 22l19 58q39 -25 78 -25q33 0 52 19t19 51q0 29 -13 50t-49 45q-97 63 -97 138q0 58 38 96t95 38q45 0 87 -25l-21 -58q-32 21 -64 21q-30 0 -46.5 -18t-16.5 -43t12 -42t48 -42q100 -64 100 -147q0 -70 -41 -107 t-104 -37q-61 0 -96 28z" />
<glyph unicode="&#x15e;" horiz-adv-x="361" d="M28 23l17 66q41 -27 97 -27q52 0 82 31t30 83q0 43 -22 74.5t-67 65.5q-127 89 -127 187q0 77 49.5 127t128.5 50q62 0 95 -25l-19 -66q-33 23 -80 23q-46 0 -71.5 -29t-25.5 -67q0 -46 21.5 -72.5t77.5 -66.5q117 -82 117 -194q0 -69 -35.5 -116.5t-94.5 -64.5l-27 -52 q27 -4 46 -23.5t19 -47.5q0 -40 -27 -59.5t-64 -19.5q-35 0 -66 18l15 42q24 -15 50 -15q37 0 37 31q0 35 -69 43l34 75h-7q-33 0 -66 9t-48 20z" />
<glyph unicode="&#x15f;" horiz-adv-x="289" d="M22 22l19 58q39 -25 78 -25q33 0 52 19t19 51q0 29 -13 50t-49 45q-97 63 -97 138q0 58 38 96t95 38q45 0 87 -25l-21 -58q-32 21 -64 21q-30 0 -46.5 -18t-16.5 -43t12 -42t48 -42q100 -64 100 -147q0 -55 -26 -89.5t-69 -47.5l-26 -51q27 -4 46 -23.5t19 -47.5 q0 -40 -27 -59.5t-64 -19.5q-35 0 -66 18l15 42q24 -15 50 -15q36 0 36 30q0 37 -68 44l34 75h-4q-54 0 -91 28z" />
<glyph unicode="&#x160;" horiz-adv-x="361" d="M28 23l17 66q41 -27 97 -27q52 0 82 31t30 83q0 43 -22 74.5t-67 65.5q-127 89 -127 187q0 77 49.5 127t128.5 50q62 0 95 -25l-19 -66q-33 23 -80 23q-46 0 -71.5 -29t-25.5 -67q0 -46 21.5 -72.5t77.5 -66.5q117 -82 117 -194q0 -85 -53.5 -137t-135.5 -52q-33 0 -66 9 t-48 20zM229 710h-66l-87 98h67l52 -58h2l52 58h66z" />
<glyph unicode="&#x161;" horiz-adv-x="289" d="M174 547h-53l-79 135h58l46 -87h2l47 87h58zM22 22l19 58q39 -25 78 -25q33 0 52 19t19 51q0 29 -13 50t-49 45q-97 63 -97 138q0 58 38 96t95 38q45 0 87 -25l-21 -58q-32 21 -64 21q-30 0 -46.5 -18t-16.5 -43t12 -42t48 -42q100 -64 100 -147q0 -70 -41 -107t-104 -37 q-61 0 -96 28z" />
<glyph unicode="&#x162;" horiz-adv-x="354" d="M139 0v605h-123v69h323v-69h-123v-605h-77zM123 -214l-17 37q64 19 64 63q0 34 -33 61l62 11q34 -22 34 -70q0 -44 -31.5 -69t-78.5 -33z" />
<glyph unicode="&#x163;" horiz-adv-x="255" d="M71 566l77 31v-113h93v-59h-93v-287q0 -80 51 -80q17 0 31 3l3 -59q-22 -8 -57 -8q-50 0 -76 29q-29 34 -29 122v280h-59v59h59v82zM86 -214l-17 37q64 19 64 63q0 34 -33 61l62 11q34 -22 34 -70q0 -44 -31.5 -69t-78.5 -33z" />
<glyph unicode="&#x164;" horiz-adv-x="354" d="M139 0v605h-123v69h323v-69h-123v-605h-77zM209 710h-66l-87 98h67l52 -58h2l52 58h66z" />
<glyph unicode="&#x165;" horiz-adv-x="265" d="M71 566l77 31v-113h93v-59h-93v-287q0 -80 51 -80q17 0 31 3l3 -59q-22 -8 -57 -8q-50 0 -76 29q-29 34 -29 122v280h-59v59h59v82zM263 536l-37 20q29 37 29 82q0 40 -30 62l59 11q34 -22 34 -66q0 -54 -55 -109z" />
<glyph unicode="&#x166;" horiz-adv-x="354" d="M339 605h-123v-225h83v-57h-83v-323h-77v323h-84v57h84v225h-123v69h323v-69z" />
<glyph unicode="&#x167;" horiz-adv-x="255" d="M241 425h-93v-116h73v-53h-73v-118q0 -80 51 -80q17 0 31 3l3 -59q-22 -8 -57 -8q-50 0 -76 29q-29 34 -29 122v111h-54v53h54v116h-59v59h59v82l77 31v-113h93v-59z" />
<glyph unicode="&#x168;" horiz-adv-x="457" d="M59 674h77v-452q0 -162 92 -162q93 0 93 162v452h77v-440q0 -125 -46 -183.5t-126 -58.5q-167 0 -167 233v449zM163 718h-42q0 43 16 68.5t44 25.5q19 0 47 -17q30 -18 39 -18q13 0 19 8t8 28h40q2 -90 -62 -90q-21 0 -49 17q-25 17 -36 17q-21 0 -24 -39z" />
<glyph unicode="&#x169;" horiz-adv-x="398" d="M133 561h-42q-1 41 15 67.5t46 26.5q19 0 49 -17q28 -17 40 -17q23 0 25 36h41q0 -90 -63 -90q-19 0 -49 17t-37 17q-22 0 -25 -40zM344 484v-352q0 -32 2 -81.5t2 -50.5h-67l-5 51h-2q-14 -22 -41.5 -40.5t-62.5 -18.5q-62 0 -90 46.5t-28 139.5v306h77v-295 q0 -64 14 -98t51 -34q30 0 47.5 21t21.5 43q4 17 4 44v319h77z" />
<glyph unicode="&#x16a;" horiz-adv-x="457" d="M59 674h77v-452q0 -162 92 -162q93 0 93 162v452h77v-440q0 -125 -46 -183.5t-126 -58.5q-167 0 -167 233v449zM121 788h213v-53h-213v53z" />
<glyph unicode="&#x16b;" horiz-adv-x="398" d="M99 631h197v-50h-197v50zM344 484v-352q0 -32 2 -81.5t2 -50.5h-67l-5 51h-2q-14 -22 -41.5 -40.5t-62.5 -18.5q-62 0 -90 46.5t-28 139.5v306h77v-295q0 -64 14 -98t51 -34q30 0 47.5 21t21.5 43q4 17 4 44v319h77z" />
<glyph unicode="&#x16c;" horiz-adv-x="457" d="M59 674h77v-452q0 -162 92 -162q93 0 93 162v452h77v-440q0 -125 -46 -183.5t-126 -58.5q-167 0 -167 233v449zM121 806h45q8 -43 61 -43t62 43h45q0 -43 -28.5 -69.5t-77.5 -26.5q-50 0 -78.5 25.5t-28.5 70.5z" />
<glyph unicode="&#x16d;" horiz-adv-x="398" d="M93 669h43q2 -28 19 -45t43 -17q29 0 46 17t18 45h43q2 -50 -27.5 -81.5t-79.5 -31.5t-78.5 32t-26.5 81zM344 484v-352q0 -32 2 -81.5t2 -50.5h-67l-5 51h-2q-14 -22 -41.5 -40.5t-62.5 -18.5q-62 0 -90 46.5t-28 139.5v306h77v-295q0 -64 14 -98t51 -34q30 0 47.5 21 t21.5 43q4 17 4 44v319h77z" />
<glyph unicode="&#x16e;" horiz-adv-x="457" d="M59 674h77v-452q0 -162 92 -162q93 0 93 162v452h77v-440q0 -125 -46 -183.5t-126 -58.5q-167 0 -167 233v449zM228 862h1q42 0 67 -25.5t25 -62.5q0 -36 -26 -61.5t-67 -25.5q-43 0 -68.5 25t-25.5 61q0 37 26 63t68 26zM227 826h-1q-21 0 -32.5 -15.5t-11.5 -37.5 q0 -19 12.5 -34t32.5 -15q21 0 33.5 15t12.5 36t-12.5 36t-33.5 15z" />
<glyph unicode="&#x16f;" horiz-adv-x="398" d="M200 533q-42 0 -67.5 24.5t-25.5 60.5q0 38 25 63.5t69 25.5q41 0 66 -25.5t25 -62.5t-26 -61.5t-66 -24.5zM199 568q22 0 35 15t13 37t-13 37t-36 15q-21 0 -33 -16t-12 -38q0 -19 12.5 -34.5t33.5 -15.5zM344 484v-352q0 -32 2 -81.5t2 -50.5h-67l-5 51h-2 q-14 -22 -41.5 -40.5t-62.5 -18.5q-62 0 -90 46.5t-28 139.5v306h77v-295q0 -64 14 -98t51 -34q30 0 47.5 21t21.5 43q4 17 4 44v319h77z" />
<glyph unicode="&#x170;" horiz-adv-x="457" d="M59 674h77v-452q0 -162 92 -162q93 0 93 162v452h77v-440q0 -125 -46 -183.5t-126 -58.5q-167 0 -167 233v449zM199 818h81l-100 -99h-53zM326 818h81l-100 -99h-53z" />
<glyph unicode="&#x171;" horiz-adv-x="398" d="M188 682h70l-104 -135h-44zM312 682h70l-104 -135h-44zM344 484v-352q0 -32 2 -81.5t2 -50.5h-67l-5 51h-2q-14 -22 -41.5 -40.5t-62.5 -18.5q-62 0 -90 46.5t-28 139.5v306h77v-295q0 -64 14 -98t51 -34q30 0 47.5 21t21.5 43q4 17 4 44v319h77z" />
<glyph unicode="&#x172;" horiz-adv-x="457" d="M323 -126l11 -43q-29 -22 -72 -22q-38 0 -61 20.5t-23 55.5q0 52 50 108h-12q-157 7 -157 232v449h77v-452q0 -162 92 -162q93 0 93 162v452h77v-440q0 -178 -93 -222q-28 -22 -47 -52t-19 -56q0 -20 11.5 -30.5t28.5 -10.5q24 0 44 11z" />
<glyph unicode="&#x173;" horiz-adv-x="398" d="M344 484v-352q0 -76 7 -132h-16q-41 -56 -41 -103q0 -21 12.5 -33.5t29.5 -12.5q26 0 42 9l11 -43q-30 -22 -72 -22q-39 0 -61.5 22t-22.5 61q0 47 48 122l-5 51h-2q-14 -22 -41.5 -40.5t-62.5 -18.5q-62 0 -90 46.5t-28 139.5v306h77v-295q0 -64 14 -98t51 -34 q30 0 47.5 21t21.5 43q4 17 4 44v319h77z" />
<glyph unicode="&#x174;" horiz-adv-x="654" d="M222 0h-72l-130 674h80l57 -325q23 -140 33 -243h4q6 59 40 244l62 324h66l62 -317q31 -163 39 -251h3q12 108 36 247l56 321h75l-131 -674h-75l-65 328q-25 135 -34 221h-2q-17 -132 -37 -224zM296 808h67l87 -98h-68l-52 55h-2l-51 -55h-67z" />
<glyph unicode="&#x175;" horiz-adv-x="566" d="M257 682h52l79 -135h-57l-47 86h-2l-46 -86h-58zM13 484h80l47 -237q25 -142 26 -154h4q9 64 30 152l56 239h59l53 -232q22 -100 31 -159h4q7 63 26 156l46 235h77l-122 -484h-63l-56 235q-14 54 -27 145h-2q-11 -75 -28 -148l-58 -232h-65z" />
<glyph unicode="&#x176;" horiz-adv-x="394" d="M235 0h-77v285l-148 389h81l60 -169q30 -84 50 -152h2q16 61 49 155l57 166h81l-155 -386v-288zM167 808h67l87 -98h-68l-52 55h-2l-51 -55h-67z" />
<glyph unicode="&#x177;" horiz-adv-x="346" d="M148 682h52l79 -135h-57l-47 86h-2l-46 -86h-58zM13 484h81l64 -278l20 -100h2q7 38 21 99l57 279h76l-79 -311q-27 -111 -54 -186.5t-66 -125.5q-42 -53 -87 -74l-28 66q35 19 68 61q28 35 44 81q5 15 5 24q0 12 -2 18z" />
<glyph unicode="&#x178;" horiz-adv-x="394" d="M235 0h-77v285l-148 389h81l60 -169q30 -84 50 -152h2q16 61 49 155l57 166h81l-155 -386v-288zM123 718h-1q-18 0 -30 12.5t-12 33.5q0 20 12.5 33.5t30.5 13.5q19 0 31 -13t12 -34t-11.5 -33.5t-31.5 -12.5zM285 718h-1q-18 0 -30.5 12.5t-12.5 33.5q0 20 12.5 33.5 t31.5 13.5t31 -13t12 -34t-11.5 -33.5t-31.5 -12.5z" />
<glyph unicode="&#x179;" horiz-adv-x="358" d="M20 0v46l231 559v3h-212v66h298v-52l-227 -553v-3h226v-66h-316zM235 818h91l-124 -108h-61z" />
<glyph unicode="&#x17a;" horiz-adv-x="313" d="M207 682h79l-105 -135h-51zM16 0v47l153 299l19.5 35.5t19.5 36.5v2h-173v64h258v-51l-151 -295l-19.5 -35.5t-19.5 -36.5v-2h190v-64h-277z" />
<glyph unicode="&#x17b;" horiz-adv-x="358" d="M20 0v46l231 559v3h-212v66h298v-52l-227 -553v-3h226v-66h-316zM193 721h-1q-18 0 -31 13t-13 32t13 31.5t32 12.5t31.5 -12.5t12.5 -31.5t-12.5 -32t-31.5 -13z" />
<glyph unicode="&#x17c;" horiz-adv-x="313" d="M161 566h-1q-18 0 -30.5 12.5t-12.5 31.5t13 32t31 13t30.5 -12.5t12.5 -32.5q0 -19 -12 -31.5t-31 -12.5zM16 0v47l153 299l19.5 35.5t19.5 36.5v2h-173v64h258v-51l-151 -295l-19.5 -35.5t-19.5 -36.5v-2h190v-64h-277z" />
<glyph unicode="&#x17d;" horiz-adv-x="358" d="M20 0v46l231 559v3h-212v66h298v-52l-227 -553v-3h226v-66h-316zM222 710h-66l-87 98h67l52 -58h2l52 58h66z" />
<glyph unicode="&#x17e;" horiz-adv-x="313" d="M192 547h-53l-79 135h58l46 -87h2l47 87h58zM16 0v47l153 299l19.5 35.5t19.5 36.5v2h-173v64h258v-51l-151 -295l-19.5 -35.5t-19.5 -36.5v-2h190v-64h-277z" />
<glyph unicode="&#x192;" horiz-adv-x="385" d="M78 346v60h81l7 54q24 198 157 198q33 0 55 -12l-12 -57q-20 7 -43 7q-67 0 -82 -127l-9 -63h91v-60h-96l-28 -230q-12 -97 -44.5 -146.5t-103.5 -49.5q-41 2 -63 17l15 56q22 -11 45 -11q33 0 52 34t29 117l25 213h-76z" />
<glyph unicode="&#x1a0;" horiz-adv-x="446" d="M224 60q41 0 67 44t34.5 102.5t8.5 132.5q0 52 -5 97t-17 87t-35 66.5t-54 24.5t-54 -24.5t-35 -66t-17 -87.5t-5 -98q-1 -115 25.5 -196.5t86.5 -81.5zM361 727l59 11q16 -30 16 -67q0 -34 -18.5 -57t-53.5 -22q50 -88 50 -250q0 -180 -54 -265t-141 -85 q-86 0 -136.5 89.5t-50.5 256.5q0 164 54 254t144 90q37 0 71 -18l16 -9.5t13.5 -8t9.5 -4.5t10 -2q26 0 26 32q0 23 -15 55z" />
<glyph unicode="&#x1a1;" horiz-adv-x="383" d="M192 430q-24 0 -41.5 -18.5t-25.5 -48.5t-11.5 -59.5t-3.5 -61.5q0 -34 3.5 -64t12 -60t26 -47.5t42.5 -17.5q23 0 40 18.5t24.5 49t11 60t3.5 61.5t-3.5 61.5t-11.5 59.5t-25 48.5t-41 18.5zM315 547l58 10q17 -30 17 -66q0 -35 -20 -55.5t-56 -21.5q37 -62 37 -172 q0 -129 -48 -189.5t-113 -60.5q-69 0 -113 63.5t-44 185.5q0 125 47 188t115 63q25 0 55 -13q40 -17 51 -17q29 0 29 32q0 27 -15 53z" />
<glyph unicode="&#x1af;" horiz-adv-x="474" d="M406 757l59 9q15 -30 15 -65q0 -72 -72 -75l-10 -1v-391q0 -125 -46 -183.5t-126 -58.5q-167 0 -167 233v449h77v-452q0 -162 92 -162q93 0 93 162v452h62q20 0 28 6.5t8 22.5q0 28 -13 54z" />
<glyph unicode="&#x1b0;" horiz-adv-x="398" d="M346 569l59 9q16 -28 16 -64q0 -32 -17.5 -52.5t-53.5 -21.5l-6 -1v-307q0 -32 2 -81.5t2 -50.5h-67l-5 51h-2q-14 -22 -41.5 -40.5t-62.5 -18.5q-62 0 -90 46.5t-28 139.5v306h77v-295q0 -64 14 -98t51 -34q30 0 47.5 21t21.5 43q4 17 4 44v319h58q20 0 27.5 7.5 t7.5 24.5q0 27 -14 53z" />
<glyph unicode="&#x1fa;" horiz-adv-x="435" d="M222 688q-41 0 -63 21t-22 51q0 31 23 53t63 22t61.5 -21t21.5 -53q0 -30 -22.5 -51.5t-61.5 -21.5zM221 722q19 0 30 11t11 29q0 16 -10.5 28t-30.5 12t-30 -12t-10 -29q0 -16 10.5 -27.5t29.5 -11.5zM284 935h98l-136 -82h-65zM290 202h-149l-45 -202h-74l154 674h85 l150 -674h-76zM152 264h128l-35 171q-10 49 -27 154h-4q-14 -88 -27 -154z" />
<glyph unicode="&#x1fb;" horiz-adv-x="364" d="M234 806h81l-117 -95h-52zM310 319v-209q0 -79 5 -110h-70l-5 51h-3q-33 -59 -96 -59q-49 0 -82 38.5t-33 99.5q0 86 59 130.5t147 45.5v15q0 53 -17 81.5t-60 28.5q-42 0 -80 -25l-17 54q43 32 113 32q139 0 139 -173zM234 152v98q-133 0 -133 -112q0 -43 18 -64.5 t41 -21.5q26 0 45.5 19t26.5 54q2 9 2 27zM184 516q-42 0 -67.5 24.5t-25.5 60.5q0 38 25 63.5t69 25.5q41 0 66 -25t25 -63q0 -37 -26 -61.5t-66 -24.5zM183 551q22 0 35 15t13 37t-13 37t-36 15q-21 0 -33 -16t-12 -38q0 -19 12.5 -34.5t33.5 -15.5z" />
<glyph unicode="&#x1fc;" horiz-adv-x="556" d="M83 0h-75l203 674h304v-67h-186l13 -226h171v-65h-165l14 -249h179l-1 -67h-247l-13 222h-134zM162 284h112l-9 205q-1 14 -3 61l-3 70h-5l-39 -144zM384 818h91l-124 -108h-61z" />
<glyph unicode="&#x1fd;" horiz-adv-x="561" d="M331 682h79l-105 -135h-51zM531 241h-224q0 -104 30 -146t83 -42q45 0 82 21l13 -55q-42 -27 -111 -27q-45 0 -82 24.5t-51 68.5h-2q-16 -44 -48 -68.5t-76 -24.5q-52 0 -85.5 38.5t-33.5 101.5q0 83 59 126.5t148 43.5v27q0 46 -20 74t-61 28q-42 0 -78 -25l-17 53 q49 33 111 33q40 0 70.5 -22t40.5 -65h2q16 41 47.5 64t70.5 23q66 0 99.5 -62.5t33.5 -151.5q0 -6 -0.5 -18t-0.5 -19zM234 154v95q-21 0 -39.5 -3.5t-43 -13.5t-39 -34.5t-14.5 -60.5q0 -42 18.5 -63t44.5 -21q25 0 44.5 19.5t25.5 53.5q3 9 3 28zM308 296h150 q2 65 -18.5 101t-50.5 36q-37 0 -58 -41t-23 -96z" />
<glyph unicode="&#x1fe;" horiz-adv-x="446" d="M86 -37l-43 23l42 95q-53 89 -53 257q0 164 53 254t139 90q59 0 101 -41l30 70l46 -20l-40 -91q53 -90 53 -257q0 -179 -53.5 -265t-137.5 -86q-62 0 -103 45zM129 172l164 398q-29 44 -70 44q-31 0 -54 -23.5t-36 -64t-19 -87.5t-6 -101q0 -103 19 -166h2zM317 507 l-168 -397q27 -50 74 -50q31 0 54 24t35.5 65t18.5 88t6 102q0 103 -18 168h-2zM275 818h91l-124 -108h-61z" />
<glyph unicode="&#x1ff;" horiz-adv-x="383" d="M230 682h79l-105 -135h-51zM192 492h1q43 0 81 -30l25 53l42 -22l-34 -68q44 -64 44 -183q0 -128 -48 -189t-111 -61q-46 0 -81 28l-26 -53l-39 25l31 64q-44 65 -44 185q0 124 46.5 187.5t112.5 63.5zM122 131l121 267q-13 32 -51 32q-26 0 -44 -19t-26.5 -50 t-11.5 -59.5t-3 -59.5q0 -63 13 -110zM263 348l-120 -264q15 -31 49 -31q25 0 43 17.5t26.5 47t12 58.5t3.5 61q0 61 -12 110z" />
<glyph unicode="&#x218;" horiz-adv-x="361" d="M28 23l17 66q41 -27 97 -27q52 0 82 31t30 83q0 43 -22 74.5t-67 65.5q-127 89 -127 187q0 77 49.5 127t128.5 50q62 0 95 -25l-19 -66q-33 23 -80 23q-46 0 -71.5 -29t-25.5 -67q0 -46 21.5 -72.5t77.5 -66.5q117 -82 117 -194q0 -85 -53.5 -137t-135.5 -52q-33 0 -66 9 t-48 20zM119 -214l-17 37q64 19 64 63q0 34 -33 61l62 11q34 -22 34 -70q0 -44 -31.5 -69t-78.5 -33z" />
<glyph unicode="&#x219;" horiz-adv-x="289" d="M22 22l19 58q39 -25 78 -25q33 0 52 19t19 51q0 29 -13 50t-49 45q-97 63 -97 138q0 58 38 96t95 38q45 0 87 -25l-21 -58q-32 21 -64 21q-30 0 -46.5 -18t-16.5 -43t12 -42t48 -42q100 -64 100 -147q0 -70 -41 -107t-104 -37q-61 0 -96 28zM90 -214l-17 37q64 19 64 63 q0 34 -33 61l62 11q34 -22 34 -70q0 -44 -31.5 -69t-78.5 -33z" />
<glyph unicode="&#x21a;" horiz-adv-x="354" d="M139 0v605h-123v69h323v-69h-123v-605h-77zM123 -214l-17 37q64 19 64 63q0 34 -33 61l62 11q34 -22 34 -70q0 -44 -31.5 -69t-78.5 -33z" />
<glyph unicode="&#x21b;" horiz-adv-x="255" d="M71 566l77 31v-113h93v-59h-93v-287q0 -80 51 -80q17 0 31 3l3 -59q-22 -8 -57 -8q-50 0 -76 29q-29 34 -29 122v280h-59v59h59v82zM86 -214l-17 37q64 19 64 63q0 34 -33 61l62 11q34 -22 34 -70q0 -44 -31.5 -69t-78.5 -33z" />
<glyph unicode="&#x21c;" horiz-adv-x="340" d="M32 -106l-9 62q86 15 147.5 74t61.5 149q0 56 -29 92.5t-77 36.5q-26 0 -62 -12l-12 58q56 12 100.5 61t44.5 114q0 39 -22 64t-60 25q-33 0 -76 -20l-15 55q44 29 109 29q63 0 100.5 -42t37.5 -100t-26 -104.5t-66 -71.5v-3q56 -11 93.5 -58t37.5 -121q0 -80 -44 -146 t-106 -101t-128 -41z" />
<glyph unicode="&#x21d;" horiz-adv-x="311" d="M19 -200l-6 63q79 8 140 55.5t61 126.5q0 44 -26.5 74.5t-77.5 30.5q-25 0 -57 -8l-10 58q60 14 99 48t39 88q0 42 -21.5 66.5t-56.5 24.5q-31 0 -73 -21l-16 56q46 30 105 30q62 0 98.5 -40t36.5 -98q0 -102 -88 -150v-2q55 -10 90 -50t35 -102q0 -71 -42 -128.5 t-103 -87t-127 -34.5z" />
<glyph unicode="&#x232;" horiz-adv-x="394" d="M235 0h-77v285l-148 389h81l60 -169q30 -84 50 -152h2q16 61 49 155l57 166h81l-155 -386v-288zM90 788h213v-53h-213v53z" />
<glyph unicode="&#x233;" horiz-adv-x="346" d="M75 631h197v-50h-197v50zM13 484h81l64 -278l20 -100h2q7 38 21 99l57 279h76l-79 -311q-27 -111 -54 -186.5t-66 -125.5q-42 -53 -87 -74l-28 66q35 19 68 61q28 35 44 81q5 15 5 24q0 12 -2 18z" />
<glyph unicode="&#x2c6;" d="M124 682h52l79 -135h-57l-47 86h-2l-46 -86h-58z" />
<glyph unicode="&#x2c7;" d="M177 547h-53l-79 135h58l46 -87h2l47 87h58z" />
<glyph unicode="&#x2c9;" d="M52 631h197v-50h-197v50z" />
<glyph unicode="&#x2d8;" d="M44 669h43q2 -28 19.5 -45t42.5 -17q29 0 46 17t18 45h43q2 -50 -27.5 -81.5t-79.5 -31.5t-78.5 32t-26.5 81z" />
<glyph unicode="&#x2d9;" d="M151 566h-1q-18 0 -30.5 12.5t-12.5 31.5t13 32t31 13t30.5 -12.5t12.5 -32.5q0 -19 -12 -31.5t-31 -12.5z" />
<glyph unicode="&#x2da;" d="M117 533q-42 0 -67.5 24.5t-25.5 60.5q0 38 25 63.5t69 25.5q40 0 65.5 -25.5t25.5 -62.5t-26 -61.5t-66 -24.5zM116 568q22 0 35 15t13 37t-13 37t-36 15q-21 0 -33 -16t-12 -38q0 -19 12.5 -34.5t33.5 -15.5z" />
<glyph unicode="&#x2db;" d="M123 5h54q-44 -66 -44 -102q0 -22 12.5 -34t28.5 -12q25 0 43 9l11 -43q-29 -22 -72 -22q-38 0 -61 22t-23 59q0 58 51 123z" />
<glyph unicode="&#x2dc;" d="M84 561h-42q-1 41 15 67.5t46 26.5q19 0 49 -17q28 -17 40 -17q23 0 25 36h41q0 -90 -63 -90q-19 0 -49 17t-37 17q-22 0 -25 -40z" />
<glyph unicode="&#x2dd;" d="M112 682h70l-104 -135h-44zM236 682h70l-104 -135h-44z" />
<glyph unicode="&#x37e;" horiz-adv-x="200" d="M82 -119l-52 -7q39 134 45 233l86 5q-34 -142 -79 -231zM111 329h-1q-22 0 -36.5 16.5t-14.5 42.5t15 43.5t38 17.5t37.5 -16.5t14.5 -44.5q0 -27 -14 -43t-39 -16z" />
<glyph unicode="&#x384;" horiz-adv-x="305" d="M108 683h68l-56 -135h-45z" />
<glyph unicode="&#x385;" horiz-adv-x="350" d="M153 692h65l-36 -147h-41zM73 568h-1q-18 0 -30 11.5t-12 29.5t12.5 29t30.5 11q15 0 26.5 -11.5t11.5 -28.5q0 -18 -11 -29.5t-27 -11.5zM274 568h-1q-16 0 -28 11.5t-12 29.5q0 17 12.5 28.5t28.5 11.5q17 0 29 -11t12 -29t-12 -29.5t-29 -11.5z" />
<glyph unicode="&#x386;" horiz-adv-x="444" d="M299 202h-149l-45 -202h-74l154 674h85l150 -674h-76zM161 264h128l-35 171q-10 49 -27 154h-4q-14 -88 -27 -154zM44 674h66l-29 -148h-41z" />
<glyph unicode="&#x387;" horiz-adv-x="200" d="M100 257h-1q-23 0 -38.5 17.5t-15.5 45.5q0 27 16 45t39 18q25 0 40 -17.5t15 -45.5q0 -29 -15 -46t-40 -17z" />
<glyph unicode="&#x388;" horiz-adv-x="406" d="M358 385v-65h-169v-253h192v-67h-269v674h257v-67h-180v-222h169zM4 674h66l-29 -148h-41z" />
<glyph unicode="&#x389;" horiz-adv-x="515" d="M112 674h77v-289h189v289h77v-674h-77v315h-189v-315h-77v674zM4 674h66l-29 -148h-41z" />
<glyph unicode="&#x38a;" horiz-adv-x="249" d="M112 674h77v-674h-77v674zM4 674h66l-29 -148h-41z" />
<glyph unicode="&#x38c;" horiz-adv-x="482" d="M256 -8h-1q-86 0 -136.5 89.5t-50.5 256.5q0 164 54 254t144 90q86 0 135 -89.5t49 -250.5q0 -180 -53.5 -265t-140.5 -85zM260 60h1q31 0 53.5 24.5t34 66.5t16.5 88t5 100q0 51 -5 96.5t-17 87.5t-34.5 66.5t-53.5 24.5q-41 0 -67.5 -44t-35.5 -102.5t-9 -129.5 q0 -53 5.5 -99.5t17.5 -88t35 -66t54 -24.5zM4 674h66l-29 -148h-41z" />
<glyph unicode="&#x38e;" horiz-adv-x="514" d="M96 615l15 65q12 -1 36 -12.5t43 -29.5q43 -39 73.5 -113.5t38.5 -170.5h3q19 169 109 267q22 24 46.5 40t35.5 19l17 -67q-54 -28 -100.5 -111t-65.5 -205q-10 -74 -10 -118v-179h-76v179q0 55 -7 116q-35 267 -158 320zM4 674h66l-29 -148h-41z" />
<glyph unicode="&#x38f;" horiz-adv-x="504" d="M372 69v-3h99v-66h-177v52q42 46 66 131t23 176q0 46 -6 88.5t-18.5 81.5t-36 62t-54.5 23q-41 0 -68.5 -41t-37.5 -95t-10 -116q0 -86 25.5 -177t63.5 -133v-52h-177v66h99v3q-40 55 -65.5 135t-25.5 169q0 143 56 226t146 83q87 0 138 -82.5t51 -221.5q0 -93 -26 -175 t-65 -134zM4 674h66l-29 -148h-41z" />
<glyph unicode="&#x390;" horiz-adv-x="188" d="M131 484v-383q0 -28 8 -38.5t29 -10.5l-7 -57q-13 -3 -29 -3q-35 0 -56.5 22t-21.5 82v388h77zM84 683h63l-35 -145h-41zM5 562h-1q-17 0 -29 11.5t-12 28.5q0 18 12 29t30 11q16 0 27 -11t11 -29q0 -17 -11 -28.5t-27 -11.5zM202 562h-1q-15 0 -27 11.5t-12 28.5 t12 28.5t28 11.5q17 0 29 -11t12 -29q0 -17 -12 -28.5t-29 -11.5z" />
<glyph unicode="&#x391;" horiz-adv-x="435" d="M290 202h-149l-45 -202h-74l154 674h85l150 -674h-76zM152 264h128l-35 171q-10 49 -27 154h-4q-14 -88 -27 -154z" />
<glyph unicode="&#x392;" horiz-adv-x="416" d="M60 3v661q52 13 113 13q99 0 149 -47q44 -41 44 -115q0 -52 -27.5 -91.5t-76.5 -58.5v-2q59 -16 92 -61t33 -111q0 -81 -48 -134q-54 -61 -178 -61q-64 0 -101 7zM137 612v-224h35q48 0 82.5 33.5t34.5 85.5q0 110 -111 110q-26 0 -41 -5zM137 329v-268q18 -4 39 -4 q61 0 96.5 35t35.5 99q0 66 -39.5 101.5t-97.5 36.5h-34z" />
<glyph unicode="&#x393;" horiz-adv-x="331" d="M60 674h258v-65h-181v-609h-77v674z" />
<glyph unicode="&#x394;" horiz-adv-x="436" d="M24 0v44l153 630h85l151 -629v-45h-389zM101 68h234l-83 349q-20 88 -33 172h-3q-11 -73 -33 -170z" />
<glyph unicode="&#x395;" horiz-adv-x="354" d="M306 385v-65h-169v-253h192v-67h-269v674h257v-67h-180v-222h169z" />
<glyph unicode="&#x396;" horiz-adv-x="358" d="M20 0v46l231 559v3h-212v66h298v-52l-227 -553v-3h226v-66h-316z" />
<glyph unicode="&#x397;" horiz-adv-x="463" d="M60 674h77v-289h189v289h77v-674h-77v315h-189v-315h-77v674z" />
<glyph unicode="&#x398;" horiz-adv-x="449" d="M221 -8h-1q-86 0 -137 89.5t-51 256.5q0 164 54 254t145 90q87 0 136.5 -89.5t49.5 -250.5q0 -180 -54 -265t-142 -85zM225 59h1q32 0 54.5 24.5t34.5 66.5t17.5 88.5t5.5 100.5q0 52 -5.5 97.5t-17.5 87.5t-35 66.5t-55 24.5t-55 -24.5t-35.5 -66t-18 -88t-5.5 -98.5 q0 -116 27 -197.5t87 -81.5zM150 382h149v-70h-149v70z" />
<glyph unicode="&#x399;" horiz-adv-x="199" d="M60 674h77v-674h-77v674z" />
<glyph unicode="&#x39a;" horiz-adv-x="404" d="M60 0v674h77v-320h2l42 81l126 239h85l-165 -288l169 -386h-83l-138 325l-38 -65v-260h-77z" />
<glyph unicode="&#x39b;" horiz-adv-x="434" d="M412 0h-79l-87 405q-19 99 -30 175h-4q-12 -93 -28 -176l-85 -404h-78l155 674h81z" />
<glyph unicode="&#x39c;" horiz-adv-x="599" d="M482 0l-14 290q-10 182 -7 264h-4q-25 -125 -54 -234l-83 -316h-49l-79 303q-40 155 -55 247h-3q0 -77 -8 -269l-13 -285h-69l40 674h83l79 -308q40 -154 54 -232h3q14 83 50 232l76 308h86l39 -674h-72z" />
<glyph unicode="&#x39d;" horiz-adv-x="465" d="M130 0h-70v674h73l124 -316q63 -162 86 -235h2q-9 159 -9 310v241h69v-674h-73l-128 324q-52 131 -80 229h-2q8 -120 8 -320v-233z" />
<glyph unicode="&#x39e;" horiz-adv-x="362" d="M35 674h291v-67h-291v67zM53 383h254v-66h-254v66zM29 67h304v-67h-304v67z" />
<glyph unicode="&#x39f;" horiz-adv-x="446" d="M220 -8h-1q-86 0 -136.5 89.5t-50.5 256.5q0 164 54 254t144 90q86 0 135 -89.5t49 -250.5q0 -179 -53.5 -264.5t-140.5 -85.5zM223 60h1q41 0 67 44t34.5 102.5t8.5 132.5q0 52 -5 97t-17 87t-35 66.5t-54 24.5t-54 -24.5t-35 -66t-17 -87.5t-5 -98q0 -53 5 -99.5 t17 -88t35 -66t54 -24.5z" />
<glyph unicode="&#x3a0;" horiz-adv-x="451" d="M391 674v-674h-77v604h-177v-604h-77v674h331z" />
<glyph unicode="&#x3a1;" horiz-adv-x="399" d="M60 0v664q50 13 112 13q99 0 149 -50q50 -48 50 -139q0 -84 -41 -138q-56 -75 -159 -75q-23 0 -34 1v-276h-77zM137 609v-268q13 -3 30 -3q58 0 92.5 37.5t34.5 107.5q0 57 -27 94t-87 37q-26 0 -43 -5z" />
<glyph unicode="&#x3a3;" horiz-adv-x="407" d="M106 71v-4h272v-67h-362v51l173 285l-163 287v51h330v-66h-236v-4l149 -264z" />
<glyph unicode="&#x3a4;" horiz-adv-x="354" d="M139 0v605h-123v69h323v-69h-123v-605h-77z" />
<glyph unicode="&#x3a5;" horiz-adv-x="425" d="M6 615l16 65q11 -1 35.5 -12.5t43.5 -29.5q43 -40 73.5 -114t37.5 -170h4q17 167 109 267q22 24 46.5 40t35.5 19l16 -67q-54 -28 -100 -111t-65 -205q-10 -62 -10 -118v-179h-77v179q0 63 -6 116q-35 267 -159 320z" />
<glyph unicode="&#x3a6;" horiz-adv-x="504" d="M287 37v-50h-71v50q-76 12 -131 85.5t-55 215.5q0 137 55.5 214.5t131.5 87.5v47h71v-47q80 -9 133 -88.5t53 -209.5q0 -143 -54.5 -219.5t-132.5 -85.5zM217 95v487q-45 -8 -77 -72.5t-32 -174.5q0 -100 31 -163t78 -77zM287 582v-487q50 10 79.5 74t29.5 173 q0 106 -33.5 169.5t-75.5 70.5z" />
<glyph unicode="&#x3a7;" horiz-adv-x="392" d="M378 0h-81l-61 162q-18 48 -41 118h-3q-28 -84 -41 -120l-58 -160h-79l139 344l-134 330h80l60 -156q8 -20 40 -107h2l36 110l56 153h78l-132 -328z" />
<glyph unicode="&#x3a8;" horiz-adv-x="515" d="M472 674v-187q0 -247 -179 -273v-214h-71v214q-179 26 -179 256v204h72v-200q0 -95 26 -143t82 -56v399h69v-399q108 13 108 215v184h72z" />
<glyph unicode="&#x3a9;" horiz-adv-x="472" d="M340 69v-3h99v-66h-177v52q42 46 66 130.5t23 176.5q0 63 -9.5 117.5t-37 96t-68.5 41.5t-68.5 -41t-37.5 -95t-10 -116q0 -86 25.5 -177t63.5 -133v-52h-177v66h99v3q-40 56 -65.5 135.5t-25.5 168.5q0 143 56.5 226t146.5 83q87 0 137.5 -82.5t50.5 -221.5 q0 -93 -26 -175t-65 -134z" />
<glyph unicode="&#x3aa;" horiz-adv-x="199" d="M23 710h-1q-18 0 -30.5 12.5t-12.5 31.5t12.5 31.5t31.5 12.5q18 0 30 -12.5t12 -31.5t-12 -31.5t-30 -12.5zM177 710h-1q-18 0 -30.5 13t-12.5 31q0 19 13 31.5t31 12.5t30 -12.5t12 -31.5t-12 -31.5t-30 -12.5zM60 674h77v-674h-77v674z" />
<glyph unicode="&#x3ab;" horiz-adv-x="425" d="M141 697h-1q-18 0 -30.5 12.5t-12.5 31.5t13 31.5t31 12.5t30 -12.5t12 -31.5t-12 -31.5t-30 -12.5zM296 697h-1q-18 0 -30.5 12.5t-12.5 31.5t12.5 31.5t31.5 12.5q18 0 30 -12.5t12 -31.5t-12 -31.5t-30 -12.5zM6 615l16 65q11 -1 35.5 -12.5t43.5 -29.5 q43 -40 73.5 -114t37.5 -170h4q17 167 109 267q22 24 46.5 40t35.5 19l16 -67q-54 -28 -100 -111t-65 -205q-10 -62 -10 -118v-179h-77v179q0 63 -6 116q-35 267 -159 320z" />
<glyph unicode="&#x3ac;" horiz-adv-x="397" d="M208 675h67l-55 -135h-45zM291 484h59q-4 -23 -8 -138t-3 -242q0 -53 32 -53l-8 -57q-7 -2 -19 -2q-59 0 -64 79h-4q-12 -32 -38 -55.5t-65 -23.5q-63 0 -101.5 64t-38.5 174q0 121 47.5 191.5t106.5 70.5q64 0 90 -72h4q4 37 10 64zM110 233v-1q0 -72 21.5 -124 t56.5 -52q25 0 45.5 30t28.5 77q4 37 4 81q0 49 -2 73q-2 46 -21.5 78t-46.5 32q-39 0 -62.5 -56.5t-23.5 -137.5z" />
<glyph unicode="&#x3ad;" horiz-adv-x="324" d="M187 675h68l-56 -135h-45zM133 259v5q-36 10 -57 36.5t-21 65.5q0 52 41 89t110 37q60 0 88 -23l-15 -55q-30 16 -70 16q-37 0 -58 -20.5t-21 -48.5q0 -38 31.5 -55.5t77.5 -17.5h15v-57h-19q-54 -1 -89 -23t-35 -67q0 -41 27 -64t68 -23q57 0 90 19l10 -57 q-40 -24 -114 -24q-68 0 -114 36t-46 107q0 48 30 82t71 42z" />
<glyph unicode="&#x3ae;" horiz-adv-x="405" d="M207 675h68l-56 -135h-45zM121 426h2q36 66 111 66q53 0 85 -41.5t32 -125.5v-363q0 -110 8 -154h-71q-14 37 -14 140v364q0 115 -67 115q-25 0 -45.5 -20.5t-27.5 -58.5q-3 -18 -3 -43v-305h-77v359q0 83 -13 125h67q10 -22 13 -58z" />
<glyph unicode="&#x3af;" horiz-adv-x="188" d="M97 676h71l-56 -135h-48zM131 484v-383q0 -28 8 -38.5t28 -10.5l-6 -57q-15 -3 -29 -3q-35 0 -56.5 22t-21.5 82v388h77z" />
<glyph unicode="&#x3b0;" horiz-adv-x="377" d="M237 484h73q31 -76 31 -193q0 -299 -161 -299q-60 0 -95.5 39t-35.5 109v183q0 127 -8 161h74q10 -18 10 -98v-237q0 -45 17.5 -68.5t43.5 -23.5q79 0 79 217q0 144 -28 210zM165 682h63l-35 -145h-41zM85 560h-1q-17 0 -29.5 11.5t-12.5 29.5t12.5 29t30.5 11 q15 0 26.5 -11.5t11.5 -28.5q0 -18 -11.5 -29.5t-26.5 -11.5zM284 560h-1q-15 0 -27 12t-12 29t12 28.5t28 11.5q17 0 29 -11t12 -29t-12 -29.5t-29 -11.5z" />
<glyph unicode="&#x3b1;" horiz-adv-x="397" d="M291 484h59q-4 -23 -8 -138t-3 -242q0 -53 32 -53l-8 -57q-7 -2 -19 -2q-59 0 -64 79h-4q-12 -32 -38 -55.5t-65 -23.5q-63 0 -101.5 64t-38.5 174q0 121 47.5 191.5t106.5 70.5q64 0 90 -72h4q4 37 10 64zM110 233v-1q0 -72 21.5 -124t56.5 -52q25 0 45.5 30t28.5 77 q4 37 4 81q0 49 -2 73q-2 46 -21.5 78t-46.5 32q-39 0 -62.5 -56.5t-23.5 -137.5z" />
<glyph unicode="&#x3b2;" horiz-adv-x="404" d="M130 28h-2v-66q0 -104 9 -154h-70q-14 37 -14 139v518q0 135 51 192q39 43 99 43q65 0 99.5 -50t34.5 -118q0 -110 -80 -154v-4q47 -15 80.5 -59.5t33.5 -125.5q0 -91 -43.5 -144t-108.5 -53q-56 0 -89 36zM128 481v-376q29 -49 79 -49q41 0 64.5 39t23.5 95 q0 64 -28.5 103t-76.5 44q-6 1 -15 1v60q4 0 14 2q74 20 74 128q0 39 -16 73.5t-47 34.5q-72 0 -72 -155z" />
<glyph unicode="&#x3b3;" horiz-adv-x="339" d="M199 -192h-74q6 206 -24 331q-47 207 -106 345h81q65 -170 95 -372h3q70 199 70 332v40h70q2 -14 2 -34q0 -164 -114 -412q-5 -11 -5 -23q3 -108 2 -207z" />
<glyph unicode="&#x3b4;" horiz-adv-x="390" d="M338 658l-23 -51q-48 32 -92 32q-24 0 -37 -11.5t-13 -28.5q0 -24 45 -83l59 -75q79 -102 79 -210q0 -111 -46 -175t-117 -64q-69 0 -114.5 62t-45.5 168q0 84 38 146.5t92 98.5v4l-13 16q-53 71 -53 112q0 39 32 70t92 31q71 0 117 -42zM225 391l-24 32 q-91 -68 -91 -202q0 -79 26 -123.5t60 -44.5q39 0 61 46.5t22 120.5q0 101 -54 171z" />
<glyph unicode="&#x3b5;" horiz-adv-x="324" d="M133 260v4q-35 10 -56.5 37t-21.5 65q0 52 41 89t110 37q60 0 88 -23l-15 -55q-30 16 -70 16q-37 0 -58 -20.5t-21 -48.5q0 -38 31.5 -55.5t77.5 -17.5h15v-57h-19q-54 -1 -89 -23t-35 -67q0 -41 27 -64t68 -23q56 0 90 20l10 -58q-40 -24 -114 -24q-68 0 -114 36 t-46 107q0 48 30.5 82.5t70.5 42.5z" />
<glyph unicode="&#x3b6;" horiz-adv-x="314" d="M250 -130l-54 16q31 53 36 102q-46 11 -86 30q-113 52 -113 199q0 106 53 218t135 188v4h-46q-66 0 -90 8l9 55q3 0 100 -3h110l14 -53q-79 -54 -143 -171.5t-64 -226.5q0 -74 23.5 -111.5t68.5 -56.5q33 -15 97 -28q8 -2 8 -12q0 -40 -18 -85.5t-40 -72.5z" />
<glyph unicode="&#x3b7;" horiz-adv-x="405" d="M121 426h2q36 66 111 66q53 0 85 -41.5t32 -125.5v-363q0 -110 8 -154h-71q-14 37 -14 140v364q0 115 -67 115q-25 0 -45.5 -20.5t-27.5 -58.5q-3 -18 -3 -43v-305h-77v359q0 83 -13 125h67q10 -22 13 -58z" />
<glyph unicode="&#x3b8;" horiz-adv-x="382" d="M190 -8h-1q-156 0 -156 361q0 180 47 263.5t114 83.5q69 0 112 -82.5t43 -264.5q0 -108 -13 -182.5t-37 -111.5t-50 -52t-59 -15zM107 387h168q0 116 -22.5 184.5t-62.5 68.5q-36 0 -59.5 -70.5t-23.5 -182.5zM275 325h-168q1 -133 23 -203t62 -70q83 0 83 273z" />
<glyph unicode="&#x3b9;" horiz-adv-x="188" d="M131 484v-383q0 -28 8 -38.5t28 -10.5l-6 -57q-15 -3 -29 -3q-35 0 -56.5 22t-21.5 82v388h77z" />
<glyph unicode="&#x3ba;" horiz-adv-x="370" d="M201 262v-3q19 -7 38.5 -32t32 -48t28.5 -58q3 -8 5 -11l54 -110h-85l-51 111q-49 110 -84 110h-8v-221h-76v368q0 83 -10 116h73q13 -20 13 -83v-135h3q30 43 79.5 123t59.5 95h83v-3z" />
<glyph unicode="&#x3bb;" horiz-adv-x="337" d="M250 0l-58 259q-9 41 -23 114h-3q-13 -70 -22 -112l-61 -261h-76l121 452q2 8 2 22t-4 27q-33 129 -92 129q-6 0 -11 -1l7 64q12 2 24 2q59 0 91 -51t59 -155l123 -489h-77z" />
<glyph unicode="&#x3bc;" horiz-adv-x="399" d="M281 50h-2q-10 -19 -33.5 -36t-50.5 -17q-48 0 -68 36v-71q0 -104 9 -154h-70q-13 39 -13 146v530h77v-319q0 -109 64 -109q31 0 48.5 20.5t22.5 44.5q4 16 4 44v319h76v-380q0 -28 7 -41.5t24 -12.5l-8 -55q-10 -3 -25 -3q-50 0 -62 58z" />
<glyph unicode="&#x3bd;" horiz-adv-x="333" d="M6 484h78l56 -272q3 -19 10.5 -62l10.5 -60h3q75 236 75 361v33h70q2 -16 2 -31q0 -141 -124 -453h-69z" />
<glyph unicode="&#x3be;" horiz-adv-x="328" d="M278 414v-60h-17q-66 -3 -108 -41.5t-42 -102.5q0 -105 107 -144q45 -16 94 -26q10 -1 10 -12q0 -38 -18 -84t-39 -73l-55 15q28 47 36 102q-99 24 -156 71.5t-57 140.5q0 68 35 116.5t93 71.5v5q-42 19 -66 57t-24 84q0 73 45.5 119.5t119.5 46.5q47 0 80 -19l-14 -57 q-34 14 -63 14q-46 0 -69 -32t-23 -72q0 -52 33 -83t82 -36q2 0 8 -0.5t8 -0.5z" />
<glyph unicode="&#x3bf;" horiz-adv-x="383" d="M191 -8h-1q-69 0 -113 63.5t-44 185.5q0 125 47 188t115 63t112 -64.5t44 -185.5q0 -128 -48 -189t-112 -61zM193 53h1q23 0 40 18.5t24.5 49t11 60t3.5 61.5t-3.5 61.5t-11.5 59.5t-25 48.5t-41 18.5t-41.5 -18.5t-25.5 -48.5t-11.5 -59.5t-3.5 -61.5q0 -34 3.5 -64 t12 -60t25.5 -47.5t42 -17.5z" />
<glyph unicode="&#x3c0;" horiz-adv-x="400" d="M380 420h-47v-303q0 -80 10 -117h-72q-14 26 -14 116v304h-99q-1 -105 -14.5 -228.5t-35.5 -191.5h-71q22 73 34.5 193.5t12.5 226.5q-34 0 -61 -5l-11 47q22 22 116 22h259z" />
<glyph unicode="&#x3c1;" horiz-adv-x="395" d="M129 39h-2v-77q0 -104 6 -154h-71q-12 36 -12 138v298q0 140 53 198q40 50 101 50q75 0 117 -65t42 -184q0 -125 -44.5 -188t-108.5 -63q-56 0 -81 47zM127 264v-96q0 -27 4 -38q9 -41 28 -57.5t38 -16.5q46 0 67 54t21 135q0 79 -20 129.5t-62 50.5q-33 0 -54.5 -39 t-21.5 -122z" />
<glyph unicode="&#x3c2;" horiz-adv-x="306" d="M294 479l-15 -61q-21 8 -44 8q-60 0 -92 -56t-32 -130q0 -63 20 -105.5t70 -66.5q26 -12 84 -29q7 -3 7 -9q0 -41 -17.5 -87t-40.5 -73l-54 16q32 50 37 101q-43 14 -71 27q-51 26 -82 82t-31 137q0 109 56 184t147 75q35 0 58 -13z" />
<glyph unicode="&#x3c3;" horiz-adv-x="383" d="M286 436l-1 -3q61 -60 61 -191q0 -128 -47.5 -189t-109.5 -61q-68 0 -112 63.5t-44 185.5q0 125 47 188t117 63h38h37h99l-4 -60q-32 -2 -81 4zM191 53h1q23 0 39 18.5t23.5 48.5t11 60t3.5 62q0 71 -18.5 129.5t-60.5 58.5q-24 0 -40.5 -18.5t-24.5 -48.5t-11.5 -59.5 t-3.5 -61.5q0 -47 6 -86t25 -71t50 -32z" />
<glyph unicode="&#x3c4;" horiz-adv-x="304" d="M243 54l-3 -57q-15 -5 -37 -5q-92 0 -92 137v291h-42q-35 0 -57 -10l-12 50q19 24 88 24h212l-9 -64h-103v-294q0 -73 38 -73q12 0 17 1z" />
<glyph unicode="&#x3c5;" horiz-adv-x="377" d="M237 484h73q31 -76 31 -193q0 -299 -161 -299q-60 0 -95.5 39t-35.5 109v183q0 127 -8 161h74q10 -18 10 -98v-237q0 -45 17.5 -68.5t43.5 -23.5q79 0 79 217q0 144 -28 210z" />
<glyph unicode="&#x3c6;" horiz-adv-x="491" d="M143 487l41 -37q-75 -80 -75 -205q0 -73 26.5 -125t74.5 -64v303q0 66 27 96.5t68 30.5q60 0 106.5 -63.5t46.5 -170.5q0 -116 -52 -180.5t-124 -73.5v-190h-72v190q-30 4 -58.5 18t-56.5 40.5t-45 74.5t-17 111q0 89 34 151t76 94zM281 371v-316q50 8 75.5 62.5 t25.5 130.5q0 77 -24 127.5t-48 50.5q-29 0 -29 -55z" />
<glyph unicode="&#x3c7;" horiz-adv-x="339" d="M11 484h78l83 -258h4q15 59 28 100l52 158h74l-122 -327l120 -342l-71 -18l-95 289h-2q-13 -55 -33 -121l-54 -168l-68 16l122 346z" />
<glyph unicode="&#x3c8;" horiz-adv-x="487" d="M210 -192v184q-33 4 -58 14.5t-51 33.5t-40.5 68.5t-14.5 110.5v148q0 89 -5 117h68q8 -22 8 -98v-151q0 -96 24.5 -137.5t69.5 -48.5v536h71v-536q50 6 73.5 73.5t23.5 171.5q0 131 -22 190h66q28 -64 28 -180q0 -296 -168 -312v-184h-73z" />
<glyph unicode="&#x3c9;" horiz-adv-x="521" d="M296 333l-1 -191q0 -29 13.5 -57t37.5 -28q29 0 47 47.5t18 136.5q0 148 -67 240v3h70q29 -29 51.5 -96t22.5 -147q0 -117 -38.5 -183t-100.5 -66q-59 0 -87 70h-3q-25 -70 -95 -70q-55 0 -93 60.5t-38 179.5q0 85 23 153.5t51 98.5h69v-3q-67 -88 -67 -244 q0 -89 18 -134.5t47 -45.5q25 0 38 27.5t13 58.5l-1 190h72z" />
<glyph unicode="&#x3ca;" horiz-adv-x="188" d="M16 558h-1q-19 0 -31.5 13t-12.5 32t13 32t32 13q18 0 30.5 -12.5t12.5 -32.5q0 -19 -12.5 -32t-30.5 -13zM170 558h-1q-18 0 -30.5 13t-12.5 32t12.5 32t31.5 13t31 -12.5t12 -32.5t-12 -32.5t-31 -12.5zM131 484v-383q0 -28 8 -38.5t29 -10.5l-7 -57q-13 -3 -29 -3 q-35 0 -56.5 22t-21.5 82v388h77z" />
<glyph unicode="&#x3cb;" horiz-adv-x="377" d="M104 558h-1q-19 0 -31.5 13t-12.5 32t13 32t32 13q18 0 30 -12.5t12 -32.5q0 -19 -12 -32t-30 -13zM258 558h-1q-18 0 -31 13t-13 32t13 32t32 13t31 -12.5t12 -32.5t-12 -32.5t-31 -12.5zM237 484h73q31 -76 31 -193q0 -299 -161 -299q-60 0 -95.5 39t-35.5 109v183 q0 127 -8 161h74q10 -18 10 -98v-237q0 -45 17.5 -68.5t43.5 -23.5q79 0 79 217q0 144 -28 210z" />
<glyph unicode="&#x3cc;" horiz-adv-x="383" d="M194 675h68l-55 -135h-45zM191 -8h-1q-69 0 -113 63.5t-44 185.5q0 125 47 188t115 63t112 -64.5t44 -185.5q0 -128 -48 -189t-112 -61zM193 53h1q23 0 40 18.5t24.5 49t11 60t3.5 61.5t-3.5 61.5t-11.5 59.5t-25 48.5t-41 18.5t-41.5 -18.5t-25.5 -48.5t-11.5 -59.5 t-3.5 -61.5q0 -34 3.5 -64t12 -60t25.5 -47.5t42 -17.5z" />
<glyph unicode="&#x3cd;" horiz-adv-x="377" d="M188 676h70l-55 -135h-48zM237 484h73q31 -76 31 -193q0 -299 -161 -299q-60 0 -95.5 39t-35.5 109v183q0 127 -8 161h74q10 -18 10 -98v-237q0 -45 17.5 -68.5t43.5 -23.5q79 0 79 217q0 144 -28 210z" />
<glyph unicode="&#x3ce;" horiz-adv-x="521" d="M269 675h68l-55 -135h-45zM296 333l-1 -191q0 -29 13.5 -57t37.5 -28q29 0 47.5 47.5t18.5 136.5q0 148 -67 240v3h70q29 -29 51 -96t22 -147q0 -117 -38.5 -183t-99.5 -66q-60 0 -88 70h-3q-11 -31 -35.5 -50.5t-58.5 -19.5q-55 0 -93.5 60.5t-38.5 179.5q0 85 23 153.5 t51 98.5h69v-3q-67 -88 -67 -244q0 -89 18.5 -134.5t46.5 -45.5q25 0 38 27.5t13 58.5l-1 190h72z" />
<glyph unicode="&#x401;" horiz-adv-x="354" d="M306 385v-65h-169v-253h192v-67h-269v674h257v-67h-180v-222h169zM109 725h-1q-18 0 -30 12.5t-12 33.5q0 20 12.5 33.5t30.5 13.5q19 0 31 -13t12 -34t-11.5 -33.5t-31.5 -12.5zM271 725h-1q-18 0 -30.5 12.5t-12.5 33.5q0 20 12.5 33.5t31.5 13.5t31 -13t12 -34 t-11.5 -33.5t-31.5 -12.5z" />
<glyph unicode="&#x402;" horiz-adv-x="486" d="M16 674h356v-70h-158v-192h2q38 23 81 23q40 0 74 -23.5t55 -67.5q33 -69 33 -178q0 -133 -58 -211q-46 -64 -111 -84l-19 64q45 19 75 69q33 53 33 166q0 92 -25 143q-26 55 -81 55q-31 0 -59 -19v-349h-77v604h-121v70z" />
<glyph unicode="&#x403;" horiz-adv-x="339" d="M60 674h264v-67h-187v-607h-77v674zM225 818h91l-124 -108h-61z" />
<glyph unicode="&#x404;" horiz-adv-x="384" d="M355 661l-17 -65q-27 16 -63 16q-44 0 -77.5 -23.5t-51.5 -60.5t-26.5 -75t-9.5 -76h204v-67h-203q1 -32 6 -63.5t17 -65.5t29.5 -59.5t45.5 -42t64 -16.5q44 0 80 15l13 -63q-49 -22 -98 -22q-117 0 -176.5 97.5t-59.5 248.5q0 61 12.5 118t39 109t75 83.5t113.5 31.5 q43 0 83 -20z" />
<glyph unicode="&#x405;" horiz-adv-x="361" d="M28 23l17 66q41 -27 97 -27q52 0 82 31t30 83q0 43 -22 74.5t-67 65.5q-127 89 -127 187q0 77 49.5 127t128.5 50q62 0 95 -25l-19 -66q-33 23 -80 23q-46 0 -71.5 -29t-25.5 -67q0 -46 21.5 -72.5t77.5 -66.5q117 -82 117 -194q0 -85 -53.5 -137t-135.5 -52q-33 0 -66 9 t-48 20z" />
<glyph unicode="&#x406;" horiz-adv-x="199" d="M60 674h77v-674h-77v674z" />
<glyph unicode="&#x407;" horiz-adv-x="199" d="M60 674h77v-674h-77v674zM19 725h-1q-18 0 -30 12.5t-12 33.5q0 20 12.5 33.5t30.5 13.5q19 0 31 -13t12 -34t-11.5 -33.5t-31.5 -12.5zM181 725h-1q-18 0 -30.5 12.5t-12.5 33.5q0 20 12.5 33.5t31.5 13.5t31 -13t12 -34t-11.5 -33.5t-31.5 -12.5z" />
<glyph unicode="&#x408;" horiz-adv-x="265" d="M134 189v485h77v-484q0 -108 -40.5 -153t-117.5 -45q-32 0 -50 7l7 65q13 -4 37 -4q45 0 66 26.5t21 102.5z" />
<glyph unicode="&#x409;" horiz-adv-x="635" d="M80 674h274v-268q22 3 51 3q91 0 146 -54.5t55 -145.5q0 -88 -48 -144q-61 -69 -180 -69q-65 0 -100 7v604h-126v-231q0 -154 -16 -240.5t-67 -123.5q-28 -20 -60 -20l-16 64q25 8 37 20q28 26 39 93.5t11 197.5v307zM354 342v-280q13 -3 39 -3q63 0 98.5 41t35.5 106 q0 62 -37 100.5t-98 38.5q-17 0 -38 -3z" />
<glyph unicode="&#x40a;" horiz-adv-x="669" d="M60 674h77v-280h174v280h76v-272q24 3 51 3q91 0 146 -53t55 -143q0 -88 -48 -144q-61 -69 -180 -69q-65 0 -100 7v323h-174v-326h-77v674zM387 338v-276q13 -3 39 -3q63 0 98.5 41t35.5 105q0 63 -36.5 99.5t-98.5 36.5q-17 0 -38 -3z" />
<glyph unicode="&#x40b;" horiz-adv-x="501" d="M16 674h346v-70h-150v-206h2q51 37 104 37q62 0 94 -42q36 -46 36 -129v-264h-76v256q0 60 -21 88q-18 26 -58 26t-81 -30v-340h-77v604h-119v70z" />
<glyph unicode="&#x40c;" horiz-adv-x="391" d="M60 674h76v-306h14l144 306h83l-165 -316q57 -12 84.5 -55.5t42.5 -115.5l12 -58.5t16.5 -73.5t16.5 -55h-78q-9 24 -39 168q-14 71 -39 107t-80 36h-12v-311h-76v674zM247 813h91l-124 -108h-61z" />
<glyph unicode="&#x40e;" horiz-adv-x="369" d="M5 674h83l80 -275q14 -47 31 -118h3q5 19 13.5 63t11.5 56l60 274h78l-80 -302q-2 -8 -16.5 -60.5l-22.5 -79.5t-24 -70.5t-32 -74.5q-23 -45 -56.5 -71.5t-70.5 -26.5q-19 0 -36 5l4 62q10 -2 20 -2q37 0 64.5 40t41.5 87q6 17 -1 38zM74 791h56q10 -56 57 -56 q49 0 56 56h57q-13 -97 -114 -97q-103 0 -112 97z" />
<glyph unicode="&#x40f;" horiz-adv-x="458" d="M60 674h77v-607h185v607h76v-674h-132l-5 -143h-64l-5 143h-132v674z" />
<glyph unicode="&#x410;" horiz-adv-x="435" d="M290 202h-149l-45 -202h-74l154 674h85l150 -674h-76zM152 264h128l-35 171q-10 49 -27 154h-4q-14 -88 -27 -154z" />
<glyph unicode="&#x411;" horiz-adv-x="418" d="M60 674h286v-67h-209v-202q23 4 51 4q89 0 144 -53q57 -54 57 -147q0 -91 -48 -145q-59 -68 -180 -68q-64 0 -101 7v671zM137 342v-280q13 -3 39 -3q68 0 103 46q31 40 31 100t-36 99q-38 41 -99 41q-19 0 -38 -3z" />
<glyph unicode="&#x412;" horiz-adv-x="416" d="M60 3v661q52 13 113 13q99 0 149 -47q44 -41 44 -115q0 -52 -27.5 -91.5t-76.5 -58.5v-2q59 -16 92 -61t33 -111q0 -81 -48 -134q-54 -61 -178 -61q-64 0 -101 7zM137 612v-224h35q48 0 82.5 33.5t34.5 85.5q0 110 -111 110q-26 0 -41 -5zM137 329v-268q18 -4 39 -4 q61 0 96.5 35t35.5 99q0 66 -39.5 101.5t-97.5 36.5h-34z" />
<glyph unicode="&#x413;" horiz-adv-x="339" d="M60 674h264v-67h-187v-607h-77v674z" />
<glyph unicode="&#x414;" horiz-adv-x="474" d="M130 674h271v-608l45 -1l-4 -205h-60l-5 140h-298l-4 -140h-61l-4 205l45 1q38 92 54 182q21 114 21 274v152zM200 607v-101q0 -161 -18 -268q-15 -82 -48 -171h191v540h-125z" />
<glyph unicode="&#x415;" horiz-adv-x="354" d="M306 385v-65h-169v-253h192v-67h-269v674h257v-67h-180v-222h169z" />
<glyph unicode="&#x416;" horiz-adv-x="589" d="M13 674h85l146 -307h14v307h72v-307h15l145 307h85l-173 -314q59 -10 89 -57.5t45 -121.5q29 -138 45 -181h-76q-8 17 -15 46t-14 66.5t-10 49.5q-7 33 -14.5 56t-21.5 46t-36.5 35t-52.5 12h-11v-311h-72v311h-10q-31 0 -53.5 -11.5t-36.5 -35.5t-21.5 -46t-15.5 -56 q-3 -12 -10 -49.5t-14 -66.5t-15 -46h-74q13 36 44 181q33 161 135 179z" />
<glyph unicode="&#x417;" horiz-adv-x="381" d="M48 580l-20 59q56 43 138 43q78 0 121.5 -45t43.5 -117q0 -55 -33 -99.5t-85 -60.5v-2q64 -11 101.5 -58t37.5 -115q0 -89 -56 -141t-147 -52q-79 0 -131 33l19 64q49 -31 107 -31q61 0 95 35t34 92q0 65 -43 100.5t-110 35.5h-21v62h15q54 0 96.5 36.5t42.5 89.5 q0 48 -28.5 77t-77.5 29q-45 0 -99 -35z" />
<glyph unicode="&#x418;" horiz-adv-x="464" d="M60 674h70v-241q0 -150 -9 -309h2q14 46 87 235l121 315h72v-674h-69v233q0 198 8 318h-2q-16 -56 -81 -226l-126 -325h-73v674z" />
<glyph unicode="&#x419;" horiz-adv-x="464" d="M60 674h70v-241q0 -150 -9 -309h2q14 46 87 235l121 315h72v-674h-69v233q0 198 8 318h-2q-16 -56 -81 -226l-126 -325h-73v674zM119 796h56q10 -56 57 -56q49 0 56 56h57q-13 -97 -114 -97q-103 0 -112 97z" />
<glyph unicode="&#x41a;" horiz-adv-x="391" d="M60 674h76v-306h14l144 306h83l-165 -316q57 -12 84.5 -55.5t42.5 -115.5l12 -58.5t16.5 -73.5t16.5 -55h-78q-9 24 -39 168q-14 71 -39 107t-80 36h-12v-311h-76v674z" />
<glyph unicode="&#x41b;" horiz-adv-x="432" d="M81 674h290v-674h-77v607h-142v-230q0 -157 -15 -242.5t-67 -121.5q-27 -21 -62 -21l-15 65q21 3 36 17q30 26 41 94t11 198v308z" />
<glyph unicode="&#x41c;" horiz-adv-x="599" d="M482 0l-14 290q-10 182 -7 264h-4q-25 -125 -54 -234l-83 -316h-49l-79 303q-40 155 -55 247h-3q0 -77 -8 -269l-13 -285h-69l40 674h83l79 -308q40 -154 54 -232h3q14 83 50 232l76 308h86l39 -674h-72z" />
<glyph unicode="&#x41d;" horiz-adv-x="463" d="M60 674h77v-289h189v289h77v-674h-77v315h-189v-315h-77v674z" />
<glyph unicode="&#x41e;" horiz-adv-x="446" d="M230 682q86 0 135 -89.5t49 -250.5q0 -180 -54 -265t-141 -85q-86 0 -136.5 89.5t-50.5 256.5q0 164 54 254t144 90zM223 614q-58 0 -84.5 -80t-26.5 -197q0 -75 9.5 -134.5t36 -101t66.5 -41.5q41 0 67 44t34.5 102.5t8.5 132.5q0 52 -5 97t-17 87t-35 66.5t-54 24.5z " />
<glyph unicode="&#x41f;" horiz-adv-x="458" d="M60 674h338v-674h-77v607h-184v-607h-77v674z" />
<glyph unicode="&#x420;" horiz-adv-x="399" d="M60 0v664q50 13 112 13q99 0 149 -50q50 -48 50 -139q0 -84 -41 -138q-56 -75 -159 -75q-23 0 -34 1v-276h-77zM137 609v-268q13 -3 30 -3q58 0 92.5 37.5t34.5 107.5q0 57 -27 94t-87 37q-26 0 -43 -5z" />
<glyph unicode="&#x421;" horiz-adv-x="373" d="M342 77l12 -65q-34 -18 -96 -18q-103 0 -164.5 84.5t-61.5 250.5q0 95 22 166.5t58 110t75.5 56.5t82.5 18q58 0 84 -17l-17 -65q-32 14 -68 14q-63 0 -109.5 -67t-46.5 -209q0 -144 44.5 -209t113.5 -65q41 0 71 15z" />
<glyph unicode="&#x422;" horiz-adv-x="354" d="M139 0v605h-123v69h323v-69h-123v-605h-77z" />
<glyph unicode="&#x423;" horiz-adv-x="369" d="M5 674h83l80 -275q14 -47 31 -118h3q5 19 13.5 63t11.5 56l60 274h78l-80 -302q-2 -8 -16.5 -60.5l-22.5 -79.5t-24 -70.5t-32 -74.5q-23 -45 -56.5 -71.5t-70.5 -26.5q-19 0 -36 5l4 62q10 -2 20 -2q37 0 64.5 40t41.5 87q6 17 -1 38z" />
<glyph unicode="&#x424;" horiz-adv-x="507" d="M219 693h71v-53q83 -8 134.5 -82.5t51.5 -216.5q0 -284 -188 -304v-56h-70v56q-186 24 -186 301q0 147 54.5 220t132.5 82v53zM219 94v489q-47 -7 -78 -66t-31 -182q0 -113 30.5 -172t78.5 -69zM289 583v-489q109 18 109 248q0 119 -32.5 177.5t-76.5 63.5z" />
<glyph unicode="&#x425;" horiz-adv-x="392" d="M378 0h-81l-61 162q-18 48 -41 118h-3q-28 -84 -41 -120l-58 -160h-79l139 344l-134 330h80l60 -156q8 -20 40 -107h2l36 110l55 153h79l-132 -328z" />
<glyph unicode="&#x426;" horiz-adv-x="470" d="M60 674h77v-607h184v607h76v-608l45 -1l-4 -205h-61l-4 140h-313v674z" />
<glyph unicode="&#x427;" horiz-adv-x="436" d="M54 674h76v-229q0 -116 91 -116q44 0 78 21v324h76v-681h-75v295h-4q-51 -24 -100 -24q-68 0 -105 41.5t-37 124.5v244z" />
<glyph unicode="&#x428;" horiz-adv-x="632" d="M60 674h76v-607h143v607h75v-607h143v607h75v-674h-512v674z" />
<glyph unicode="&#x429;" horiz-adv-x="644" d="M60 674h76v-607h143v607h75v-607h143v607h75v-608l44 -1l-3 -205h-61l-5 140h-487v674z" />
<glyph unicode="&#x42a;" horiz-adv-x="512" d="M15 674h217v-268q24 3 51 3q92 0 147 -54.5t55 -145.5t-49 -145q-57 -68 -180 -68q-63 0 -100 7v605h-141v66zM233 342v-280q18 -3 39 -3q63 0 98 41t35 105q0 63 -36.5 101.5t-97.5 38.5q-19 0 -38 -3z" />
<glyph unicode="&#x42b;" horiz-adv-x="586" d="M60 674h77v-269q21 4 49 4q90 0 145 -54.5t55 -144.5q0 -86 -48 -144q-61 -70 -181 -70q-60 0 -97 7v671zM137 342v-280q13 -3 36 -3q62 0 97.5 40.5t35.5 105.5q0 63 -36 101.5t-96 38.5q-20 0 -37 -3zM448 675h77v-675h-77v675z" />
<glyph unicode="&#x42c;" horiz-adv-x="417" d="M60 674h77v-268q21 3 51 3q92 0 146.5 -54t54.5 -146q0 -87 -48 -143q-61 -70 -181 -70q-63 0 -100 7v671zM137 342v-280q13 -3 37 -3q63 0 99.5 40.5t36.5 105.5q0 62 -36.5 101t-98.5 39q-21 0 -38 -3z" />
<glyph unicode="&#x42d;" horiz-adv-x="387" d="M73 311v69h204q0 38 -7.5 75.5t-23.5 74.5t-47 59.5t-73 22.5q-39 0 -73 -16l-20 63q48 22 96 22q54 0 95.5 -21.5t66 -55t39.5 -80.5t20.5 -91t5.5 -93q0 -91 -23.5 -166.5t-79.5 -128t-137 -52.5q-55 0 -99 23l18 63q36 -17 77 -17q45 0 78.5 24.5t51 64.5t25.5 79.5 t9 80.5h-203z" />
<glyph unicode="&#x42e;" horiz-adv-x="604" d="M60 674h76v-288h74q8 143 58.5 219.5t128.5 76.5q82 0 129 -90t47 -250q0 -179 -51.5 -264.5t-134.5 -85.5q-78 0 -126 83t-51 242h-74v-317h-76v674zM391 60h1q38 0 62 44t32.5 103t8.5 132q0 51 -5 96.5t-16.5 87.5t-32.5 66.5t-50 24.5q-55 0 -80 -81.5t-25 -194.5 q0 -53 5 -99.5t16.5 -88t33 -66t50.5 -24.5z" />
<glyph unicode="&#x42f;" horiz-adv-x="406" d="M91 0h-80q13 26 23 70q4 17 13 70.5t20.5 89t31.5 59.5q20 25 51 33v2q-52 16 -83 57.5t-31 106.5q0 98 66 149q52 40 134 40q66 0 110 -12v-665h-77v294h-28q-51 0 -77 -31q-16 -19 -25.5 -53.5t-18 -85t-11.5 -65.5q-7 -36 -18 -59zM269 354v257q-20 4 -40 4 q-57 0 -86 -35.5t-29 -93.5q0 -61 36 -97t92 -36q17 0 27 1z" />
<glyph unicode="&#x430;" horiz-adv-x="364" d="M310 319v-209q0 -79 5 -110h-70l-5 51h-3q-33 -59 -96 -59q-49 0 -82 38.5t-33 99.5q0 86 59 130.5t147 45.5v15q0 53 -17 81.5t-60 28.5q-42 0 -80 -25l-17 54q43 32 113 32q139 0 139 -173zM234 152v98q-133 0 -133 -112q0 -43 18 -64.5t41 -21.5q26 0 45.5 19t26.5 54 q2 9 2 27z" />
<glyph unicode="&#x431;" horiz-adv-x="388" d="M324 700l-4 -67q-12 -5 -45 -12.5t-43 -10.5q-70 -16 -100 -80q-22 -49 -30 -126h2q13 34 43 57t67 23q63 0 102 -58.5t39 -179.5q0 -125 -41.5 -190t-114.5 -65q-48 0 -81.5 27.5t-50 74t-23.5 93.5t-7 100q0 186 46 277q44 87 135 111q10 3 51 11.5t55 14.5zM278 238v1 q0 30 -3.5 58.5t-11.5 58t-25.5 47.5t-41.5 18q-48 0 -68 -54q-16 -41 -16 -103q0 -27 3 -57t11 -67.5t26.5 -61.5t45.5 -24q24 0 41 19t25 49.5t11 58.5t3 57z" />
<glyph unicode="&#x432;" horiz-adv-x="394" d="M54 -2v484q52 10 109 10q33 0 62.5 -5.5t57 -18t44 -37t16.5 -59.5q0 -42 -27 -73t-69 -42v-2q54 -9 85 -40.5t31 -80.5q0 -40 -19 -69t-51.5 -44t-67 -21.5t-72.5 -6.5q-67 0 -99 5zM129 432v-153h35q38 0 71.5 23t33.5 59q0 75 -100 75q-14 0 -40 -4zM128 224v-173 q27 -3 40 -3q50 0 84 20.5t34 65.5t-37 67.5t-88 22.5h-33z" />
<glyph unicode="&#x433;" horiz-adv-x="292" d="M54 484h225v-66h-149v-418h-76v484z" />
<glyph unicode="&#x434;" horiz-adv-x="417" d="M106 484h246v-424l41 -1l-5 -188h-58l-5 129h-250l-5 -129h-59l-4 188l32 1q29 47 45 103q22 81 22 179v142zM174 422v-71q0 -118 -20 -192q-14 -53 -39 -98h161v361h-102z" />
<glyph unicode="&#x435;" horiz-adv-x="363" d="M333 235h-225q1 -180 115 -180q47 0 80 19l12 -57q-41 -23 -106 -23q-85 0 -130.5 65t-45.5 178q0 117 45 186t118 69q70 0 104 -61.5t34 -152.5q0 -31 -1 -43zM109 292h151q1 68 -20 104t-52 36q-35 0 -55.5 -42.5t-23.5 -97.5z" />
<glyph unicode="&#x436;" horiz-adv-x="536" d="M13 484h84l118 -213h16v213h74v-213h17l117 213h85l-145 -222q82 -16 110 -132q22 -93 39 -130h-75q-15 26 -33 107q-16 61 -42 86.5t-65 25.5h-8v-219h-74v219h-8q-48 0 -68.5 -25t-40.5 -92q-18 -74 -31 -102h-75q14 29 40 126q32 121 109 136z" />
<glyph unicode="&#x437;" horiz-adv-x="337" d="M84 223v56h27q38 0 68.5 22.5t30.5 60.5q0 35 -21.5 53.5t-56.5 18.5q-42 0 -85 -25l-16 49q49 34 120 34q60 0 98 -32.5t38 -88.5q0 -43 -27.5 -72.5t-71.5 -41.5v-1q52 -8 84.5 -40t32.5 -82q0 -68 -52.5 -105t-125.5 -37q-63 0 -114 27l18 55q46 -24 90 -24 q47 0 76.5 24.5t29.5 59.5q0 46 -33.5 67.5t-80.5 21.5h-29z" />
<glyph unicode="&#x438;" horiz-adv-x="406" d="M54 484h70v-166q0 -141 -6 -232h2q7 21 71 188l81 210h81v-484h-71v159q0 132 7 236h-2q-25 -85 -58 -167q-60 -150 -96 -228h-79v484z" />
<glyph unicode="&#x439;" horiz-adv-x="406" d="M54 484h70v-166q0 -141 -6 -232h2q7 21 71 188l81 210h81v-484h-71v159q0 132 7 236h-2q-25 -85 -58 -167q-60 -150 -96 -228h-79v484zM90 667h54q6 -67 59 -67t60 67h54q-13 -111 -115 -111q-99 0 -112 111z" />
<glyph unicode="&#x43a;" horiz-adv-x="367" d="M54 484h75v-210h11l127 210h86l-151 -218q84 -14 117 -137q26 -96 40 -129h-78q-15 34 -35 113q-15 53 -39.5 79t-69.5 26h-8v-218h-75v484z" />
<glyph unicode="&#x43b;" horiz-adv-x="383" d="M73 484h257v-484h-77v420h-106v-153q0 -116 -16 -177.5t-66 -85.5q-24 -11 -51 -11l-14 61q23 4 41 22q32 33 32 186v222z" />
<glyph unicode="&#x43c;" horiz-adv-x="538" d="M38 0l34 484h91l63 -213q30 -98 44 -154h2q21 88 41 154l61 213h93l33 -484h-73l-9 208q-5 103 -7 203h-3q-16 -71 -48 -186l-65 -222h-56l-63 215q-28 93 -50 194h-2q-1 -114 -7 -208l-8 -204h-71z" />
<glyph unicode="&#x43d;" horiz-adv-x="405" d="M54 484h77v-205h143v205h77v-484h-77v213h-143v-213h-77v484z" />
<glyph unicode="&#x43e;" horiz-adv-x="383" d="M195 492q68 0 112 -64.5t44 -185.5q0 -129 -48 -189.5t-113 -60.5q-69 0 -113 63.5t-44 185.5q0 125 47 188t115 63zM192 430q-24 0 -41.5 -18.5t-25.5 -48.5t-11.5 -59.5t-3.5 -61.5q0 -34 3.5 -64t12 -60t26 -47.5t42.5 -17.5q23 0 40 18.5t24.5 49t11 60t3.5 61.5 t-3.5 61.5t-11.5 59.5t-25 48.5t-41 18.5z" />
<glyph unicode="&#x43f;" horiz-adv-x="400" d="M54 484h292v-484h-76v419h-139v-419h-77v484z" />
<glyph unicode="&#x440;" horiz-adv-x="399" d="M53 -192v525q0 15 -4 151h69l4 -62h2q35 70 102 70q64 0 102 -65.5t38 -183.5q0 -126 -43.5 -188.5t-106.5 -62.5q-57 0 -84 56h-2v-240h-77zM130 301v-123q0 -29 3 -40q10 -46 30 -64t41 -18q84 0 84 186q0 81 -21 132.5t-64 51.5q-25 0 -46 -27t-25 -61q-2 -12 -2 -37z " />
<glyph unicode="&#x441;" horiz-adv-x="302" d="M280 71l10 -59q-31 -18 -80 -18q-81 0 -129 63.5t-48 181.5q0 108 51.5 180t139.5 72q42 0 68 -15l-15 -63q-26 13 -55 13q-54 0 -83 -54.5t-29 -132.5q0 -85 30.5 -133t83.5 -48q27 0 56 13z" />
<glyph unicode="&#x442;" horiz-adv-x="317" d="M10 484h297v-65h-110v-419h-77v419h-110v65z" />
<glyph unicode="&#x443;" horiz-adv-x="346" d="M13 484h81l64 -278l20 -100h2q7 38 21 99l57 279h76l-79 -311q-27 -111 -54 -186.5t-66 -125.5q-42 -53 -87 -74l-28 66q35 19 68 61q28 35 44 81q5 15 5 24q0 12 -2 18z" />
<glyph unicode="&#x444;" horiz-adv-x="477" d="M204 684h70l-1 -192q80 -10 126 -73t46 -178q0 -114 -45 -176.5t-127 -72.5l1 -184h-70v184q-80 9 -125.5 71.5t-45.5 177.5q0 113 45 175.5t126 74.5v193zM204 45v394q-53 -14 -76 -70t-23 -127q0 -72 23 -128t76 -69zM273 438v-393q99 24 99 197q0 72 -22.5 127 t-76.5 69z" />
<glyph unicode="&#x445;" horiz-adv-x="340" d="M14 484h83l45 -104l10.5 -26.5l11.5 -31.5t10 -27h2q8 23 32 85l44 104h79l-115 -239l114 -245h-84l-46 109q-8 18 -32 83h-2q-4 -13 -32 -83l-45 -109h-78l115 243z" />
<glyph unicode="&#x446;" horiz-adv-x="411" d="M54 484h77v-420h138v420h77v-424l41 -1l-5 -188h-58l-5 129h-265v484z" />
<glyph unicode="&#x447;" horiz-adv-x="393" d="M47 484h77v-185q0 -86 67 -86q36 0 71 22v249h77v-486h-76v181h-3q-36 -25 -92 -25q-57 0 -89 34t-32 99v197z" />
<glyph unicode="&#x448;" horiz-adv-x="590" d="M54 484h76v-420h127v420h76v-420h128v420h76v-484h-483v484z" />
<glyph unicode="&#x449;" horiz-adv-x="602" d="M54 484h76v-420h127v420h76v-420h128v420h76v-424l40 -1l-4 -188h-59l-5 129h-455v484z" />
<glyph unicode="&#x44a;" horiz-adv-x="464" d="M13 484h193v-171q7 0 23 1.5t24 1.5q78 0 131 -39.5t53 -114.5q0 -77 -53 -120q-58 -47 -155 -47q-49 0 -99 8v417h-117v64zM206 254v-196q18 -3 36 -3q50 0 83 26t33 76t-34 74.5t-86 24.5q-12 0 -32 -2z" />
<glyph unicode="&#x44b;" horiz-adv-x="528" d="M54 484h76v-171q24 3 46 3q74 0 124 -40.5t50 -113.5q0 -77 -54 -120q-57 -47 -143 -47q-49 0 -99 8v481zM130 254v-196q18 -3 34 -3q45 0 76 28t31 74q0 47 -31.5 73t-77.5 26q-22 0 -32 -2zM400 484h74v-484h-74v484z" />
<glyph unicode="&#x44c;" horiz-adv-x="388" d="M54 484h76v-171q7 0 23 1.5t23 1.5q80 0 132.5 -39.5t52.5 -116.5q0 -75 -53 -118q-58 -47 -155 -47q-49 0 -99 8v481zM130 254v-197q24 -2 34 -2q51 0 84.5 26t33.5 76t-34 74.5t-86 24.5q-12 0 -32 -2z" />
<glyph unicode="&#x44d;" horiz-adv-x="324" d="M49 219v56h164q-2 63 -30 109t-85 46q-30 0 -65 -13l-12 53q35 22 91 22q83 0 132 -69q48 -68 48 -178q0 -104 -50.5 -178t-143.5 -74q-53 0 -86 21l14 56q32 -14 69 -14q50 0 83 46t35 117h-164z" />
<glyph unicode="&#x44e;" horiz-adv-x="524" d="M54 484h75v-203h60q8 106 50.5 158.5t101.5 52.5q66 0 108 -64.5t42 -185.5q0 -128 -46 -189t-107 -61q-62 0 -103.5 57.5t-45.5 169.5h-60v-219h-75v484zM339 53h1q41 0 58 57.5t17 131.5q0 32 -3.5 61.5t-11 59.5t-23.5 48.5t-39 18.5q-42 0 -59.5 -58t-17.5 -130 q0 -75 18 -132t60 -57z" />
<glyph unicode="&#x44f;" horiz-adv-x="379" d="M325 481v-481h-74v207h-23q-49 0 -70 -23q-12 -10 -20.5 -28t-13 -33.5t-11 -43.5t-10.5 -43q-4 -18 -13 -36h-81q15 25 22 50q3 9 9.5 36.5t11 43.5t14 36.5t21.5 33.5q25 26 59 32v2q-46 10 -76.5 40t-30.5 79q0 63 50 101q44 36 133 36q62 0 103 -9zM251 259v174 q-15 4 -33 4q-44 0 -73 -21.5t-29 -64.5q0 -42 31.5 -67t73.5 -25h30z" />
<glyph unicode="&#x451;" horiz-adv-x="363" d="M120 566h-1q-18 0 -31 12.5t-13 31.5t13 32t32 13q18 0 30 -12.5t12 -32.5q0 -19 -12 -31.5t-30 -12.5zM275 566h-1q-18 0 -30.5 12.5t-12.5 31.5t13 32t31 13t30.5 -12.5t12.5 -32.5q0 -19 -12 -31.5t-31 -12.5zM333 235h-225q1 -180 115 -180q47 0 80 19l12 -57 q-41 -23 -106 -23q-85 0 -130.5 65t-45.5 178q0 117 45 186t118 69q70 0 104 -61.5t34 -152.5q0 -31 -1 -43zM109 292h151q1 68 -20 104t-52 36q-35 0 -55.5 -42.5t-23.5 -97.5z" />
<glyph unicode="&#x452;" horiz-adv-x="414" d="M12 614h52v78h77v-78h175v-54h-175v-130h2q16 26 42.5 42.5t57.5 16.5q71 0 105 -76q30 -65 30 -192q0 -193 -71 -281q-19 -24 -47 -41.5t-50 -20.5l-19 62q39 9 63 45q47 70 47 231q0 102 -21 156q-20 52 -61 52q-34 0 -55 -34q-23 -34 -23 -81v-309h-77v560h-52v54z " />
<glyph unicode="&#x453;" horiz-adv-x="292" d="M54 484h225v-66h-149v-418h-76v484zM201 682h79l-105 -135h-51z" />
<glyph unicode="&#x454;" horiz-adv-x="331" d="M318 470l-18 -56q-28 17 -64 17q-60 0 -91 -47.5t-33 -108.5h170v-56h-171q2 -74 36 -119.5t89 -45.5q38 0 66 16l15 -56q-39 -21 -92 -21q-94 0 -143 73t-49 176q0 104 51.5 177t150.5 73q52 0 83 -22z" />
<glyph unicode="&#x455;" horiz-adv-x="289" d="M22 22l19 58q39 -25 78 -25q33 0 52 19t19 51q0 29 -13 50t-49 45q-97 63 -97 138q0 58 38 96t95 38q45 0 87 -25l-21 -58q-32 21 -64 21q-30 0 -46.5 -18t-16.5 -43t12 -42t48 -42q100 -64 100 -147q0 -70 -41 -107t-104 -37q-61 0 -96 28z" />
<glyph unicode="&#x456;" horiz-adv-x="184" d="M131 0h-77v484h77v-484zM91 659q21 0 33.5 -13.5t12.5 -36.5q1 -22 -12 -36t-35 -14q-19 0 -31.5 14t-12.5 36t13 36t32 14z" />
<glyph unicode="&#x457;" horiz-adv-x="184" d="M16 566h-1q-18 0 -31 12.5t-13 31.5t13 32t32 13q18 0 30 -12.5t12 -32.5q0 -19 -12 -31.5t-30 -12.5zM171 566h-1q-18 0 -30.5 12.5t-12.5 31.5t13 32t31 13t30.5 -12.5t12.5 -32.5q0 -19 -12 -31.5t-31 -12.5zM131 0h-77v484h77v-484z" />
<glyph unicode="&#x458;" horiz-adv-x="188" d="M-18 -200l-10 61q48 13 65 38q23 35 23 154v431h77v-453q0 -75 -11.5 -116t-37.5 -69q-20 -21 -50.5 -33t-55.5 -13zM99 659q20 0 32.5 -13.5t12.5 -36.5t-12.5 -36.5t-34.5 -13.5q-19 0 -32 14t-12 36q-1 22 12 36t34 14z" />
<glyph unicode="&#x459;" horiz-adv-x="590" d="M73 484h259v-171q8 0 23 1.5t22 1.5q80 0 133 -39.5t53 -116.5q0 -74 -53 -117q-58 -48 -158 -48q-48 0 -96 8v417h-109v-153q0 -117 -16 -178t-66 -85q-22 -11 -51 -11l-14 61q23 4 41 22q19 19 25.5 62.5t6.5 123.5v222zM332 254v-196q18 -3 34 -3q51 0 84.5 26 t33.5 76t-34 74.5t-87 24.5q-11 0 -31 -2z" />
<glyph unicode="&#x45a;" horiz-adv-x="601" d="M54 484h77v-188h136v188h76v-176q7 0 23 1.5t24 1.5q79 0 131.5 -39.5t52.5 -115.5q0 -70 -53 -115q-59 -46 -158 -46q-42 0 -96 7v231h-136v-233h-77v484zM343 249v-191q18 -3 38 -3q48 0 81 26t33 74q0 49 -34.5 72.5t-86.5 23.5q-11 0 -31 -2z" />
<glyph unicode="&#x45b;" horiz-adv-x="415" d="M12 614h52v78h77v-78h175v-54h-175v-130h2q15 25 40 42q28 17 65 17q49 0 81 -42t32 -127v-320h-77v310q0 114 -65 114q-58 0 -75 -77q-3 -15 -3 -41v-306h-77v560h-52v54z" />
<glyph unicode="&#x45c;" horiz-adv-x="367" d="M54 484h75v-210h11l127 210h86l-151 -218q84 -14 117 -137q26 -96 40 -129h-78q-15 34 -35 113q-15 53 -39.5 79t-69.5 26h-8v-218h-75v484zM221 682h79l-105 -135h-51z" />
<glyph unicode="&#x45e;" horiz-adv-x="346" d="M60 667h54q6 -67 59 -67t60 67h54q-13 -111 -115 -111q-99 0 -112 111zM13 484h81l64 -278l20 -100h2q7 38 21 99l57 279h76l-79 -311q-27 -111 -54 -186.5t-66 -125.5q-42 -53 -87 -74l-28 66q35 19 68 61q28 35 44 81q5 15 5 24q0 12 -2 18z" />
<glyph unicode="&#x45f;" horiz-adv-x="400" d="M54 484h77v-420h138v420h77v-484h-111l-5 -133h-59l-6 133h-111v484z" />
<glyph unicode="&#x490;" horiz-adv-x="334" d="M60 674h201l13 112h55l-10 -179h-182v-607h-77v674z" />
<glyph unicode="&#x491;" horiz-adv-x="289" d="M54 484h162l11 95h56l-7 -160h-146v-419h-76v484z" />
<glyph unicode="&#x4d9;" horiz-adv-x="328" d="M60 411l-13 54q48 27 108 27q85 0 130 -65.5t45 -178.5q0 -116 -45 -185t-118 -69q-69 0 -104 61.5t-35 151.5q0 12 3 42h223q0 181 -113 181q-45 0 -81 -19zM254 192h-152q-1 -67 21 -102.5t52 -35.5q35 0 55.5 41t23.5 97z" />
<glyph unicode="&#x1e80;" horiz-adv-x="654" d="M222 0h-72l-130 674h80l57 -325q23 -140 33 -243h4q6 59 40 244l62 324h66l62 -317q31 -163 39 -251h3q12 108 36 247l56 321h75l-131 -674h-75l-65 328q-25 135 -34 221h-2q-17 -132 -37 -224zM189 818h91l95 -108h-61z" />
<glyph unicode="&#x1e81;" horiz-adv-x="566" d="M167 682h79l77 -135h-51zM13 484h80l47 -237q25 -142 26 -154h4q9 64 30 152l56 239h59l53 -232q22 -100 31 -159h4q7 63 26 156l46 235h77l-122 -484h-63l-56 235q-14 54 -27 145h-2q-11 -75 -28 -148l-58 -232h-65z" />
<glyph unicode="&#x1e82;" horiz-adv-x="654" d="M222 0h-72l-130 674h80l57 -325q23 -140 33 -243h4q6 59 40 244l62 324h66l62 -317q31 -163 39 -251h3q12 108 36 247l56 321h75l-131 -674h-75l-65 328q-25 135 -34 221h-2q-17 -132 -37 -224zM379 818h91l-124 -108h-61z" />
<glyph unicode="&#x1e83;" horiz-adv-x="566" d="M328 682h79l-105 -135h-51zM13 484h80l47 -237q25 -142 26 -154h4q9 64 30 152l56 239h59l53 -232q22 -100 31 -159h4q7 63 26 156l46 235h77l-122 -484h-63l-56 235q-14 54 -27 145h-2q-11 -75 -28 -148l-58 -232h-65z" />
<glyph unicode="&#x1e84;" horiz-adv-x="654" d="M222 0h-72l-130 674h80l57 -325q23 -140 33 -243h4q6 59 40 244l62 324h66l62 -317q31 -163 39 -251h3q12 108 36 247l56 321h75l-131 -674h-75l-65 328q-25 135 -34 221h-2q-17 -132 -37 -224zM249 725h-1q-18 0 -30 12.5t-12 33.5q0 20 12.5 33.5t30.5 13.5 q19 0 31 -13t12 -34t-11.5 -33.5t-31.5 -12.5zM411 725h-1q-18 0 -30.5 12.5t-12.5 33.5q0 20 12.5 33.5t31.5 13.5t31 -13t12 -34t-11.5 -33.5t-31.5 -12.5z" />
<glyph unicode="&#x1e85;" horiz-adv-x="566" d="M206 566h-1q-18 0 -31 12.5t-13 31.5t13 32t32 13q18 0 30 -12.5t12 -32.5q0 -19 -12 -31.5t-30 -12.5zM361 566h-1q-18 0 -30.5 12.5t-12.5 31.5t13 32t31 13t30.5 -12.5t12.5 -32.5q0 -19 -12 -31.5t-31 -12.5zM13 484h80l47 -237q25 -142 26 -154h4q9 64 30 152 l56 239h59l53 -232q22 -100 31 -159h4q7 63 26 156l46 235h77l-122 -484h-63l-56 235q-14 54 -27 145h-2q-11 -75 -28 -148l-58 -232h-65z" />
<glyph unicode="&#x1ea0;" horiz-adv-x="435" d="M290 202h-149l-45 -202h-74l154 674h85l150 -674h-76zM152 264h128l-35 171q-10 49 -27 154h-4q-14 -88 -27 -154zM215 -80q18 0 30 -13t12 -32t-12 -31.5t-31 -12.5q-18 0 -31 12.5t-13 31.5t13 32t32 13z" />
<glyph unicode="&#x1ea1;" horiz-adv-x="364" d="M310 319v-209q0 -79 5 -110h-70l-5 51h-3q-33 -59 -96 -59q-49 0 -82 38.5t-33 99.5q0 86 59 130.5t147 45.5v15q0 53 -17 81.5t-60 28.5q-42 0 -80 -25l-17 54q43 32 113 32q139 0 139 -173zM234 152v98q-133 0 -133 -112q0 -43 18 -64.5t41 -21.5q26 0 45.5 19t26.5 54 q2 9 2 27zM179 -80q18 0 30 -13t12 -32t-12 -31.5t-31 -12.5q-18 0 -31 12.5t-13 31.5t13 32t32 13z" />
<glyph unicode="&#x1ea2;" horiz-adv-x="435" d="M290 202h-149l-45 -202h-74l154 674h85l150 -674h-76zM152 264h128l-35 171q-10 49 -27 154h-4q-14 -88 -27 -154zM234 706l-41 9q5 15 25 38t20 40q0 13 -8 21t-21 8q-20 0 -42 -32l-28 21q29 58 85 58q30 0 50.5 -18.5t20.5 -45.5q0 -25 -27.5 -57t-33.5 -42z" />
<glyph unicode="&#x1ea3;" horiz-adv-x="364" d="M310 319v-209q0 -79 5 -110h-70l-5 51h-3q-33 -59 -96 -59q-49 0 -82 38.5t-33 99.5q0 86 59 130.5t147 45.5v15q0 53 -17 81.5t-60 28.5q-42 0 -80 -25l-17 54q43 32 113 32q139 0 139 -173zM234 152v98q-133 0 -133 -112q0 -43 18 -64.5t41 -21.5q26 0 45.5 19t26.5 54 q2 9 2 27zM197 530l-42 9q5 19 27 47t22 47q0 14 -9 23.5t-23 9.5q-22 0 -40 -32l-28 21q25 60 82 60q32 0 53 -20t21 -50q0 -29 -28.5 -65t-34.5 -50z" />
<glyph unicode="&#x1ea4;" horiz-adv-x="435" d="M290 202h-149l-45 -202h-74l154 674h85l150 -674h-76zM152 264h128l-35 171q-10 49 -27 154h-4q-14 -88 -27 -154zM191 808h61l77 -98h-63l-44 57h-2l-43 -57h-62zM357 882h80l-100 -101h-46z" />
<glyph unicode="&#x1ea5;" horiz-adv-x="364" d="M310 319v-209q0 -79 5 -110h-70l-5 51h-3q-33 -59 -96 -59q-49 0 -82 38.5t-33 99.5q0 86 59 130.5t147 45.5v15q0 53 -17 81.5t-60 28.5q-42 0 -80 -25l-17 54q43 32 113 32q139 0 139 -173zM234 152v98q-133 0 -133 -112q0 -43 18 -64.5t41 -21.5q26 0 45.5 19t26.5 54 q2 9 2 27zM149 682h54l63 -135h-56l-32 83h-4l-32 -83h-56zM299 742h67l-77 -117h-41z" />
<glyph unicode="&#x1ea6;" horiz-adv-x="435" d="M290 202h-149l-45 -202h-74l154 674h85l150 -674h-76zM152 264h128l-35 171q-10 49 -27 154h-4q-14 -88 -27 -154zM236 867h80l66 -100h-46zM188 808h61l77 -98h-63l-44 57h-2l-43 -57h-62z" />
<glyph unicode="&#x1ea7;" horiz-adv-x="364" d="M310 319v-209q0 -79 5 -110h-70l-5 51h-3q-33 -59 -96 -59q-49 0 -82 38.5t-33 99.5q0 86 59 130.5t147 45.5v15q0 53 -17 81.5t-60 28.5q-42 0 -80 -25l-17 54q43 32 113 32q139 0 139 -173zM234 152v98q-133 0 -133 -112q0 -43 18 -64.5t41 -21.5q26 0 45.5 19t26.5 54 q2 9 2 27zM205 742h68l45 -116h-41zM151 682h54l63 -135h-56l-32 83h-4l-32 -83h-56z" />
<glyph unicode="&#x1ea8;" horiz-adv-x="435" d="M290 202h-149l-45 -202h-74l154 674h85l150 -674h-76zM152 264h128l-35 171q-10 49 -27 154h-4q-14 -88 -27 -154zM190 808h60l77 -98h-63l-43 57h-2l-44 -57h-61zM342 752l-36 9q5 15 25 37.5t20 38.5q0 13 -8 21t-20 8q-21 0 -43 -32l-26 20q27 56 82 56 q28 0 47.5 -17.5t19.5 -43.5q0 -19 -9.5 -34t-26.5 -32t-25 -31z" />
<glyph unicode="&#x1ea9;" horiz-adv-x="364" d="M310 319v-209q0 -79 5 -110h-70l-5 51h-3q-33 -59 -96 -59q-49 0 -82 38.5t-33 99.5q0 86 59 130.5t147 45.5v15q0 53 -17 81.5t-60 28.5q-42 0 -80 -25l-17 54q43 32 113 32q139 0 139 -173zM234 152v98q-133 0 -133 -112q0 -43 18 -64.5t41 -21.5q26 0 45.5 19t26.5 54 q2 9 2 27zM148 682h54l63 -135h-56l-32 83h-4l-32 -83h-56zM291 624l-38 8q5 16 24.5 37.5t19.5 38.5q0 13 -8 21t-21 8q-21 0 -41 -32l-26 20q27 56 80 56q30 0 50 -18t20 -45q0 -19 -9.5 -33t-26 -30.5t-24.5 -30.5z" />
<glyph unicode="&#x1eaa;" horiz-adv-x="435" d="M290 202h-149l-45 -202h-74l154 674h85l150 -674h-76zM152 264h128l-35 171q-10 49 -27 154h-4q-14 -88 -27 -154zM186 808h66l88 -98h-68l-52 55h-2l-52 -55h-66zM156 820h-42q-1 35 15.5 59.5t45.5 24.5q18 0 48 -17q28 -16 41 -16q22 0 25 35h40q0 -85 -62 -85 q-17 0 -49 18q-32 16 -38 16q-21 0 -24 -35z" />
<glyph unicode="&#x1eab;" horiz-adv-x="364" d="M310 319v-209q0 -79 5 -110h-70l-5 51h-3q-33 -59 -96 -59q-49 0 -82 38.5t-33 99.5q0 86 59 130.5t147 45.5v15q0 53 -17 81.5t-60 28.5q-42 0 -80 -25l-17 54q43 32 113 32q139 0 139 -173zM234 152v98q-133 0 -133 -112q0 -43 18 -64.5t41 -21.5q26 0 45.5 19t26.5 54 q2 9 2 27zM156 650h53l76 -103h-61l-41 60h-2l-40 -60h-61zM118 661h-41q-2 35 14.5 60t45.5 25q19 0 49 -17q28 -16 40 -16q24 0 25 34h41q0 -39 -16 -62t-47 -23q-19 0 -48 18q-30 16 -38 16q-20 0 -25 -35z" />
<glyph unicode="&#x1eac;" horiz-adv-x="435" d="M290 202h-149l-45 -202h-74l154 674h85l150 -674h-76zM152 264h128l-35 171q-10 49 -27 154h-4q-14 -88 -27 -154zM185 808h67l87 -98h-68l-52 55h-2l-51 -55h-67zM218 -169h-1q-18 0 -31 13t-13 31q0 19 13 32t32 13t31.5 -13t12.5 -32q0 -18 -12.5 -31t-31.5 -13z" />
<glyph unicode="&#x1ead;" horiz-adv-x="364" d="M310 319v-209q0 -79 5 -110h-70l-5 51h-3q-33 -59 -96 -59q-49 0 -82 38.5t-33 99.5q0 86 59 130.5t147 45.5v15q0 53 -17 81.5t-60 28.5q-42 0 -80 -25l-17 54q43 32 113 32q139 0 139 -173zM234 152v98q-133 0 -133 -112q0 -43 18 -64.5t41 -21.5q26 0 45.5 19t26.5 54 q2 9 2 27zM156 682h52l79 -135h-57l-47 86h-2l-46 -86h-58zM179 -80q18 0 30 -13t12 -32t-12 -31.5t-31 -12.5q-18 0 -31 12.5t-13 31.5t13 32t32 13z" />
<glyph unicode="&#x1eae;" horiz-adv-x="435" d="M290 202h-149l-45 -202h-74l154 674h85l150 -674h-76zM152 264h128l-35 171q-10 49 -27 154h-4q-14 -88 -27 -154zM113 785h40q11 -43 65 -43q57 0 68 43h40q-6 -41 -35 -65.5t-72 -24.5q-44 0 -72.5 24t-33.5 66zM256 876h80l-100 -101h-47z" />
<glyph unicode="&#x1eaf;" horiz-adv-x="364" d="M310 319v-209q0 -79 5 -110h-70l-5 51h-3q-33 -59 -96 -59q-49 0 -82 38.5t-33 99.5q0 86 59 130.5t147 45.5v15q0 53 -17 81.5t-60 28.5q-42 0 -80 -25l-17 54q43 32 113 32q139 0 139 -173zM234 152v98q-133 0 -133 -112q0 -43 18 -64.5t41 -21.5q26 0 45.5 19t26.5 54 q2 9 2 27zM214 737h74l-92 -114h-47zM72 644h42q2 -27 20 -44t46 -17q30 0 48.5 16.5t20.5 44.5h41q1 -49 -29.5 -80t-80.5 -31t-80 31.5t-28 79.5z" />
<glyph unicode="&#x1eb0;" horiz-adv-x="435" d="M290 202h-149l-45 -202h-74l154 674h85l150 -674h-76zM152 264h128l-35 171q-10 49 -27 154h-4q-14 -88 -27 -154zM106 876h80l67 -101h-47zM111 785h40q12 -43 66 -43q56 0 67 43h40q-6 -41 -35 -65.5t-72 -24.5q-44 0 -72.5 24t-33.5 66z" />
<glyph unicode="&#x1eb1;" horiz-adv-x="364" d="M310 319v-209q0 -79 5 -110h-70l-5 51h-3q-33 -59 -96 -59q-49 0 -82 38.5t-33 99.5q0 86 59 130.5t147 45.5v15q0 53 -17 81.5t-60 28.5q-42 0 -80 -25l-17 54q43 32 113 32q139 0 139 -173zM234 152v98q-133 0 -133 -112q0 -43 18 -64.5t41 -21.5q26 0 45.5 19t26.5 54 q2 9 2 27zM73 737h74l64 -114h-47zM73 644h42q2 -27 20 -44t46 -17q30 0 48.5 16.5t20.5 44.5h41q1 -49 -29.5 -80t-80.5 -31t-80 31.5t-28 79.5z" />
<glyph unicode="&#x1eb2;" horiz-adv-x="435" d="M290 202h-149l-45 -202h-74l154 674h85l150 -674h-76zM152 264h128l-35 171q-10 49 -27 154h-4q-14 -88 -27 -154zM228 764l-36 9q5 15 25 37.5t20 38.5q0 13 -8 21t-21 8q-22 0 -42 -32l-26 20q27 56 82 56q28 0 47.5 -17.5t19.5 -43.5q0 -19 -9.5 -34t-26.5 -32 t-25 -31zM111 785h41q11 -43 65 -43q57 0 68 43h40q-6 -41 -35.5 -65.5t-72.5 -24.5t-71.5 24t-34.5 66z" />
<glyph unicode="&#x1eb3;" horiz-adv-x="364" d="M310 319v-209q0 -79 5 -110h-70l-5 51h-3q-33 -59 -96 -59q-49 0 -82 38.5t-33 99.5q0 86 59 130.5t147 45.5v15q0 53 -17 81.5t-60 28.5q-42 0 -80 -25l-17 54q43 32 113 32q139 0 139 -173zM234 152v98q-133 0 -133 -112q0 -43 18 -64.5t41 -21.5q26 0 45.5 19t26.5 54 q2 9 2 27zM194 615l-38 8q5 16 24.5 37.5t19.5 38.5q0 12 -8.5 20t-21.5 8q-21 0 -40 -31l-27 20q29 56 81 56q30 0 50.5 -17.5t20.5 -44.5q0 -25 -28 -55.5t-33 -39.5zM73 644h42q2 -27 20 -44t46 -17q30 0 48.5 16.5t20.5 44.5h41q1 -49 -29.5 -80t-80.5 -31t-80 31.5 t-28 79.5z" />
<glyph unicode="&#x1eb4;" horiz-adv-x="435" d="M290 202h-149l-45 -202h-74l154 674h85l150 -674h-76zM152 264h128l-35 171q-10 49 -27 154h-4q-14 -88 -27 -154zM154 819h-43q2 30 17 52t44 22q18 0 48 -17q28 -16 40 -16q24 0 25 35h41q0 -85 -63 -85q-19 0 -48 18q-28 16 -38 16q-17 0 -23 -25zM109 785h40 q12 -43 66 -43q56 0 67 43h40q-6 -41 -35 -65.5t-72 -24.5q-44 0 -72.5 24t-33.5 66z" />
<glyph unicode="&#x1eb5;" horiz-adv-x="364" d="M310 319v-209q0 -79 5 -110h-70l-5 51h-3q-33 -59 -96 -59q-49 0 -82 38.5t-33 99.5q0 86 59 130.5t147 45.5v15q0 53 -17 81.5t-60 28.5q-42 0 -80 -25l-17 54q43 32 113 32q139 0 139 -173zM234 152v98q-133 0 -133 -112q0 -43 18 -64.5t41 -21.5q26 0 45.5 19t26.5 54 q2 9 2 27zM118 679h-43q2 31 17.5 53t43.5 22q18 0 48 -17q28 -16 41 -16q23 0 24 35h41q0 -85 -62 -85q-18 0 -49 18q-30 15 -38 15q-18 0 -23 -25zM73 645h42q2 -28 20 -46t46 -18q30 0 48.5 18t20.5 46h41q1 -50 -29.5 -81t-80.5 -31t-79.5 31.5t-28.5 80.5z" />
<glyph unicode="&#x1eb6;" horiz-adv-x="435" d="M290 202h-149l-45 -202h-74l154 674h85l150 -674h-76zM152 264h128l-35 171q-10 49 -27 154h-4q-14 -88 -27 -154zM113 811h45q8 -43 61 -43t62 43h45q0 -43 -28.5 -69.5t-77.5 -26.5q-50 0 -78.5 25.5t-28.5 70.5zM218 -169h-1q-18 0 -31 13t-13 31q0 19 13 32t32 13 t31.5 -13t12.5 -32q0 -18 -12.5 -31t-31.5 -13z" />
<glyph unicode="&#x1eb7;" horiz-adv-x="364" d="M310 319v-209q0 -79 5 -110h-70l-5 51h-3q-33 -59 -96 -59q-49 0 -82 38.5t-33 99.5q0 86 59 130.5t147 45.5v15q0 53 -17 81.5t-60 28.5q-42 0 -80 -25l-17 54q43 32 113 32q139 0 139 -173zM234 152v98q-133 0 -133 -112q0 -43 18 -64.5t41 -21.5q26 0 45.5 19t26.5 54 q2 9 2 27zM76 669h43q2 -28 19.5 -45t42.5 -17q29 0 46 17t18 45h43q2 -50 -27.5 -81.5t-79.5 -31.5t-78.5 32t-26.5 81zM179 -80q18 0 30 -13t12 -32t-12 -31.5t-31 -12.5q-18 0 -31 12.5t-13 31.5t13 32t32 13z" />
<glyph unicode="&#x1eb8;" horiz-adv-x="354" d="M306 385v-65h-169v-253h192v-67h-269v674h257v-67h-180v-222h169zM177 -169h-1q-18 0 -31 13t-13 31q0 19 13 32t32 13t31.5 -13t12.5 -32q0 -18 -12.5 -31t-31.5 -13z" />
<glyph unicode="&#x1eb9;" horiz-adv-x="363" d="M333 235h-225q1 -180 115 -180q47 0 80 19l12 -57q-41 -23 -106 -23q-85 0 -130.5 65t-45.5 178q0 117 45 186t118 69q70 0 104 -61.5t34 -152.5q0 -31 -1 -43zM109 292h151q1 68 -20 104t-52 36q-35 0 -55.5 -42.5t-23.5 -97.5zM179 -80q18 0 30 -13t12 -32t-12 -31.5 t-31 -12.5q-18 0 -31 12.5t-13 31.5t13 32t32 13z" />
<glyph unicode="&#x1eba;" horiz-adv-x="354" d="M306 385v-65h-169v-253h192v-67h-269v674h257v-67h-180v-222h169zM205 706l-41 9q5 15 25 38t20 40q0 13 -8 21t-21 8q-20 0 -42 -32l-28 21q29 58 85 58q30 0 50.5 -18.5t20.5 -45.5q0 -25 -27.5 -57t-33.5 -42z" />
<glyph unicode="&#x1ebb;" horiz-adv-x="363" d="M333 235h-225q1 -180 115 -180q47 0 80 19l12 -57q-41 -23 -106 -23q-85 0 -130.5 65t-45.5 178q0 117 45 186t118 69q70 0 104 -61.5t34 -152.5q0 -31 -1 -43zM109 292h151q1 68 -20 104t-52 36q-35 0 -55.5 -42.5t-23.5 -97.5zM196 530l-42 9q5 19 27 47t22 47 q0 14 -9 23.5t-23 9.5q-22 0 -40 -32l-28 21q25 60 82 60q32 0 53 -20t21 -50q0 -29 -28.5 -65t-34.5 -50z" />
<glyph unicode="&#x1ebc;" horiz-adv-x="354" d="M306 385v-65h-169v-253h192v-67h-269v674h257v-67h-180v-222h169zM125 718h-42q0 43 16 68.5t44 25.5q19 0 47 -17q30 -18 39 -18q13 0 19 8t8 28h40q2 -90 -62 -90q-21 0 -49 17q-25 17 -36 17q-21 0 -24 -39z" />
<glyph unicode="&#x1ebd;" horiz-adv-x="363" d="M116 561h-42q-1 41 15 67.5t46 26.5q19 0 49 -17q28 -17 40 -17q23 0 25 36h41q0 -90 -63 -90q-19 0 -49 17t-37 17q-22 0 -25 -40zM333 235h-225q1 -180 115 -180q47 0 80 19l12 -57q-41 -23 -106 -23q-85 0 -130.5 65t-45.5 178q0 117 45 186t118 69q70 0 104 -61.5 t34 -152.5q0 -31 -1 -43zM109 292h151q1 68 -20 104t-52 36q-35 0 -55.5 -42.5t-23.5 -97.5z" />
<glyph unicode="&#x1ebe;" horiz-adv-x="354" d="M306 385v-65h-169v-253h192v-67h-269v674h257v-67h-180v-222h169zM162 808h61l77 -98h-63l-44 57h-2l-43 -57h-62zM328 882h80l-100 -101h-46z" />
<glyph unicode="&#x1ebf;" horiz-adv-x="363" d="M333 235h-225q1 -180 115 -180q47 0 80 19l12 -57q-41 -23 -106 -23q-85 0 -130.5 65t-45.5 178q0 117 45 186t118 69q70 0 104 -61.5t34 -152.5q0 -31 -1 -43zM109 292h151q1 68 -20 104t-52 36q-35 0 -55.5 -42.5t-23.5 -97.5zM169 682h54l63 -135h-56l-32 83h-4 l-32 -83h-56zM319 742h67l-77 -117h-41z" />
<glyph unicode="&#x1ec0;" horiz-adv-x="354" d="M306 385v-65h-169v-253h192v-67h-269v674h257v-67h-180v-222h169zM204 867h80l66 -100h-46zM156 808h61l77 -98h-63l-44 57h-2l-43 -57h-62z" />
<glyph unicode="&#x1ec1;" horiz-adv-x="363" d="M333 235h-225q1 -180 115 -180q47 0 80 19l12 -57q-41 -23 -106 -23q-85 0 -130.5 65t-45.5 178q0 117 45 186t118 69q70 0 104 -61.5t34 -152.5q0 -31 -1 -43zM109 292h151q1 68 -20 104t-52 36q-35 0 -55.5 -42.5t-23.5 -97.5zM223 742h68l45 -116h-41zM169 682h54 l63 -135h-56l-32 83h-4l-32 -83h-56z" />
<glyph unicode="&#x1ec2;" horiz-adv-x="354" d="M306 385v-65h-169v-253h192v-67h-269v674h257v-67h-180v-222h169zM160 808h60l77 -98h-63l-43 57h-2l-44 -57h-61zM312 752l-36 9q5 15 25 37.5t20 38.5q0 13 -8 21t-20 8q-21 0 -43 -32l-26 20q27 56 82 56q28 0 47.5 -17.5t19.5 -43.5q0 -19 -9.5 -34t-26.5 -32 t-25 -31z" />
<glyph unicode="&#x1ec3;" horiz-adv-x="363" d="M333 235h-225q1 -180 115 -180q47 0 80 19l12 -57q-41 -23 -106 -23q-85 0 -130.5 65t-45.5 178q0 117 45 186t118 69q70 0 104 -61.5t34 -152.5q0 -31 -1 -43zM109 292h151q1 68 -20 104t-52 36q-35 0 -55.5 -42.5t-23.5 -97.5zM162 682h54l63 -135h-56l-32 83h-4 l-32 -83h-56zM305 624l-38 8q5 16 24.5 37.5t19.5 38.5q0 13 -8 21t-21 8q-21 0 -41 -32l-26 20q27 56 80 56q30 0 50 -18t20 -45q0 -19 -9.5 -33t-26 -30.5t-24.5 -30.5z" />
<glyph unicode="&#x1ec4;" horiz-adv-x="354" d="M306 385v-65h-169v-253h192v-67h-269v674h257v-67h-180v-222h169zM159 808h66l88 -98h-68l-52 55h-2l-52 -55h-66zM129 820h-42q-1 35 15.5 59.5t45.5 24.5q18 0 48 -17q28 -16 41 -16q22 0 25 35h40q0 -85 -62 -85q-18 0 -49 18q-32 16 -38 16q-21 0 -24 -35z" />
<glyph unicode="&#x1ec5;" horiz-adv-x="363" d="M333 235h-225q1 -180 115 -180q47 0 80 19l12 -57q-41 -23 -106 -23q-85 0 -130.5 65t-45.5 178q0 117 45 186t118 69q70 0 104 -61.5t34 -152.5q0 -31 -1 -43zM109 292h151q1 68 -20 104t-52 36q-35 0 -55.5 -42.5t-23.5 -97.5zM168 650h53l76 -103h-61l-41 60h-2 l-40 -60h-61zM130 661h-41q-2 35 14.5 60t45.5 25q19 0 49 -17q28 -16 40 -16q24 0 25 34h41q0 -39 -16 -62t-47 -23q-19 0 -48 18q-30 16 -38 16q-20 0 -25 -35z" />
<glyph unicode="&#x1ec6;" horiz-adv-x="354" d="M306 385v-65h-169v-253h192v-67h-269v674h257v-67h-180v-222h169zM155 808h67l87 -98h-68l-52 55h-2l-51 -55h-67zM190 -169h-1q-18 0 -31 13t-13 31q0 19 13 32t32 13t31.5 -13t12.5 -32q0 -18 -12.5 -31t-31.5 -13z" />
<glyph unicode="&#x1ec7;" horiz-adv-x="363" d="M333 235h-225q1 -180 115 -180q47 0 80 19l12 -57q-41 -23 -106 -23q-85 0 -130.5 65t-45.5 178q0 117 45 186t118 69q70 0 104 -61.5t34 -152.5q0 -31 -1 -43zM109 292h151q1 68 -20 104t-52 36q-35 0 -55.5 -42.5t-23.5 -97.5zM155 682h52l79 -135h-57l-47 86h-2 l-46 -86h-58zM179 -80q18 0 30 -13t12 -32t-12 -31.5t-31 -12.5q-18 0 -31 12.5t-13 31.5t13 32t32 13z" />
<glyph unicode="&#x1ec8;" horiz-adv-x="199" d="M60 674h77v-674h-77v674zM116 706l-41 9q5 15 25 38t20 40q0 13 -8 21t-21 8q-20 0 -42 -32l-28 21q29 58 85 58q30 0 50.5 -18.5t20.5 -45.5q0 -25 -27.5 -57t-33.5 -42z" />
<glyph unicode="&#x1ec9;" horiz-adv-x="184" d="M131 0h-77v484h77v-484zM107 530l-42 9q5 19 27 47t22 47q0 14 -9 23.5t-23 9.5q-22 0 -40 -32l-28 21q25 60 82 60q32 0 53 -20t21 -50q0 -29 -28.5 -65t-34.5 -50z" />
<glyph unicode="&#x1eca;" horiz-adv-x="199" d="M60 674h77v-674h-77v674zM100 -169h-1q-18 0 -31 13t-13 31q0 19 13 32t32 13t31.5 -13t12.5 -32q0 -18 -12.5 -31t-31.5 -13z" />
<glyph unicode="&#x1ecb;" horiz-adv-x="184" d="M131 0h-77v484h77v-484zM91 659q21 0 33.5 -13.5t12.5 -36.5q1 -22 -12 -36t-35 -14q-19 0 -31.5 14t-12.5 36t13 36t32 14zM90 -80q18 0 30 -13t12 -32t-12 -31.5t-31 -12.5q-18 0 -31 12.5t-13 31.5t13 32t32 13z" />
<glyph unicode="&#x1ecc;" horiz-adv-x="446" d="M230 682q86 0 135 -89.5t49 -250.5q0 -180 -54 -265t-141 -85q-86 0 -136.5 89.5t-50.5 256.5q0 164 54 254t144 90zM223 614q-58 0 -84.5 -80t-26.5 -197q0 -75 9.5 -134.5t36 -101t66.5 -41.5q41 0 67 44t34.5 102.5t8.5 132.5q0 52 -5 97t-17 87t-35 66.5t-54 24.5z M223 -169h-1q-18 0 -31 13t-13 31q0 19 13 32t32 13t31.5 -13t12.5 -32q0 -18 -12.5 -31t-31.5 -13z" />
<glyph unicode="&#x1ecd;" horiz-adv-x="383" d="M195 492q68 0 112 -64.5t44 -185.5q0 -129 -48 -189.5t-113 -60.5q-69 0 -113 63.5t-44 185.5q0 125 47 188t115 63zM192 430q-24 0 -41.5 -18.5t-25.5 -48.5t-11.5 -59.5t-3.5 -61.5q0 -34 3.5 -64t12 -60t26 -47.5t42.5 -17.5q23 0 40 18.5t24.5 49t11 60t3.5 61.5 t-3.5 61.5t-11.5 59.5t-25 48.5t-41 18.5zM189 -80q18 0 30 -13t12 -32t-12 -31.5t-31 -12.5q-18 0 -31 12.5t-13 31.5t13 32t32 13z" />
<glyph unicode="&#x1ece;" horiz-adv-x="446" d="M230 682q86 0 135 -89.5t49 -250.5q0 -180 -54 -265t-141 -85q-86 0 -136.5 89.5t-50.5 256.5q0 164 54 254t144 90zM223 614q-58 0 -84.5 -80t-26.5 -197q0 -75 9.5 -134.5t36 -101t66.5 -41.5q41 0 67 44t34.5 102.5t8.5 132.5q0 52 -5 97t-17 87t-35 66.5t-54 24.5z M239 706l-41 9q5 15 25 38t20 40q0 13 -8 21t-21 8q-20 0 -42 -32l-28 21q29 58 85 58q30 0 50.5 -18.5t20.5 -45.5q0 -25 -27.5 -57t-33.5 -42z" />
<glyph unicode="&#x1ecf;" horiz-adv-x="383" d="M195 492q68 0 112 -64.5t44 -185.5q0 -129 -48 -189.5t-113 -60.5q-69 0 -113 63.5t-44 185.5q0 125 47 188t115 63zM192 430q-24 0 -41.5 -18.5t-25.5 -48.5t-11.5 -59.5t-3.5 -61.5q0 -34 3.5 -64t12 -60t26 -47.5t42.5 -17.5q23 0 40 18.5t24.5 49t11 60t3.5 61.5 t-3.5 61.5t-11.5 59.5t-25 48.5t-41 18.5zM206 530l-42 9q5 19 27 47t22 47q0 14 -9 23.5t-23 9.5q-22 0 -40 -32l-28 21q25 60 82 60q32 0 53 -20t21 -50q0 -29 -28.5 -65t-34.5 -50z" />
<glyph unicode="&#x1ed0;" horiz-adv-x="446" d="M230 682q86 0 135 -89.5t49 -250.5q0 -180 -54 -265t-141 -85q-86 0 -136.5 89.5t-50.5 256.5q0 164 54 254t144 90zM223 614q-58 0 -84.5 -80t-26.5 -197q0 -75 9.5 -134.5t36 -101t66.5 -41.5q41 0 67 44t34.5 102.5t8.5 132.5q0 52 -5 97t-17 87t-35 66.5t-54 24.5z M200 808h61l77 -98h-63l-44 57h-2l-43 -57h-62zM366 882h80l-100 -101h-46z" />
<glyph unicode="&#x1ed1;" horiz-adv-x="383" d="M195 492q68 0 112 -64.5t44 -185.5q0 -129 -48 -189.5t-113 -60.5q-69 0 -113 63.5t-44 185.5q0 125 47 188t115 63zM192 430q-24 0 -41.5 -18.5t-25.5 -48.5t-11.5 -59.5t-3.5 -61.5q0 -34 3.5 -64t12 -60t26 -47.5t42.5 -17.5q23 0 40 18.5t24.5 49t11 60t3.5 61.5 t-3.5 61.5t-11.5 59.5t-25 48.5t-41 18.5zM168 682h54l63 -135h-56l-32 83h-4l-32 -83h-56zM318 742h67l-77 -117h-41z" />
<glyph unicode="&#x1ed2;" horiz-adv-x="446" d="M230 682q86 0 135 -89.5t49 -250.5q0 -180 -54 -265t-141 -85q-86 0 -136.5 89.5t-50.5 256.5q0 164 54 254t144 90zM223 614q-58 0 -84.5 -80t-26.5 -197q0 -75 9.5 -134.5t36 -101t66.5 -41.5q41 0 67 44t34.5 102.5t8.5 132.5q0 52 -5 97t-17 87t-35 66.5t-54 24.5z M244 867h80l66 -100h-46zM196 808h61l77 -98h-63l-44 57h-2l-43 -57h-62z" />
<glyph unicode="&#x1ed3;" horiz-adv-x="383" d="M195 492q68 0 112 -64.5t44 -185.5q0 -129 -48 -189.5t-113 -60.5q-69 0 -113 63.5t-44 185.5q0 125 47 188t115 63zM192 430q-24 0 -41.5 -18.5t-25.5 -48.5t-11.5 -59.5t-3.5 -61.5q0 -34 3.5 -64t12 -60t26 -47.5t42.5 -17.5q23 0 40 18.5t24.5 49t11 60t3.5 61.5 t-3.5 61.5t-11.5 59.5t-25 48.5t-41 18.5zM223 742h68l45 -116h-41zM169 682h54l63 -135h-56l-32 83h-4l-32 -83h-56z" />
<glyph unicode="&#x1ed4;" horiz-adv-x="446" d="M230 682q86 0 135 -89.5t49 -250.5q0 -180 -54 -265t-141 -85q-86 0 -136.5 89.5t-50.5 256.5q0 164 54 254t144 90zM223 614q-58 0 -84.5 -80t-26.5 -197q0 -75 9.5 -134.5t36 -101t66.5 -41.5q41 0 67 44t34.5 102.5t8.5 132.5q0 52 -5 97t-17 87t-35 66.5t-54 24.5z M196 808h60l77 -98h-63l-43 57h-2l-44 -57h-61zM348 752l-36 9q5 15 25 37.5t20 38.5q0 13 -8 21t-20 8q-21 0 -43 -32l-26 20q27 56 82 56q28 0 47.5 -17.5t19.5 -43.5q0 -19 -9.5 -34t-26.5 -32t-25 -31z" />
<glyph unicode="&#x1ed5;" horiz-adv-x="383" d="M195 492q68 0 112 -64.5t44 -185.5q0 -129 -48 -189.5t-113 -60.5q-69 0 -113 63.5t-44 185.5q0 125 47 188t115 63zM192 430q-24 0 -41.5 -18.5t-25.5 -48.5t-11.5 -59.5t-3.5 -61.5q0 -34 3.5 -64t12 -60t26 -47.5t42.5 -17.5q23 0 40 18.5t24.5 49t11 60t3.5 61.5 t-3.5 61.5t-11.5 59.5t-25 48.5t-41 18.5zM167 682h54l63 -135h-56l-32 83h-4l-32 -83h-56zM310 624l-38 8q5 16 24.5 37.5t19.5 38.5q0 13 -8 21t-21 8q-21 0 -41 -32l-26 20q27 56 80 56q30 0 50 -18t20 -45q0 -19 -9.5 -33t-26 -30.5t-24.5 -30.5z" />
<glyph unicode="&#x1ed6;" horiz-adv-x="446" d="M230 682q86 0 135 -89.5t49 -250.5q0 -180 -54 -265t-141 -85q-86 0 -136.5 89.5t-50.5 256.5q0 164 54 254t144 90zM223 614q-58 0 -84.5 -80t-26.5 -197q0 -75 9.5 -134.5t36 -101t66.5 -41.5q41 0 67 44t34.5 102.5t8.5 132.5q0 52 -5 97t-17 87t-35 66.5t-54 24.5z M191 808h66l88 -98h-68l-52 55h-2l-52 -55h-66zM161 820h-42q-1 35 15.5 59.5t45.5 24.5q18 0 48 -17q28 -16 41 -16q22 0 25 35h40q0 -85 -62 -85q-18 0 -49 18q-32 16 -38 16q-21 0 -24 -35z" />
<glyph unicode="&#x1ed7;" horiz-adv-x="383" d="M195 492q68 0 112 -64.5t44 -185.5q0 -129 -48 -189.5t-113 -60.5q-69 0 -113 63.5t-44 185.5q0 125 47 188t115 63zM192 430q-24 0 -41.5 -18.5t-25.5 -48.5t-11.5 -59.5t-3.5 -61.5q0 -34 3.5 -64t12 -60t26 -47.5t42.5 -17.5q23 0 40 18.5t24.5 49t11 60t3.5 61.5 t-3.5 61.5t-11.5 59.5t-25 48.5t-41 18.5zM166 650h53l76 -103h-61l-41 60h-2l-40 -60h-61zM128 661h-41q-2 35 14.5 60t45.5 25q19 0 49 -17q28 -16 40 -16q24 0 25 34h41q0 -39 -16 -62t-47 -23q-19 0 -48 18q-30 16 -38 16q-20 0 -25 -35z" />
<glyph unicode="&#x1ed8;" horiz-adv-x="446" d="M230 682q86 0 135 -89.5t49 -250.5q0 -180 -54 -265t-141 -85q-86 0 -136.5 89.5t-50.5 256.5q0 164 54 254t144 90zM223 614q-58 0 -84.5 -80t-26.5 -197q0 -75 9.5 -134.5t36 -101t66.5 -41.5q41 0 67 44t34.5 102.5t8.5 132.5q0 52 -5 97t-17 87t-35 66.5t-54 24.5z M190 808h67l87 -98h-68l-52 55h-2l-51 -55h-67zM223 -169h-1q-18 0 -31 13t-13 31q0 19 13 32t32 13t31.5 -13t12.5 -32q0 -18 -12.5 -31t-31.5 -13z" />
<glyph unicode="&#x1ed9;" horiz-adv-x="383" d="M195 492q68 0 112 -64.5t44 -185.5q0 -129 -48 -189.5t-113 -60.5q-69 0 -113 63.5t-44 185.5q0 125 47 188t115 63zM192 430q-24 0 -41.5 -18.5t-25.5 -48.5t-11.5 -59.5t-3.5 -61.5q0 -34 3.5 -64t12 -60t26 -47.5t42.5 -17.5q23 0 40 18.5t24.5 49t11 60t3.5 61.5 t-3.5 61.5t-11.5 59.5t-25 48.5t-41 18.5zM165 682h52l79 -135h-57l-47 86h-2l-46 -86h-58zM189 -80q18 0 30 -13t12 -32t-12 -31.5t-31 -12.5q-18 0 -31 12.5t-13 31.5t13 32t32 13z" />
<glyph unicode="&#x1eda;" horiz-adv-x="446" d="M224 60q41 0 67 44t34.5 102.5t8.5 132.5q0 52 -5 97t-17 87t-35 66.5t-54 24.5t-54 -24.5t-35 -66t-17 -87.5t-5 -98q-1 -115 25.5 -196.5t86.5 -81.5zM361 727l59 11q16 -30 16 -67q0 -34 -18.5 -57t-53.5 -22q50 -88 50 -250q0 -180 -54 -265t-141 -85 q-86 0 -136.5 89.5t-50.5 256.5q0 164 54 254t144 90q37 0 71 -18l16 -9.5t13.5 -8t9.5 -4.5t10 -2q26 0 26 32q0 23 -15 55zM271 818h91l-124 -108h-61z" />
<glyph unicode="&#x1edb;" horiz-adv-x="383" d="M192 430q-24 0 -41.5 -18.5t-25.5 -48.5t-11.5 -59.5t-3.5 -61.5q0 -34 3.5 -64t12 -60t26 -47.5t42.5 -17.5q23 0 40 18.5t24.5 49t11 60t3.5 61.5t-3.5 61.5t-11.5 59.5t-25 48.5t-41 18.5zM315 547l58 10q17 -30 17 -66q0 -35 -20 -55.5t-56 -21.5q37 -62 37 -172 q0 -129 -48 -189.5t-113 -60.5q-69 0 -113 63.5t-44 185.5q0 125 47 188t115 63q25 0 55 -13q40 -17 51 -17q29 0 29 32q0 27 -15 53zM231 682h79l-105 -135h-51z" />
<glyph unicode="&#x1edc;" horiz-adv-x="446" d="M224 60q41 0 67 44t34.5 102.5t8.5 132.5q0 52 -5 97t-17 87t-35 66.5t-54 24.5t-54 -24.5t-35 -66t-17 -87.5t-5 -98q-1 -115 25.5 -196.5t86.5 -81.5zM361 727l59 11q16 -30 16 -67q0 -34 -18.5 -57t-53.5 -22q50 -88 50 -250q0 -180 -54 -265t-141 -85 q-86 0 -136.5 89.5t-50.5 256.5q0 164 54 254t144 90q37 0 71 -18l16 -9.5t13.5 -8t9.5 -4.5t10 -2q26 0 26 32q0 23 -15 55zM96 818h91l95 -108h-61z" />
<glyph unicode="&#x1edd;" horiz-adv-x="383" d="M192 430q-24 0 -41.5 -18.5t-25.5 -48.5t-11.5 -59.5t-3.5 -61.5q0 -34 3.5 -64t12 -60t26 -47.5t42.5 -17.5q23 0 40 18.5t24.5 49t11 60t3.5 61.5t-3.5 61.5t-11.5 59.5t-25 48.5t-41 18.5zM315 547l58 10q17 -30 17 -66q0 -35 -20 -55.5t-56 -21.5q37 -62 37 -172 q0 -129 -48 -189.5t-113 -60.5q-69 0 -113 63.5t-44 185.5q0 125 47 188t115 63q25 0 55 -13q40 -17 51 -17q29 0 29 32q0 27 -15 53zM87 682h79l77 -135h-51z" />
<glyph unicode="&#x1ede;" horiz-adv-x="446" d="M224 60q41 0 67 44t34.5 102.5t8.5 132.5q0 52 -5 97t-17 87t-35 66.5t-54 24.5t-54 -24.5t-35 -66t-17 -87.5t-5 -98q-1 -115 25.5 -196.5t86.5 -81.5zM361 727l59 11q16 -30 16 -67q0 -34 -18.5 -57t-53.5 -22q50 -88 50 -250q0 -180 -54 -265t-141 -85 q-86 0 -136.5 89.5t-50.5 256.5q0 164 54 254t144 90q37 0 71 -18l16 -9.5t13.5 -8t9.5 -4.5t10 -2q26 0 26 32q0 23 -15 55zM239 706l-41 9q5 15 25 38t20 40q0 13 -8 21t-21 8q-20 0 -42 -32l-28 21q29 58 85 58q30 0 50.5 -18.5t20.5 -45.5q0 -25 -27.5 -57t-33.5 -42z " />
<glyph unicode="&#x1edf;" horiz-adv-x="383" d="M192 430q-24 0 -41.5 -18.5t-25.5 -48.5t-11.5 -59.5t-3.5 -61.5q0 -34 3.5 -64t12 -60t26 -47.5t42.5 -17.5q23 0 40 18.5t24.5 49t11 60t3.5 61.5t-3.5 61.5t-11.5 59.5t-25 48.5t-41 18.5zM315 547l58 10q17 -30 17 -66q0 -35 -20 -55.5t-56 -21.5q37 -62 37 -172 q0 -129 -48 -189.5t-113 -60.5q-69 0 -113 63.5t-44 185.5q0 125 47 188t115 63q25 0 55 -13q40 -17 51 -17q29 0 29 32q0 27 -15 53zM206 530l-42 9q5 19 27 47t22 47q0 14 -9 23.5t-23 9.5q-22 0 -40 -32l-28 21q25 60 82 60q32 0 53 -20t21 -50q0 -29 -28.5 -65 t-34.5 -50z" />
<glyph unicode="&#x1ee0;" horiz-adv-x="446" d="M224 60q41 0 67 44t34.5 102.5t8.5 132.5q0 52 -5 97t-17 87t-35 66.5t-54 24.5t-54 -24.5t-35 -66t-17 -87.5t-5 -98q-1 -115 25.5 -196.5t86.5 -81.5zM361 727l59 11q16 -30 16 -67q0 -34 -18.5 -57t-53.5 -22q50 -88 50 -250q0 -180 -54 -265t-141 -85 q-86 0 -136.5 89.5t-50.5 256.5q0 164 54 254t144 90q37 0 71 -18l16 -9.5t13.5 -8t9.5 -4.5t10 -2q26 0 26 32q0 23 -15 55zM159 718h-42q0 43 16 68.5t44 25.5q19 0 47 -17q30 -18 39 -18q13 0 19 8t8 28h40q2 -90 -62 -90q-21 0 -49 17q-25 17 -36 17q-21 0 -24 -39z" />
<glyph unicode="&#x1ee1;" horiz-adv-x="383" d="M192 430q-24 0 -41.5 -18.5t-25.5 -48.5t-11.5 -59.5t-3.5 -61.5q0 -34 3.5 -64t12 -60t26 -47.5t42.5 -17.5q23 0 40 18.5t24.5 49t11 60t3.5 61.5t-3.5 61.5t-11.5 59.5t-25 48.5t-41 18.5zM315 547l58 10q17 -30 17 -66q0 -35 -20 -55.5t-56 -21.5q37 -62 37 -172 q0 -129 -48 -189.5t-113 -60.5q-69 0 -113 63.5t-44 185.5q0 125 47 188t115 63q25 0 55 -13q40 -17 51 -17q29 0 29 32q0 27 -15 53zM125 561h-42q-1 41 15 67.5t46 26.5q19 0 49 -17q28 -17 40 -17q23 0 25 36h41q0 -90 -63 -90q-19 0 -49 17t-37 17q-22 0 -25 -40z" />
<glyph unicode="&#x1ee2;" horiz-adv-x="446" d="M224 60q41 0 67 44t34.5 102.5t8.5 132.5q0 52 -5 97t-17 87t-35 66.5t-54 24.5t-54 -24.5t-35 -66t-17 -87.5t-5 -98q-1 -115 25.5 -196.5t86.5 -81.5zM361 727l59 11q16 -30 16 -67q0 -34 -18.5 -57t-53.5 -22q50 -88 50 -250q0 -180 -54 -265t-141 -85 q-86 0 -136.5 89.5t-50.5 256.5q0 164 54 254t144 90q37 0 71 -18l16 -9.5t13.5 -8t9.5 -4.5t10 -2q26 0 26 32q0 23 -15 55zM223 -169h-1q-18 0 -31 13t-13 31q0 19 13 32t32 13t31.5 -13t12.5 -32q0 -18 -12.5 -31t-31.5 -13z" />
<glyph unicode="&#x1ee3;" horiz-adv-x="383" d="M192 430q-24 0 -41.5 -18.5t-25.5 -48.5t-11.5 -59.5t-3.5 -61.5q0 -34 3.5 -64t12 -60t26 -47.5t42.5 -17.5q23 0 40 18.5t24.5 49t11 60t3.5 61.5t-3.5 61.5t-11.5 59.5t-25 48.5t-41 18.5zM315 547l58 10q17 -30 17 -66q0 -35 -20 -55.5t-56 -21.5q37 -62 37 -172 q0 -129 -48 -189.5t-113 -60.5q-69 0 -113 63.5t-44 185.5q0 125 47 188t115 63q25 0 55 -13q40 -17 51 -17q29 0 29 32q0 27 -15 53zM191 -80q18 0 30 -13t12 -32t-12 -31.5t-31 -12.5q-18 0 -31 12.5t-13 31.5t13 32t32 13z" />
<glyph unicode="&#x1ee4;" horiz-adv-x="457" d="M59 674h77v-452q0 -162 92 -162q93 0 93 162v452h77v-440q0 -125 -46 -183.5t-126 -58.5q-167 0 -167 233v449zM229 -169h-1q-18 0 -31 13t-13 31q0 19 13 32t32 13t31.5 -13t12.5 -32q0 -18 -12.5 -31t-31.5 -13z" />
<glyph unicode="&#x1ee5;" horiz-adv-x="398" d="M344 484v-352q0 -32 2 -81.5t2 -50.5h-67l-5 51h-2q-14 -22 -41.5 -40.5t-62.5 -18.5q-62 0 -90 46.5t-28 139.5v306h77v-295q0 -64 14 -98t51 -34q30 0 47.5 21t21.5 43q4 17 4 44v319h77zM196 -80q18 0 30 -13t12 -32t-12 -31.5t-31 -12.5q-18 0 -31 12.5t-13 31.5 t13 32t32 13z" />
<glyph unicode="&#x1ee6;" horiz-adv-x="457" d="M59 674h77v-452q0 -162 92 -162q93 0 93 162v452h77v-440q0 -125 -46 -183.5t-126 -58.5q-167 0 -167 233v449zM245 706l-41 9q5 15 25 38t20 40q0 13 -8 21t-21 8q-20 0 -42 -32l-28 21q29 58 85 58q30 0 50.5 -18.5t20.5 -45.5q0 -25 -27.5 -57t-33.5 -42z" />
<glyph unicode="&#x1ee7;" horiz-adv-x="398" d="M344 484v-352q0 -32 2 -81.5t2 -50.5h-67l-5 51h-2q-14 -22 -41.5 -40.5t-62.5 -18.5q-62 0 -90 46.5t-28 139.5v306h77v-295q0 -64 14 -98t51 -34q30 0 47.5 21t21.5 43q4 17 4 44v319h77zM213 530l-42 9q5 19 27 47t22 47q0 14 -9 23.5t-23 9.5q-22 0 -40 -32l-28 21 q25 60 82 60q32 0 53 -20t21 -50q0 -29 -28.5 -65t-34.5 -50z" />
<glyph unicode="&#x1ee8;" horiz-adv-x="474" d="M406 757l59 9q15 -30 15 -65q0 -72 -72 -75l-10 -1v-391q0 -125 -46 -183.5t-126 -58.5q-167 0 -167 233v449h77v-452q0 -162 92 -162q93 0 93 162v452h62q20 0 28 6.5t8 22.5q0 28 -13 54zM278 818h91l-124 -108h-61z" />
<glyph unicode="&#x1ee9;" horiz-adv-x="398" d="M346 569l59 9q16 -28 16 -64q0 -32 -17.5 -52.5t-53.5 -21.5l-6 -1v-307q0 -32 2 -81.5t2 -50.5h-67l-5 51h-2q-14 -22 -41.5 -40.5t-62.5 -18.5q-62 0 -90 46.5t-28 139.5v306h77v-295q0 -64 14 -98t51 -34q30 0 47.5 21t21.5 43q4 17 4 44v319h58q20 0 27.5 7.5 t7.5 24.5q0 27 -14 53zM247 682h79l-105 -135h-51z" />
<glyph unicode="&#x1eea;" horiz-adv-x="474" d="M406 757l59 9q15 -30 15 -65q0 -72 -72 -75l-10 -1v-391q0 -125 -46 -183.5t-126 -58.5q-167 0 -167 233v449h77v-452q0 -162 92 -162q93 0 93 162v452h62q20 0 28 6.5t8 22.5q0 28 -13 54zM87 818h91l95 -108h-61z" />
<glyph unicode="&#x1eeb;" horiz-adv-x="398" d="M346 569l59 9q16 -28 16 -64q0 -32 -17.5 -52.5t-53.5 -21.5l-6 -1v-307q0 -32 2 -81.5t2 -50.5h-67l-5 51h-2q-14 -22 -41.5 -40.5t-62.5 -18.5q-62 0 -90 46.5t-28 139.5v306h77v-295q0 -64 14 -98t51 -34q30 0 47.5 21t21.5 43q4 17 4 44v319h58q20 0 27.5 7.5 t7.5 24.5q0 27 -14 53zM86 682h79l77 -135h-51z" />
<glyph unicode="&#x1eec;" horiz-adv-x="474" d="M406 757l59 9q15 -30 15 -65q0 -72 -72 -75l-10 -1v-391q0 -125 -46 -183.5t-126 -58.5q-167 0 -167 233v449h77v-452q0 -162 92 -162q93 0 93 162v452h62q20 0 28 6.5t8 22.5q0 28 -13 54zM253 706l-41 9q5 15 25 38t20 40q0 13 -8 21t-21 8q-20 0 -42 -32l-28 21 q29 58 85 58q30 0 50.5 -18.5t20.5 -45.5q0 -25 -27.5 -57t-33.5 -42z" />
<glyph unicode="&#x1eed;" horiz-adv-x="398" d="M346 569l59 9q16 -28 16 -64q0 -32 -17.5 -52.5t-53.5 -21.5l-6 -1v-307q0 -32 2 -81.5t2 -50.5h-67l-5 51h-2q-14 -22 -41.5 -40.5t-62.5 -18.5q-62 0 -90 46.5t-28 139.5v306h77v-295q0 -64 14 -98t51 -34q30 0 47.5 21t21.5 43q4 17 4 44v319h58q20 0 27.5 7.5 t7.5 24.5q0 27 -14 53zM222 530l-42 9q5 19 27 47t22 47q0 14 -9 23.5t-23 9.5q-22 0 -40 -32l-28 21q25 60 82 60q32 0 53 -20t21 -50q0 -29 -28.5 -65t-34.5 -50z" />
<glyph unicode="&#x1eee;" horiz-adv-x="474" d="M406 757l59 9q15 -30 15 -65q0 -72 -72 -75l-10 -1v-391q0 -125 -46 -183.5t-126 -58.5q-167 0 -167 233v449h77v-452q0 -162 92 -162q93 0 93 162v452h62q20 0 28 6.5t8 22.5q0 28 -13 54zM172 718h-42q0 43 16 68.5t44 25.5q19 0 47 -17q30 -18 39 -18q13 0 19 8t8 28 h40q2 -90 -62 -90q-21 0 -49 17q-25 17 -36 17q-21 0 -24 -39z" />
<glyph unicode="&#x1eef;" horiz-adv-x="398" d="M346 569l59 9q16 -28 16 -64q0 -32 -17.5 -52.5t-53.5 -21.5l-6 -1v-307q0 -32 2 -81.5t2 -50.5h-67l-5 51h-2q-14 -22 -41.5 -40.5t-62.5 -18.5q-62 0 -90 46.5t-28 139.5v306h77v-295q0 -64 14 -98t51 -34q30 0 47.5 21t21.5 43q4 17 4 44v319h58q20 0 27.5 7.5 t7.5 24.5q0 27 -14 53zM135 561h-42q-1 41 15 67.5t46 26.5q19 0 49 -17q28 -17 40 -17q23 0 25 36h41q0 -90 -63 -90q-19 0 -49 17t-37 17q-22 0 -25 -40z" />
<glyph unicode="&#x1ef0;" horiz-adv-x="474" d="M406 757l59 9q15 -30 15 -65q0 -72 -72 -75l-10 -1v-391q0 -125 -46 -183.5t-126 -58.5q-167 0 -167 233v449h77v-452q0 -162 92 -162q93 0 93 162v452h62q20 0 28 6.5t8 22.5q0 28 -13 54zM235 -80q18 0 30 -13t12 -32t-12 -31.5t-31 -12.5q-18 0 -31 12.5t-13 31.5 t13 32t32 13z" />
<glyph unicode="&#x1ef1;" horiz-adv-x="398" d="M346 569l59 9q16 -28 16 -64q0 -32 -17.5 -52.5t-53.5 -21.5l-6 -1v-307q0 -32 2 -81.5t2 -50.5h-67l-5 51h-2q-14 -22 -41.5 -40.5t-62.5 -18.5q-62 0 -90 46.5t-28 139.5v306h77v-295q0 -64 14 -98t51 -34q30 0 47.5 21t21.5 43q4 17 4 44v319h58q20 0 27.5 7.5 t7.5 24.5q0 27 -14 53zM194 -80q18 0 30 -13t12 -32t-12 -31.5t-31 -12.5q-18 0 -31 12.5t-13 31.5t13 32t32 13z" />
<glyph unicode="&#x1ef2;" horiz-adv-x="394" d="M235 0h-77v285l-148 389h81l60 -169q30 -84 50 -152h2q16 61 49 155l57 166h81l-155 -386v-288zM61 811h91l95 -108h-61z" />
<glyph unicode="&#x1ef3;" horiz-adv-x="346" d="M62 682h79l77 -135h-51zM13 484h81l64 -278l20 -100h2q7 38 21 99l57 279h76l-79 -311q-27 -111 -54 -186.5t-66 -125.5q-42 -53 -87 -74l-28 66q35 19 68 61q28 35 44 81q5 15 5 24q0 12 -2 18z" />
<glyph unicode="&#x1ef4;" horiz-adv-x="394" d="M235 0h-77v285l-148 389h81l60 -169q30 -84 50 -152h2q16 61 49 155l57 166h81l-155 -386v-288zM197 -169h-1q-18 0 -31 13t-13 31q0 19 13 32t32 13t31.5 -13t12.5 -32q0 -18 -12.5 -31t-31.5 -13z" />
<glyph unicode="&#x1ef5;" horiz-adv-x="346" d="M13 484h81l64 -278l20 -100h2q7 38 21 99l57 279h76l-79 -311q-27 -111 -54 -186.5t-66 -125.5q-42 -53 -87 -74l-28 66q35 19 68 61q28 35 44 81q5 15 5 24q0 12 -2 18zM247 -80q18 0 30 -13t12 -32t-12 -31.5t-31 -12.5q-18 0 -31 12.5t-13 31.5t13 32t32 13z" />
<glyph unicode="&#x1ef6;" horiz-adv-x="394" d="M235 0h-77v285l-148 389h81l60 -169q30 -84 50 -152h2q16 61 49 155l57 166h81l-155 -386v-288zM213 706l-41 9q5 15 25 38t20 40q0 13 -8 21t-21 8q-20 0 -42 -32l-28 21q29 58 85 58q30 0 50.5 -18.5t20.5 -45.5q0 -25 -27.5 -57t-33.5 -42z" />
<glyph unicode="&#x1ef7;" horiz-adv-x="346" d="M13 484h81l64 -278l20 -100h2q7 38 21 99l57 279h76l-79 -311q-27 -111 -54 -186.5t-66 -125.5q-42 -53 -87 -74l-28 66q35 19 68 61q28 35 44 81q5 15 5 24q0 12 -2 18zM190 530l-42 9q5 19 27 47t22 47q0 14 -9 23.5t-23 9.5q-22 0 -40 -32l-28 21q25 60 82 60 q32 0 53 -20t21 -50q0 -29 -28.5 -65t-34.5 -50z" />
<glyph unicode="&#x1ef8;" horiz-adv-x="394" d="M235 0h-77v285l-148 389h81l60 -169q30 -84 50 -152h2q16 61 49 155l57 166h81l-155 -386v-288zM132 718h-42q0 43 16 68.5t44 25.5q19 0 47 -17q30 -18 39 -18q13 0 19 8t8 28h40q2 -90 -62 -90q-21 0 -49 17q-25 17 -36 17q-21 0 -24 -39z" />
<glyph unicode="&#x1ef9;" horiz-adv-x="346" d="M113 561h-42q-1 41 15 67.5t46 26.5q19 0 49 -17q28 -17 40 -17q23 0 25 36h41q0 -90 -63 -90q-19 0 -49 17t-37 17q-22 0 -25 -40zM13 484h81l64 -278l20 -100h2q7 38 21 99l57 279h76l-79 -311q-27 -111 -54 -186.5t-66 -125.5q-42 -53 -87 -74l-28 66q35 19 68 61 q28 35 44 81q5 15 5 24q0 12 -2 18z" />
<glyph unicode="&#x2013;" horiz-adv-x="500" d="M30 288h440v-56h-440v56z" />
<glyph unicode="&#x2014;" horiz-adv-x="1000" d="M30 288h940v-56h-940v56z" />
<glyph unicode="&#x2018;" horiz-adv-x="177" d="M100 457l-78 -10q15 58 42 126t48 104l46 6q-41 -112 -58 -226z" />
<glyph unicode="&#x2019;" horiz-adv-x="177" d="M78 674l78 10q-15 -58 -42 -126t-48 -104l-46 -7q42 116 58 227z" />
<glyph unicode="&#x201a;" horiz-adv-x="177" d="M66 -113l-46 -7q42 116 58 227l78 10q-15 -58 -42 -126t-48 -104z" />
<glyph unicode="&#x201c;" horiz-adv-x="307" d="M98 457l-78 -10q16 59 43.5 127.5t47.5 102.5l45 6q-41 -112 -58 -226zM231 457l-78 -10q16 59 43 127t47 103l46 6q-41 -112 -58 -226z" />
<glyph unicode="&#x201d;" horiz-adv-x="307" d="M76 674l79 10q-16 -58 -43 -126t-48 -104l-45 -7q42 121 57 227zM209 674l78 10q-15 -58 -42 -126t-48 -104l-46 -7q42 116 58 227z" />
<glyph unicode="&#x201e;" horiz-adv-x="307" d="M64 -113l-45 -7q42 121 57 227l79 10q-16 -58 -43 -126t-48 -104zM197 -113l-46 -7q42 116 58 227l78 10q-15 -58 -42 -126t-48 -104z" />
<glyph unicode="&#x2020;" horiz-adv-x="380" d="M155 674h70l-6 -198l131 6v-68l-131 7l6 -471h-70l6 471l-130 -7v68l130 -6z" />
<glyph unicode="&#x2021;" horiz-adv-x="380" d="M155 674h70l-4 -195l129 6v-67l-129 6v-216l129 7v-68l-129 6l4 -203h-70l5 203l-129 -6v68l129 -7v216l-129 -6v67l129 -6z" />
<glyph unicode="&#x2022;" horiz-adv-x="257" d="M128 162h-1q-39 0 -66.5 27t-27.5 69q-1 42 27 69.5t69 27.5q40 0 67.5 -27.5t27.5 -69.5q0 -41 -27.5 -68.5t-68.5 -27.5z" />
<glyph unicode="&#x2026;" horiz-adv-x="1000" d="M167 -8h-1q-21 0 -35.5 16t-14.5 42q0 25 14.5 42t36.5 17q23 0 37 -16.5t14 -42.5t-14 -42t-37 -16zM500 -8h-1q-21 0 -35.5 16t-14.5 42q0 25 15 42t36 17q23 0 37 -16.5t14 -42.5q0 -27 -13.5 -42.5t-37.5 -15.5zM833 -8h-1q-21 0 -35 16t-14 42q0 25 14.5 42t36.5 17 t36 -16.5t14 -42.5q0 -27 -13.5 -42.5t-37.5 -15.5z" />
<glyph unicode="&#x2030;" horiz-adv-x="934" d="M153 658h1q55 0 88 -53.5t33 -142.5q0 -97 -35.5 -147.5t-86.5 -50.5q-54 0 -88.5 53.5t-34.5 142.5q0 91 35 144.5t88 53.5zM153 610h-1q-33 0 -48 -44.5t-15 -104.5q0 -149 64 -149q63 0 63 148q0 150 -63 150zM173 -14h-49l346 677h48zM493 387h1q55 0 88 -54t33 -143 q0 -96 -35.5 -146.5t-86.5 -50.5q-55 0 -89 53t-34 143q0 91 35 144.5t88 53.5zM493 339h-1q-34 0 -48.5 -44.5t-14.5 -104.5q0 -38 5 -69.5t20 -56t39 -24.5q63 0 63 149q0 61 -14.5 105.5t-48.5 44.5zM782 387h1q55 0 88 -54t33 -143q0 -96 -35.5 -146.5t-86.5 -50.5 q-54 0 -88 53t-34 143q0 91 34.5 144.5t87.5 53.5zM782 339h-1q-33 0 -48 -44.5t-15 -104.5q0 -38 5 -69.5t20 -56t39 -24.5q63 0 63 149q0 150 -63 150z" />
<glyph unicode="&#x2039;" horiz-adv-x="210" d="M190 426l-104 -174l104 -174h-63l-102 174l103 174h62z" />
<glyph unicode="&#x203a;" horiz-adv-x="210" d="M124 252l-104 174h62l104 -174l-102 -174h-64z" />
<glyph unicode="&#x2044;" horiz-adv-x="109" d="M-91 -8h-49l340 666h49z" />
<glyph unicode="&#x2070;" horiz-adv-x="265" d="M131 412h-1q-54 0 -83.5 54t-29.5 145q0 93 31.5 147t87.5 54t83.5 -53.5t27.5 -144.5q0 -100 -31.5 -151t-84.5 -51zM133 462h1q52 0 52 151q0 149 -52 149q-27 0 -41.5 -39.5t-14.5 -109.5q0 -151 55 -151z" />
<glyph unicode="&#x2074;" horiz-adv-x="270" d="M213 417h-57v106h-147v36l144 251h60v-240h46v-47h-46v-106zM156 570v100q0 5 4 73h-2l-15 -31t-19 -38l-56 -102v-2h88z" />
<glyph unicode="&#x2075;" horiz-adv-x="246" d="M219 807v-53h-117l-13 -89q4 1 18 1q47 0 78 -27q39 -33 39 -93q0 -58 -36.5 -96t-96.5 -38q-49 0 -78 18l12 47q30 -15 63 -15q32 0 53.5 21t21.5 58q0 80 -94 80q-16 0 -36 -2l24 188h162z" />
<glyph unicode="&#x2076;" horiz-adv-x="266" d="M218 812v-50q-20 0 -32 -3q-89 -17 -106 -126h2q25 37 71 37q42 0 68.5 -33.5t26.5 -88.5q0 -58 -29.5 -97t-81.5 -39q-56 0 -87.5 45t-31.5 117q0 110 59 177q42 48 106 58q23 3 35 3zM136 458h1q23 0 36.5 23t13.5 65q0 37 -14.5 58.5t-39.5 21.5q-34 0 -51 -38 q-4 -10 -4 -27q0 -48 15.5 -75.5t42.5 -27.5z" />
<glyph unicode="&#x2077;" horiz-adv-x="228" d="M10 807h214v-39l-137 -351h-61l135 336v1h-151v53z" />
<glyph unicode="&#x2078;" horiz-adv-x="266" d="M137 812h1q45 0 72 -27.5t27 -66.5q0 -56 -55 -90v-2q66 -36 66 -102q0 -50 -33 -81t-83 -31q-52 0 -82.5 30t-30.5 73q0 68 65 107v1q-53 33 -53 88q0 45 30.5 73t75.5 28zM134 455h1q23 0 38 17.5t15 47.5q0 53 -59 81q-51 -25 -51 -78q0 -30 15 -49t41 -19zM135 770 h-1q-21 0 -33.5 -16t-12.5 -40q0 -45 52 -68q40 23 40 66q0 26 -11.5 42t-33.5 16z" />
<glyph unicode="&#x2079;" horiz-adv-x="262" d="M45 412v50q15 0 34 3q35 6 59 30q34 31 45 96h-2q-26 -31 -68 -31t-69 32t-27 85q0 55 32 95t83 40q54 0 83 -44.5t29 -115.5q0 -114 -60 -183q-40 -46 -102 -55q-13 -2 -37 -2zM129 766h-1q-21 0 -36 -22.5t-15 -62.5q0 -36 14 -57t39 -21q34 0 49 31q4 9 4 29 q0 49 -14.5 76t-39.5 27z" />
<glyph unicode="&#x207d;" horiz-adv-x="159" d="M104 846h46q-65 -99 -65 -245q0 -140 65 -243h-46q-69 98 -69 243q0 147 69 245z" />
<glyph unicode="&#x207e;" horiz-adv-x="159" d="M54 358h-46q65 101 65 245q0 142 -65 243h46q70 -98 70 -244q0 -144 -70 -244z" />
<glyph unicode="&#x2080;" horiz-adv-x="265" d="M131 -152h-1q-54 0 -83.5 54t-29.5 145q0 93 31.5 147t87.5 54t83.5 -53.5t27.5 -144.5q0 -100 -31.5 -151t-84.5 -51zM133 -102h1q52 0 52 151q0 149 -52 149q-27 0 -41.5 -39.5t-14.5 -109.5q0 -151 55 -151z" />
<glyph unicode="&#x2081;" horiz-adv-x="212" d="M157 -147h-60v333h-2l-73 -39l-11 48l95 48h51v-390z" />
<glyph unicode="&#x2082;" horiz-adv-x="245" d="M2 -147v29l41 50l53.5 68t37 61.5t20.5 69.5q0 33 -16 49t-44 16q-32 0 -66 -27l-16 44q35 35 98 35q54 0 81 -30.5t27 -76.5q0 -76 -103 -197l-30 -37v-2h140v-52h-223z" />
<glyph unicode="&#x2083;" horiz-adv-x="235" d="M30 179l-13 43q38 26 88 26q48 0 74.5 -26t26.5 -65q0 -62 -64 -89v-2q30 -7 53 -33t23 -65q0 -52 -37 -86t-99 -34q-46 0 -81 21l13 47q32 -20 70 -20q31 0 51 18.5t20 51.5q0 37 -23 56.5t-65 19.5h-8v42h7q27 0 53 17t26 47q0 25 -14 38.5t-38 13.5q-32 0 -63 -21z " />
<glyph unicode="&#x2084;" horiz-adv-x="270" d="M213 -147h-57v106h-147v36l144 251h60v-240h46v-47h-46v-106zM156 6v100q0 5 4 73h-2l-15 -31t-19 -38l-56 -102v-2h88z" />
<glyph unicode="&#x2085;" horiz-adv-x="246" d="M219 243v-53h-117l-13 -89q4 1 18 1q47 0 78 -27q39 -33 39 -93q0 -58 -36.5 -96t-96.5 -38q-49 0 -78 18l12 47q30 -15 63 -15q32 0 53.5 21t21.5 58q0 80 -94 80q-16 0 -36 -2l24 188h162z" />
<glyph unicode="&#x2086;" horiz-adv-x="266" d="M218 248v-50q-20 0 -32 -3q-89 -17 -106 -126h2q25 37 71 37q42 0 68.5 -33.5t26.5 -88.5q0 -58 -29.5 -97t-81.5 -39q-56 0 -87.5 45t-31.5 117q0 110 59 177q42 48 106 58q23 3 35 3zM136 -106h1q23 0 36.5 23t13.5 65q0 37 -14.5 58.5t-39.5 21.5q-34 0 -51 -38 q-4 -10 -4 -27q0 -48 15.5 -75.5t42.5 -27.5z" />
<glyph unicode="&#x2087;" horiz-adv-x="228" d="M10 243h214v-39l-137 -351h-61l135 336v1h-151v53z" />
<glyph unicode="&#x2088;" horiz-adv-x="266" d="M137 248h1q45 0 72 -27.5t27 -66.5q0 -56 -55 -90v-2q66 -36 66 -102q0 -50 -33 -81t-83 -31q-52 0 -82.5 30t-30.5 73q0 68 65 107v1q-53 33 -53 88q0 45 30.5 73t75.5 28zM134 -109h1q23 0 38 17.5t15 47.5q0 53 -59 81q-51 -25 -51 -78q0 -30 15 -49t41 -19zM135 206 h-1q-21 0 -33.5 -16t-12.5 -40q0 -45 52 -68q40 23 40 66q0 26 -11.5 42t-33.5 16z" />
<glyph unicode="&#x2089;" horiz-adv-x="262" d="M45 -152v50q15 0 34 3q35 6 59 30q34 31 45 96h-2q-26 -31 -68 -31t-69 32t-27 85q0 55 32 95t83 40q54 0 83 -44.5t29 -115.5q0 -114 -60 -183q-40 -46 -102 -55q-13 -2 -37 -2zM129 202h-1q-21 0 -36 -22.5t-15 -62.5q0 -36 14 -57t39 -21q34 0 49 31q4 9 4 29 q0 49 -14.5 76t-39.5 27z" />
<glyph unicode="&#x208d;" horiz-adv-x="159" d="M104 282h46q-65 -99 -65 -245q0 -140 65 -243h-46q-69 98 -69 243q0 147 69 245z" />
<glyph unicode="&#x208e;" horiz-adv-x="159" d="M54 -206h-46q65 101 65 245q0 142 -65 243h46q70 -98 70 -244q0 -144 -70 -244z" />
<glyph unicode="&#x20ab;" horiz-adv-x="385" d="M73 107h247v-55h-247v55zM251 654h67v-67h41v-45h-41v-301q0 -12 1.5 -42.5t1.5 -40.5h-58l-4 44h-3q-25 -49 -84 -49q-54 0 -87.5 46.5t-33.5 129.5q0 86 37 132t88 46q49 0 73 -40h2v75h-95v45h95v67zM251 282v87q0 15 -1 22q-3 26 -20 44.5t-40 18.5 q-35 0 -51.5 -35.5t-16.5 -89.5t16.5 -88.5t48.5 -34.5q45 0 61 54q3 9 3 22z" />
<glyph unicode="&#x20ac;" horiz-adv-x="385" d="M358 81l13 -61q-44 -28 -100 -28q-85 0 -139 65q-55 64 -66 196h-49v48h46v14q0 31 1 43h-47v47h51q13 119 72 187q55 66 140 66q46 0 85 -24l-17 -63q-29 20 -69 20q-50 0 -81 -38q-42 -45 -53 -148h169v-47h-173q-1 -11 -1 -38v-19h174v-48h-171q7 -97 41 -144 q33 -50 96 -50q41 0 78 22z" />
<glyph unicode="&#x2113;" horiz-adv-x="396" d="M166 501v-173q91 125 91 246q0 73 -41 73q-50 0 -50 -146zM337 108l35 -36q-21 -36 -59 -59t-84 -23q-136 0 -138 188v12q-16 -14 -43 -34l-23 40q30 24 66 58v243q0 212 123 212q45 0 74 -34.5t29 -98.5q0 -160 -151 -326v-35q0 -90 20.5 -124t59.5 -34q47 0 91 51z" />
<glyph unicode="&#x2116;" horiz-adv-x="705" d="M559 654h1q55 0 85 -41.5t30 -122.5q0 -85 -34.5 -125.5t-84.5 -40.5q-54 0 -87 42.5t-33 122.5q0 79 35 122t88 43zM556 609h-1q-30 0 -44 -37.5t-14 -82.5q0 -47 14.5 -83t44.5 -36q59 0 59 119q0 48 -13.5 84t-45.5 36zM659 235h-207v47h207v-47zM128 0h-68v667h72 l116 -314q54 -143 82 -233h1q-8 170 -8 306v241h67v-667h-72l-120 321q-46 124 -75 227h-2q7 -125 7 -316v-232z" />
<glyph unicode="&#x2122;" horiz-adv-x="509" d="M25 674h178v-43h-65v-229h-48v229h-65v43zM488 402h-47l-8 160q0 18 -2 76h-2q-10 -55 -17 -81l-36 -151h-49l-36 155q-2 16 -15 77h-2q0 -26 -2 -76l-8 -160h-45l16 272h72l33 -129q10 -47 14 -69h1l14 68l34 130h69z" />
<glyph unicode="&#x2126;" horiz-adv-x="472" d="M340 69v-3h99v-66h-177v52q42 46 66 130.5t23 176.5q0 63 -9.5 117.5t-37 96t-68.5 41.5t-68.5 -41t-37.5 -95t-10 -116q0 -86 25.5 -177t63.5 -133v-52h-177v66h99v3q-40 56 -65.5 135.5t-25.5 168.5q0 143 56.5 226t146.5 83q87 0 137.5 -82.5t50.5 -221.5 q0 -93 -26 -175t-65 -134z" />
<glyph unicode="&#x212e;" horiz-adv-x="817" d="M782 316h-605q-5 0 -5 -4v-183q0 -10 9 -21q93 -99 229 -99q145 0 240 111h55q-52 -61 -130 -96t-166 -35q-155 0 -264.5 98.5t-109.5 237.5t109.5 237.5t264.5 98.5t264 -98.5t109 -237.5v-9zM646 340v184q0 12 -10 22q-95 95 -226 95q-133 0 -228 -98q-10 -10 -10 -23 v-180q0 -5 5 -5h464q5 0 5 5z" />
<glyph unicode="&#x2202;" horiz-adv-x="375" d="M70 632l-23 52q65 44 127 44q84 0 144 -86.5t60 -255.5q0 -197 -61 -295.5t-142 -98.5q-66 0 -105 52.5t-39 151.5q0 109 51.5 178.5t122.5 69.5q63 0 97 -54h1v18q0 125 -40.5 189.5t-98.5 64.5q-54 0 -94 -30zM181 56h1q45 0 78.5 75.5t37.5 181.5q-26 68 -79 68 q-46 0 -78.5 -53.5t-32.5 -131.5q0 -73 21 -106.5t52 -33.5z" />
<glyph unicode="&#x2206;" horiz-adv-x="412" d="M392 0h-373v44l149 612h79l145 -611v-45zM316 66l-76 330q-21 96 -33 169h-4q-7 -54 -33 -167l-75 -332h221z" />
<glyph unicode="&#x220f;" horiz-adv-x="449" d="M439 582h-60v-672h-71v672h-170v-672h-71v672h-60v68h432v-68z" />
<glyph unicode="&#x2211;" horiz-adv-x="381" d="M378 -90h-368v51l185 318l-175 320v51h336v-66h-243v-4l161 -297l-175 -302v-4h279v-67z" />
<glyph unicode="&#x2212;" horiz-adv-x="596" d="M40 294h516v-54h-516v54z" />
<glyph unicode="&#x2215;" horiz-adv-x="109" d="M-91 -8h-49l340 666h49z" />
<glyph unicode="&#x2219;" horiz-adv-x="194" d="M97 202h-1q-21 0 -35.5 15.5t-14.5 41.5q0 24 15 40.5t36 16.5q23 0 37 -15.5t14 -41.5t-14 -41.5t-37 -15.5z" />
<glyph unicode="&#x221a;" horiz-adv-x="530" d="M518 825l-198 -918h-55l-129 426l-71 -25l-16 44l128 48l94 -327q17 -59 18 -82h1q5 39 13 81l157 753h58z" />
<glyph unicode="&#x221e;" horiz-adv-x="725" d="M540 119h-1q-13 0 -27 3t-24.5 6.5t-24.5 12.5l-22 14t-22 17.5l-19 17t-20 19l-18 17.5q-61 -61 -92 -80q-45 -27 -92 -27q-62 0 -101.5 40.5t-39.5 103.5q0 60 42.5 103t106.5 43q12 0 23.5 -2t23.5 -7l21 -8.5t21 -12.5t18.5 -13.5t19 -16t16.5 -15.5l18 -17.5 l16 -15.5l39.5 39t38 31.5t52.5 29t55 8.5q62 0 101.5 -41t39.5 -105q0 -59 -43 -101.5t-106 -42.5zM540 174h1q38 0 64 26t26 63q0 40 -24.5 65.5t-63.5 25.5q-21 0 -41 -7.5t-40.5 -24t-31 -27l-30.5 -31.5q7 -6 23.5 -22.5t26.5 -25.5t25.5 -20.5t31.5 -16.5t33 -5z M182 174h1q27 0 56.5 16.5t44.5 30.5t42 42q-4 3 -29 28t-35.5 33t-33 19t-43.5 11q-39 0 -64.5 -26.5t-25.5 -64.5t24.5 -63.5t62.5 -25.5z" />
<glyph unicode="&#x222b;" horiz-adv-x="311" d="M290 787l-11 -53q-16 4 -27 4q-25 0 -41 -23q-26 -33 -26 -158q0 -72 3.5 -233.5t3.5 -237.5q0 -139 -38 -191q-30 -44 -87 -44q-27 0 -43 9l12 54q16 -4 27 -4q25 0 39 20q27 38 27 155q0 77 -3.5 241t-3.5 237q0 77 10.5 122t36.5 73q32 35 82 35q19 0 39 -6z" />
<glyph unicode="&#x2248;" horiz-adv-x="596" d="M539 411l29 -42q-26 -28 -66.5 -48.5t-82.5 -20.5q-21 0 -42 4.5t-32 8.5t-30.5 12.5t-24.5 10.5t-18 8t-21.5 9.5t-21.5 8t-26.5 6.5t-28.5 2q-63 0 -120 -55l-29 42q26 28 66.5 48t82.5 20q17 0 33 -2t30.5 -7l23.5 -8t23.5 -10t19.5 -9q6 -3 22.5 -10.5t27.5 -11.5 t29 -8t36 -4q31 0 64 16.5t56 39.5zM544 214l29 -42q-26 -28 -66.5 -48.5t-82.5 -20.5q-21 0 -42 4t-32.5 8.5t-30.5 13t-25 10.5q-5 2 -18 8t-21.5 9.5t-21.5 8t-26.5 6.5t-28.5 2q-64 0 -119 -55l-30 42q27 28 67 48t82 20q17 0 33 -2t30.5 -7l23.5 -8t23.5 -10t19.5 -9 q6 -2 23 -10t27.5 -12t29 -8t36.5 -4q62 0 120 56z" />
<glyph unicode="&#x2260;" horiz-adv-x="596" d="M556 143h-309l-79 -124h-59l79 124h-148v55h183l90 142h-273v55h308l79 125h60l-80 -125h149v-55h-184l-90 -142h274v-55z" />
<glyph unicode="&#x2264;" horiz-adv-x="596" d="M529 97l-462 195v54l462 195v-61l-388 -160v-2l388 -160v-61zM529 0h-462v53h462v-53z" />
<glyph unicode="&#x2265;" horiz-adv-x="596" d="M529 292l-462 -195v61l388 160v2l-388 160v61l462 -195v-54zM529 0h-462v53h462v-53z" />
<glyph unicode="&#x25ca;" horiz-adv-x="474" d="M423 325l-158 -341h-57l-158 341l158 341h57zM357 323l-111 249q-6 15 -9 28h-2q-5 -16 -10 -28l-109 -245l111 -249q8 -19 10 -28h2q7 21 10 28z" />
<glyph unicode="&#xe000;" horiz-adv-x="485" d="M0 485h485v-485h-485v485z" />
<glyph unicode="&#xe001;" horiz-adv-x="599" d="M482 0l-14 290q-10 182 -7 264h-4q-25 -125 -54 -234l-83 -316h-49l-79 303q-40 155 -55 247h-3q0 -77 -8 -269l-13 -285h-69l40 674h83l79 -308q40 -154 54 -232h3q14 83 50 232l76 308h86l39 -674h-72zM265 808h67l87 -98h-68l-52 55h-2l-51 -55h-67z" />
<glyph unicode="&#xe002;" horiz-adv-x="465" d="M130 0h-70v674h73l124 -316q63 -162 86 -235h2q-9 159 -9 310v241h69v-674h-73l-128 324q-52 131 -80 229h-2q8 -120 8 -320v-233zM199 808h67l87 -98h-68l-52 55h-2l-51 -55h-67z" />
<glyph unicode="&#xe005;" horiz-adv-x="399" d="M299 333v-271q0 -91 -11.5 -136.5t-36.5 -73.5q-46 -52 -129 -52q-63 0 -106 24l18 60q40 -21 90 -21q99 0 99 148v49h-2q-26 -59 -93 -59q-64 0 -103 66t-39 173q0 124 46 188t106 64t90 -63h2l4 55h69q-4 -136 -4 -151zM223 177v140q0 22 -4 35q-20 74 -70 74 q-41 0 -63.5 -50t-22.5 -132q0 -89 24 -134.5t62 -45.5q50 0 69 69q5 19 5 44zM133 561h-42q-1 41 15 67.5t46 26.5q19 0 49 -17q28 -17 40 -17q23 0 25 36h41q0 -90 -63 -90q-19 0 -49 17t-37 17q-22 0 -25 -40z" />
<glyph unicode="&#xe006;" horiz-adv-x="620" d="M284 682h52l79 -135h-57l-47 86h-2l-46 -86h-58zM54 0v359q0 33 -2 75t-2 50h67l4 -60h2q37 68 109 68q75 0 101 -74h2q19 36 48 55q28 19 67 19q52 0 84 -41.5t32 -129.5v-321h-76v303q0 57 -14 90.5t-54 33.5q-24 0 -43.5 -19.5t-27.5 -52.5q-3 -19 -3 -44v-311h-76 v317q0 110 -67 110q-25 0 -45.5 -20.5t-26.5 -57.5q-3 -19 -3 -42v-307h-76z" />
<glyph unicode="&#xe007;" horiz-adv-x="405" d="M176 682h52l79 -135h-57l-47 86h-2l-46 -86h-58zM54 0v359q0 33 -2 75t-2 50h67l4 -58h2q36 66 111 66q53 0 85 -41.5t32 -125.5v-325h-77v312q0 115 -67 115q-25 0 -45.5 -20.5t-27.5 -58.5q-3 -18 -3 -43v-305h-77z" />
<glyph unicode="&#xe008;" horiz-adv-x="385" d="M117 173l135 370q-21 49 -59 49q-46 0 -69 -72.5t-23 -194.5q0 -89 16 -152zM269 478l-135 -373q23 -47 58 -47q46 0 69 72t23 195q0 87 -15 153zM348 656l-35 -78q45 -86 45 -252q0 -169 -46.5 -251.5t-121.5 -82.5q-54 0 -91 42l-23 -53l-38 20l34 74q-45 79 -45 249 q0 164 45 249t126 85q52 0 88 -40l25 57z" />
<glyph unicode="&#xe016;" horiz-adv-x="418" d="M147 0h-77v425h-61v59h61v32q0 75 42 129.5t134 54.5q57 0 95 -23l-17 -60q-40 19 -80 19q-55 0 -76 -33t-21 -95v-24h217v-484h-77v425h-140v-425z" />
<glyph unicode="&#xe017;" horiz-adv-x="418" d="M147 0h-77v425h-61v59h61v26q0 96 55 148q45 42 123 42q67 0 117 -25v-675h-77v627q-23 10 -53 10q-88 0 -88 -122v-31h83v-59h-83v-425z" />
<glyph unicode="&#xe018;" horiz-adv-x="212" d="M157 417h-60v333h-2l-73 -39l-11 48l95 48h51v-390z" />
<glyph unicode="&#xe019;" horiz-adv-x="245" d="M2 417v29l41 50l53.5 68t37 61.5t20.5 69.5q0 33 -16 49t-44 16q-32 0 -66 -27l-16 44q35 35 98 35q54 0 81 -30.5t27 -76.5q0 -76 -103 -197l-30 -37v-2h140v-52h-223z" />
<glyph unicode="&#xe020;" horiz-adv-x="235" d="M30 743l-13 43q38 26 88 26q48 0 74.5 -26t26.5 -65q0 -62 -64 -89v-2q30 -7 53 -33t23 -65q0 -52 -37 -86t-99 -34q-46 0 -81 21l13 47q32 -20 70 -20q31 0 51 18.5t20 51.5q0 37 -23 56.5t-65 19.5h-8v42h7q27 0 53 17t26 47q0 25 -14 38.5t-38 13.5q-32 0 -63 -21z " />
<glyph unicode="&#xe184;" horiz-adv-x="385" d="M251 654h67v-67h41v-45h-41v-301q0 -12 1.5 -42.5t1.5 -40.5h-58l-4 44h-3q-25 -49 -84 -49q-54 0 -87.5 46.5t-33.5 129.5q0 86 37 132t88 46q49 0 73 -40h2v75h-95v45h95v67zM251 282v87q0 15 -1 22q-3 26 -20 44.5t-40 18.5q-35 0 -51.5 -35.5t-16.5 -89.5t16.5 -88.5 t48.5 -34.5q45 0 61 54q3 9 3 22z" />
<glyph unicode="&#xe300;" d="M183 737h74l-92 -114h-47zM41 644h42q2 -27 20 -44t46 -17q30 0 48.5 16.5t20.5 44.5h41q1 -49 -29.5 -80t-80.5 -31t-80 31.5t-28 79.5z" />
<glyph unicode="&#xe301;" d="M41 737h74l64 -114h-47zM41 644h42q2 -27 20 -44t46 -17q30 0 48.5 16.5t20.5 44.5h41q1 -49 -29.5 -80t-80.5 -31t-80 31.5t-28 79.5z" />
<glyph unicode="&#xe302;" d="M162 615l-38 8q5 16 24.5 37.5t19.5 38.5q0 12 -8.5 20t-21.5 8q-21 0 -40 -31l-27 20q29 56 81 56q30 0 50.5 -17.5t20.5 -44.5q0 -25 -28 -55.5t-33 -39.5zM41 644h42q2 -27 20 -44t46 -17q30 0 48.5 16.5t20.5 44.5h41q1 -49 -29.5 -80t-80.5 -31t-80 31.5t-28 79.5z " />
<glyph unicode="&#xe303;" d="M86 679h-43q2 31 17.5 53t43.5 22q18 0 48 -17q28 -16 41 -16q23 0 24 35h41q0 -85 -62 -85q-18 0 -49 18q-30 15 -38 15q-18 0 -23 -25zM41 645h42q2 -28 20 -46t46 -18q30 0 48.5 18t20.5 46h41q1 -50 -29.5 -81t-80.5 -31t-79.5 31.5t-28.5 80.5z" />
<glyph unicode="&#xe304;" d="M123 682h54l63 -135h-56l-32 83h-4l-32 -83h-56zM273 742h67l-77 -117h-41z" />
<glyph unicode="&#xe305;" d="M177 742h68l45 -116h-41zM123 682h54l63 -135h-56l-32 83h-4l-32 -83h-56z" />
<glyph unicode="&#xe306;" d="M123 682h54l63 -135h-56l-32 83h-4l-32 -83h-56zM266 624l-38 8q5 16 24.5 37.5t19.5 38.5q0 13 -8 21t-21 8q-21 0 -41 -32l-26 20q27 56 80 56q30 0 50 -18t20 -45q0 -19 -9.5 -33t-26 -30.5t-24.5 -30.5z" />
<glyph unicode="&#xe307;" d="M124 650h53l76 -103h-61l-41 60h-2l-40 -60h-61zM86 661h-41q-2 35 14.5 60t45.5 25q19 0 49 -17q28 -16 40 -16q24 0 25 34h41q0 -39 -16 -62t-47 -23q-19 0 -48 18q-30 16 -38 16q-20 0 -25 -35z" />
<glyph unicode="&#xe308;" d="M148 -80q18 0 30 -13t12 -32t-12 -31.5t-31 -12.5q-18 0 -31 12.5t-13 31.5t13 32t32 13z" />
<glyph unicode="&#xe309;" d="M161 530l-42 9q5 19 27 47t22 47q0 14 -9 23.5t-23 9.5q-22 0 -40 -32l-28 21q25 60 82 60q32 0 53 -20t21 -50q0 -29 -28.5 -65t-34.5 -50z" />
<glyph unicode="&#xe310;" d="M183 439v45h10q22 0 30 7t8 24q0 28 -14 54l59 9q16 -28 16 -65q0 -33 -20.5 -53.5t-62.5 -20.5h-26z" />
<glyph unicode="&#xe311;" d="M46 785h40q11 -43 65 -43q57 0 68 43h40q-6 -41 -35 -65.5t-72 -24.5q-44 0 -72.5 24t-33.5 66zM189 876h80l-100 -101h-47z" />
<glyph unicode="&#xe312;" d="M38 876h80l67 -101h-47zM43 785h40q12 -43 66 -43q56 0 67 43h40q-6 -41 -35 -65.5t-72 -24.5q-44 0 -72.5 24t-33.5 66z" />
<glyph unicode="&#xe313;" d="M161 764l-36 9q5 15 25 37.5t20 38.5q0 13 -8 21t-21 8q-22 0 -42 -32l-26 20q27 56 82 56q28 0 47.5 -17.5t19.5 -43.5q0 -19 -9.5 -34t-26.5 -32t-25 -31zM44 785h41q11 -43 65 -43q57 0 68 43h40q-6 -41 -35.5 -65.5t-72.5 -24.5t-71.5 24t-34.5 66z" />
<glyph unicode="&#xe314;" d="M88 819h-43q2 30 17 52t44 22q18 0 48 -17q28 -16 40 -16q24 0 25 35h41q0 -85 -63 -85q-19 0 -48 18q-28 16 -38 16q-17 0 -23 -25zM43 785h40q12 -43 66 -43q56 0 67 43h40q-6 -41 -35 -65.5t-72 -24.5q-44 0 -72.5 24t-33.5 66z" />
<glyph unicode="&#xe315;" d="M123 808h61l77 -98h-63l-44 57h-2l-43 -57h-62zM289 882h80l-100 -101h-46z" />
<glyph unicode="&#xe316;" d="M167 867h80l66 -100h-46zM119 808h61l77 -98h-63l-44 57h-2l-43 -57h-62z" />
<glyph unicode="&#xe317;" d="M121 808h60l77 -98h-63l-43 57h-2l-44 -57h-61zM273 752l-36 9q5 15 25 37.5t20 38.5q0 13 -8 21t-20 8q-21 0 -43 -32l-26 20q27 56 82 56q28 0 47.5 -17.5t19.5 -43.5q0 -19 -9.5 -34t-26.5 -32t-25 -31z" />
<glyph unicode="&#xe318;" d="M118 808h66l88 -98h-68l-52 55h-2l-52 -55h-66zM88 820h-42q-1 35 15.5 59.5t45.5 24.5q18 0 48 -17q28 -16 41 -16q22 0 25 35h40q0 -85 -62 -85q-17 0 -49 18q-32 16 -38 16q-21 0 -24 -35z" />
<glyph unicode="&#xe319;" d="M151 -169h-1q-18 0 -31 13t-13 31q0 19 13 32t32 13t31.5 -13t12.5 -32q0 -18 -12.5 -31t-31.5 -13z" />
<glyph unicode="&#xe320;" d="M161 706l-41 9q5 15 25 38t20 40q0 13 -8 21t-21 8q-20 0 -42 -32l-28 21q29 58 85 58q30 0 50.5 -18.5t20.5 -45.5q0 -25 -27.5 -57t-33.5 -42z" />
<glyph unicode="&#xe321;" d="M182 625v49h9q22 0 30.5 6.5t8.5 22.5q0 28 -13 54l59 9q15 -30 15 -65q0 -76 -84 -76h-25z" />
<glyph unicode="&#xefed;" d="M151 727h-1q-18 0 -31 13t-13 32t13 31.5t32 12.5t31.5 -12.5t12.5 -31.5t-12.5 -32t-31.5 -13z" />
<glyph unicode="&#xefee;" d="M43 811h45q8 -43 61 -43t62 43h45q0 -43 -28.5 -69.5t-77.5 -26.5q-50 0 -78.5 25.5t-28.5 70.5z" />
<glyph unicode="&#xeff1;" d="M123 5h54q-44 -66 -44 -102q0 -22 12.5 -34t28.5 -12q25 0 43 9l11 -43q-29 -22 -72 -22q-38 0 -61 22t-23 59q0 58 51 123z" />
<glyph unicode="&#xeff2;" d="M144 5h48l-28 -55q26 -4 45.5 -24t19.5 -47q0 -40 -27 -59.5t-64 -19.5q-35 0 -67 18l16 42q24 -15 50 -15q36 0 36 31q0 36 -69 43z" />
<glyph unicode="&#xeff3;" horiz-adv-x="400" d="M203 869h1q42 0 67 -25.5t25 -62.5q0 -36 -26 -61.5t-67 -25.5q-43 0 -68.5 25t-25.5 61q0 37 26 63t68 26zM202 833h-1q-21 0 -32.5 -15.5t-11.5 -37.5q0 -19 12.5 -34t32.5 -15q21 0 33.5 15t12.5 36t-12.5 36t-33.5 15z" />
<glyph unicode="&#xeff5;" d="M85 718h-42q0 43 16 68.5t44 25.5q19 0 47 -17q30 -18 39 -18q13 0 19 8t8 28h40q2 -90 -62 -90q-21 0 -49 17q-25 17 -36 17q-21 0 -24 -39z" />
<glyph unicode="&#xeff7;" d="M116 808h67l87 -98h-68l-52 55h-2l-51 -55h-67z" />
<glyph unicode="&#xf629;" horiz-adv-x="243" d="M163 -5h-42v60q-41 8 -66 37q-30 37 -30 104q0 54 26.5 92.5t70.5 47.5v59h41v-56q27 0 47 -11l-10 -47q-20 11 -48 11q-31 0 -48.5 -29t-17.5 -69q0 -43 19 -68.5t49 -25.5q28 0 51 10l7 -45q-19 -11 -49 -12v-58z" />
<glyph unicode="&#xf62a;" horiz-adv-x="248" d="M140 -51h-41v61q-42 0 -74 19l13 48q35 -20 69 -20q26 0 40.5 14.5t14.5 37.5q0 40 -54 70q-40 21 -60 44t-20 58q0 36 20.5 61t55.5 34v60h41v-55q36 -1 64 -17l-13 -46q-27 16 -59 16q-25 0 -38 -13.5t-13 -32.5q0 -21 12 -33.5t47 -31.5q75 -40 75 -108 q0 -39 -22 -66.5t-58 -35.5v-64z" />
<glyph unicode="&#xf62b;" horiz-adv-x="168" d="M18 210h132v-45h-132v45z" />
<glyph unicode="&#xf62c;" horiz-adv-x="159" d="M104 429h46q-65 -99 -65 -245q0 -140 65 -243h-46q-69 98 -69 243q0 147 69 245z" />
<glyph unicode="&#xf62d;" horiz-adv-x="159" d="M54 -59h-46q65 101 65 245q0 142 -65 243h46q70 -98 70 -244q0 -144 -70 -244z" />
<glyph unicode="&#xf62e;" horiz-adv-x="243" d="M163 258h-42v60q-41 8 -66 37q-30 37 -30 104q0 54 26.5 92.5t70.5 47.5v59h41v-56q27 0 47 -11l-10 -47q-20 11 -48 11q-31 0 -48.5 -29t-17.5 -69q0 -43 19 -68.5t49 -25.5q28 0 51 10l7 -45q-19 -11 -49 -12v-58z" />
<glyph unicode="&#xf62f;" horiz-adv-x="248" d="M140 212h-41v61q-42 0 -74 19l13 48q35 -20 69 -20q26 0 40.5 14.5t14.5 37.5q0 40 -54 70q-40 21 -60 44t-20 58q0 36 20.5 61t55.5 34v60h41v-55q36 -1 64 -17l-13 -46q-27 16 -59 16q-25 0 -38 -13.5t-13 -32.5q0 -21 12 -33.5t47 -31.5q75 -40 75 -108 q0 -39 -22 -66.5t-58 -35.5v-64z" />
<glyph unicode="&#xf630;" horiz-adv-x="168" d="M18 473h132v-45h-132v45z" />
<glyph unicode="&#xf631;" horiz-adv-x="159" d="M104 692h46q-65 -99 -65 -245q0 -140 65 -243h-46q-69 98 -69 243q0 147 69 245z" />
<glyph unicode="&#xf632;" horiz-adv-x="159" d="M54 204h-46q65 101 65 245q0 142 -65 243h46q70 -98 70 -244q0 -144 -70 -244z" />
<glyph unicode="&#xf633;" horiz-adv-x="590" d="M348 323l29 146q-9 5 -28 5q-55 0 -95.5 -65.5t-40.5 -142.5q0 -63 40 -63q30 0 58 37t37 83zM409 61l12 -34q-60 -38 -148 -38q-104 0 -171 73.5t-67 214.5q0 168 91.5 288t224.5 120q99 0 154 -67t55 -174q0 -138 -42.5 -213.5t-111.5 -75.5q-29 0 -45 20.5t-13 59.5 h-3q-43 -80 -109 -80q-36 0 -58.5 28.5t-22.5 80.5q0 94 58 174t156 80q40 0 70 -14l-40 -202q-20 -105 21 -105q38 0 66.5 64.5t28.5 163.5q0 105 -42.5 162.5t-128.5 57.5q-107 0 -185.5 -105t-78.5 -264q0 -121 54.5 -184t151.5 -63q61 0 123 32z" />
<glyph unicode="&#xf634;" d="M103 -214l-17 37q64 19 64 63q0 34 -33 61l62 11q34 -22 34 -70q0 -44 -31.5 -69t-78.5 -33z" />
<glyph unicode="&#xf638;" horiz-adv-x="385" d="M117 173l135 370q-21 49 -59 49q-46 0 -69 -72.5t-23 -194.5q0 -89 16 -152zM269 478l-135 -373q23 -47 58 -47q46 0 69 72t23 195q0 87 -15 153zM348 656l-35 -78q45 -86 45 -252q0 -169 -46.5 -251.5t-121.5 -82.5q-54 0 -91 42l-23 -53l-38 20l34 74q-45 79 -45 249 q0 164 45 249t126 85q52 0 88 -40l25 57z" />
<glyph unicode="&#xf639;" horiz-adv-x="385" d="M198 658q78 0 119 -87.5t41 -244.5q0 -169 -46.5 -251.5t-122.5 -82.5t-119 87t-43 245q0 162 45 248t126 86zM194 592q-45 0 -67.5 -72.5t-22.5 -194.5q0 -124 22.5 -195.5t68.5 -71.5q86 0 86 267q0 121 -21.5 194t-65.5 73z" />
<glyph unicode="&#xf63a;" horiz-adv-x="336" d="M313 0h-313v50l55 75q45 62 61.5 87t49 79t45.5 98t13 87q0 55 -24 85.5t-69 30.5q-11 0 -22 -2t-19 -4.5t-17.5 -7.5l-14 -7.5t-12.5 -8t-9 -6.5l-19 58q53 44 127 44q77 0 116 -50t39 -128q0 -82 -41.5 -163.5t-118.5 -186.5l-44 -60v-2h217v-68z" />
<glyph unicode="&#xf63b;" horiz-adv-x="334" d="M3 22l17 61q45 -27 94 -27q51 0 81.5 35t30.5 95q0 63 -36 98.5t-95 35.5h-18v58h15q42 1 79.5 31.5t37.5 84.5q0 48 -23.5 74t-62.5 26q-38 0 -81 -31l-17 58q47 37 117 37q67 0 105.5 -42.5t38.5 -107.5q0 -49 -25 -89.5t-72 -62.5v-2q49 -13 81.5 -56t32.5 -114 q0 -82 -50 -137t-136 -55q-71 0 -114 30z" />
<glyph unicode="&#xf63c;" horiz-adv-x="376" d="M296 0h-70v179h-216v52l211 419h75v-408h71v-63h-71v-179zM83 242h143v184q0 42 6 128h-4q-28 -66 -55 -123l-90 -187v-2z" />
<glyph unicode="&#xf63d;" horiz-adv-x="353" d="M316 650v-68h-175l-27 -173q8 2 24 2q29 0 64.5 -12.5t59.5 -36.5q54 -54 54 -148q0 -97 -55 -159.5t-142 -62.5q-67 0 -110 28l17 62q43 -26 91 -26q52 0 87.5 39.5t35.5 110.5q0 74 -40 110t-107 36q-33 0 -51 -3l41 301h233z" />
<glyph unicode="&#xf63e;" horiz-adv-x="385" d="M319 658v-65q-20 -2 -46 -7q-135 -32 -167 -234h3q42 62 110 62q63 0 101.5 -54t38.5 -146q0 -96 -42.5 -159t-117.5 -63q-82 0 -126 73.5t-44 190.5q0 179 84 293q28 40 70.5 67t86.5 36q16 3 49 6zM199 52h1q35 0 58.5 38.5t23.5 117.5q0 72 -23 109.5t-64 37.5 q-56 0 -84 -70q-6 -14 -6 -39q1 -96 27 -145t67 -49z" />
<glyph unicode="&#xf63f;" horiz-adv-x="313" d="M0 650h313v-46l-210 -604h-75l206 580v2h-234v68z" />
<glyph unicode="&#xf640;" horiz-adv-x="385" d="M135 345l-1 2q-40 27 -62.5 67t-22.5 82q0 73 44.5 117.5t107.5 44.5q66 0 102.5 -46t36.5 -107q0 -94 -87 -153v-3q104 -69 104 -177q0 -77 -46.5 -128.5t-120.5 -51.5q-76 0 -119 50.5t-43 116.5q0 111 107 186zM193 49q38 0 63 30t25 88q0 89 -93 150 q-39 -24 -61.5 -63t-22.5 -82q0 -56 24 -89.5t65 -33.5zM195 601q-32 0 -52 -28t-20 -72q0 -45 21.5 -73t58.5 -52q65 47 65 120q0 48 -19 76.5t-54 28.5z" />
<glyph unicode="&#xf641;" horiz-adv-x="385" d="M67 -8v66q23 0 48 6q52 13 89 51q61 68 76 185h-3q-43 -55 -105 -55t-102 53t-40 140q0 92 45.5 156t118.5 64q80 0 121.5 -73.5t41.5 -187.5q0 -186 -86 -301q-57 -78 -150 -99q-26 -5 -54 -5zM190 598h-1q-33 0 -58 -38t-25 -115q0 -70 24 -106t64 -36q24 0 46 15.5 t34 42.5q6 17 6 42q0 98 -24.5 146.5t-65.5 48.5z" />
<glyph unicode="&#xf642;" horiz-adv-x="671" d="M153 607h1q55 0 88 -54t33 -143q0 -96 -35.5 -146.5t-86.5 -50.5q-54 0 -88.5 53t-34.5 143q0 91 35 144.5t88 53.5zM153 559h-1q-33 0 -48 -44.5t-15 -104.5q0 -38 5 -69.5t20 -56t39 -24.5q63 0 63 149q0 150 -63 150zM199 -14h-49l320 626h49zM519 387h1q55 0 88 -54 t33 -143q0 -96 -35.5 -146.5t-86.5 -50.5q-55 0 -89 53t-34 143q0 91 35 144.5t88 53.5zM519 339h-1q-34 0 -48.5 -44.5t-14.5 -104.5t15.5 -105t48.5 -45q63 0 63 149q0 61 -14.5 105.5t-48.5 44.5z" />
<glyph unicode="&#xf643;" horiz-adv-x="387" d="M194 -8h-1q-68 0 -115 63t-47 190q0 126 47.5 189t115.5 63q67 0 114.5 -63t47.5 -189q0 -127 -47.5 -190t-114.5 -63zM194 54h1q45 0 66 54.5t21 136.5t-21 136t-67 54q-32 0 -52.5 -28t-28.5 -69t-8 -93q0 -82 21.5 -136.5t67.5 -54.5z" />
<glyph unicode="&#xf644;" horiz-adv-x="387" d="M272 0h-75v418h-2l-144 -60l-12 59l174 71h59v-488z" />
<glyph unicode="&#xf645;" horiz-adv-x="387" d="M334 0h-290v45l43 46q47 49 74.5 81.5t52.5 80.5t25 90q0 44 -22.5 67.5t-60.5 23.5q-44 0 -85 -31l-21 51q59 44 129 44q58 0 96.5 -39t38.5 -105q0 -62 -31.5 -116t-97.5 -126l-42 -47v-2q34 2 72 2h119v-65z" />
<glyph unicode="&#xf646;" horiz-adv-x="387" d="M44 -97l9 60q26 -6 58 -6q61 0 100.5 34.5t39.5 86.5q0 48 -32 77t-83 29q-29 0 -39 -2l-2 62l16 1q50 6 84.5 35.5t34.5 74.5q0 37 -21 57.5t-56 20.5q-37 0 -80 -19l-14 56q43 27 108 27q63 0 100.5 -36.5t37.5 -91.5q0 -51 -29 -87.5t-72 -51.5v-3q54 -9 89.5 -48.5 t35.5 -97.5q0 -84 -62.5 -135.5t-148.5 -51.5q-43 0 -74 9z" />
<glyph unicode="&#xf647;" horiz-adv-x="387" d="M366 56h-70v-171h-69v171h-208v52l202 383h75v-373h70v-62zM227 118v172q0 64 5 117h-4q-25 -67 -51 -118l-87 -169v-2h137z" />
<glyph unicode="&#xf648;" horiz-adv-x="387" d="M52 -97l8 60q22 -6 53 -6q53 0 94.5 35t41.5 93q0 54 -35 85q-22 20 -65 30.5t-84 8.5l45 279h211l-9 -67h-149l-27 -156q98 -7 147 -59q43 -43 43 -112q0 -90 -61 -145t-152 -55q-39 0 -61 9z" />
<glyph unicode="&#xf649;" horiz-adv-x="387" d="M323 605l9 -60q-176 -34 -215 -221h4q16 28 42.5 44.5t56.5 16.5q54 0 95 -50t41 -137q0 -96 -46 -151t-115 -55q-73 0 -117.5 62.5t-44.5 172.5q0 152 77 254t213 124zM197 50h1q33 0 57 35.5t24 105.5q0 65 -22 100.5t-57 35.5q-32 0 -56 -27q-34 -37 -34 -98 q0 -76 25.5 -114t61.5 -38z" />
<glyph unicode="&#xf64a;" horiz-adv-x="387" d="M340 488v-43q-24 -96 -89.5 -264t-124.5 -285l-72 12q54 99 120 262t88 247v4h-204v67h282z" />
<glyph unicode="&#xf64b;" horiz-adv-x="387" d="M254 320v-3q43 -23 72 -63t29 -93q0 -77 -47 -123t-117 -46q-74 0 -117.5 48t-43.5 111q0 92 104 163v2q-85 54 -85 135q0 70 44.5 113t107.5 43q57 0 97.5 -39.5t40.5 -107.5q0 -82 -85 -140zM199 553h-1q-33 0 -55 -26.5t-22 -69.5q0 -37 21 -63.5t64 -49.5 q62 46 62 114q0 47 -21.5 71t-47.5 24zM193 49h1q36 0 61.5 27t25.5 76q0 84 -97 136q-79 -50 -79 -129q0 -48 24 -79t64 -31z" />
<glyph unicode="&#xf64c;" horiz-adv-x="387" d="M53 -111l-9 60q95 12 150.5 65.5t71.5 136.5l-2 1q-27 -49 -93 -49q-55 0 -95.5 50.5t-40.5 139.5q0 93 45.5 148.5t112.5 55.5q71 0 115.5 -63t44.5 -163q0 -164 -78.5 -266.5t-221.5 -115.5zM195 158h1q27 0 48 23q32 34 32 101q0 70 -24 113.5t-63 43.5q-32 0 -55 -34 t-23 -104q0 -74 24 -108.5t60 -34.5z" />
<glyph unicode="&#xf64e;" horiz-adv-x="387" d="M343 74l13 -61q-36 -21 -88 -21q-77 0 -128 51q-51 49 -64 138h-43v45h39v21q0 28 1 36h-40v46h46q13 85 64 138q55 54 133 54q39 0 77 -17l-14 -62q-28 13 -63 13q-45 0 -77 -31q-35 -35 -43 -95h162v-46h-167q-2 -14 -2 -31v-26h169v-45h-162q7 -57 40 -92 q33 -32 82 -32q35 0 65 17z" />
<glyph unicode="&#xf64f;" horiz-adv-x="387" d="M74 290v60h82l6 59q24 198 158 198q32 0 55 -12l-12 -58q-20 7 -43 7q-66 0 -83 -127l-8 -67h91v-60h-96l-26 -211q-12 -98 -44 -147.5t-103 -48.5q-40 0 -64 17l15 55q20 -10 45 -10q33 0 52 34t29 116l22 195h-76z" />
<glyph unicode="&#xf650;" horiz-adv-x="387" d="M143 218h78l19 153h-78zM114 -12h-52l23 178h-64v52h71l20 153h-70v50h77l22 174h51l-23 -174h78l23 174h50l-23 -174h64v-50h-70l-19 -153h69v-51h-76l-23 -179h-52l23 179h-77z" />
<glyph unicode="&#xf651;" horiz-adv-x="387" d="M354 0h-322v48q42 18 66 49.5t24 68.5q0 15 -6 53h-77v50h66q-11 53 -11 81q0 82 44.5 129t110.5 47q44 0 78 -21l-17 -61q-24 16 -61 16t-58.5 -28t-21.5 -80q0 -28 11 -83h112v-50h-103q5 -30 5 -44q0 -70 -55 -108v-2h215v-65z" />
<glyph unicode="&#xf652;" horiz-adv-x="387" d="M225 0h-71v118h-121v46h121v53h-121v46h102l-120 250h80l65 -153q13 -32 33 -86h2q11 34 34 88l67 151h76l-128 -250h104v-46h-123v-53h123v-46h-123v-118z" />
<glyph unicode="&#xf653;" horiz-adv-x="387" d="M214 -68h-53v70q-63 0 -113 33l19 56q46 -31 102 -31q41 0 66 21t25 55q0 52 -88 92q-58 27 -88.5 57t-30.5 75t32 79t81 44v78h53v-73q56 -1 96 -27l-21 -55q-33 24 -82 24q-38 0 -62 -18.5t-24 -46.5q0 -26 21.5 -45t72.5 -41q114 -49 114 -138q0 -54 -34 -89.5 t-86 -45.5v-74z" />
<glyph unicode="&#xf654;" horiz-adv-x="387" d="M296 129l11 -54q-29 -16 -69 -17v-68h-52v71q-66 12 -99 63t-33 129q0 75 36 128t96 66v68h52v-64q42 -2 65 -14l-14 -55q-26 12 -62 12q-48 0 -74.5 -40t-26.5 -102q0 -65 27 -101t75 -36q38 0 68 14z" />
<glyph unicode="&#xf655;" horiz-adv-x="265" d="M131 -5h-1q-54 0 -83.5 54t-29.5 145q0 93 31.5 147t87.5 54t83.5 -53.5t27.5 -144.5q0 -100 -31.5 -151t-84.5 -51zM133 45h1q52 0 52 151q0 149 -52 149q-27 0 -41.5 -39.5t-14.5 -109.5q0 -151 55 -151z" />
<glyph unicode="&#xf656;" horiz-adv-x="212" d="M157 0h-60v333h-2l-73 -39l-11 48l95 48h51v-390z" />
<glyph unicode="&#xf657;" horiz-adv-x="245" d="M2 0v29l41 50l53.5 68t37 61.5t20.5 69.5q0 32 -16 48.5t-44 16.5q-32 0 -66 -27l-16 44q35 35 98 35q54 0 81 -30.5t27 -76.5q0 -76 -103 -197l-30 -37v-2h140v-52h-223z" />
<glyph unicode="&#xf658;" horiz-adv-x="235" d="M30 326l-13 43q38 26 88 26q48 0 74.5 -26t26.5 -65q0 -62 -64 -89v-2q30 -7 53 -33t23 -65q0 -52 -37 -86t-99 -34q-46 0 -81 21l13 47q32 -20 70 -20q31 0 51 18.5t20 51.5q0 37 -23 56.5t-65 19.5h-8v42h7q27 0 53 17t26 47q0 25 -14 38.5t-38 13.5q-32 0 -63 -21z " />
<glyph unicode="&#xf659;" horiz-adv-x="270" d="M213 0h-57v106h-147v36l144 251h60v-240h46v-47h-46v-106zM156 153v100q0 5 4 73h-2l-15 -31t-19 -38l-56 -102v-2h88z" />
<glyph unicode="&#xf65a;" horiz-adv-x="246" d="M219 390v-53h-117l-13 -89q4 1 18 1q47 0 78 -27q39 -32 39 -93q0 -58 -36.5 -96t-96.5 -38q-49 0 -78 18l12 47q30 -15 63 -15q32 0 53.5 21t21.5 58q0 80 -94 80q-16 0 -36 -2l24 188h162z" />
<glyph unicode="&#xf65b;" horiz-adv-x="266" d="M218 395v-50q-20 0 -32 -3q-89 -17 -106 -126h2q25 37 71 37q42 0 68.5 -33.5t26.5 -88.5q0 -58 -29.5 -97t-81.5 -39q-56 0 -87.5 45t-31.5 117q0 110 59 177q42 48 106 58q23 3 35 3zM136 41h1q23 0 36.5 23t13.5 65q0 37 -14.5 58.5t-39.5 21.5q-34 0 -51 -38 q-4 -10 -4 -27q0 -48 15.5 -75.5t42.5 -27.5z" />
<glyph unicode="&#xf65c;" horiz-adv-x="228" d="M10 390h214v-39l-137 -351h-61l135 336v1h-151v53z" />
<glyph unicode="&#xf65d;" horiz-adv-x="266" d="M137 395h1q45 0 72 -27.5t27 -66.5q0 -56 -55 -90v-2q66 -36 66 -102q0 -50 -33 -81t-83 -31q-52 0 -82.5 30t-30.5 73q0 68 65 107v1q-53 33 -53 88q0 45 30.5 73t75.5 28zM134 38h1q23 0 38 17.5t15 47.5q0 53 -59 81q-51 -25 -51 -78q0 -30 15 -49t41 -19zM135 353h-1 q-21 0 -33.5 -16t-12.5 -40q0 -45 52 -68q40 23 40 66q0 26 -11.5 42t-33.5 16z" />
<glyph unicode="&#xf65e;" horiz-adv-x="262" d="M45 -5v50q15 0 34 3q35 6 59 30q34 31 45 96h-2q-26 -31 -68 -31t-69 32t-27 85q0 55 32 95t83 40q54 0 83 -44.5t29 -115.5q0 -114 -60 -183q-40 -46 -102 -55q-13 -2 -37 -2zM129 349h-1q-21 0 -36 -22.5t-15 -62.5q0 -36 14 -57t39 -21q34 0 49 31q4 9 4 29 q0 49 -14.5 76t-39.5 27z" />
<glyph unicode="&#xf65f;" horiz-adv-x="128" d="M46 -70l-41 -5q24 67 37 149l65 6q-32 -102 -61 -150z" />
<glyph unicode="&#xf660;" horiz-adv-x="128" d="M64 -5h-1q-16 0 -26.5 11.5t-10.5 30.5q0 18 11.5 30.5t27.5 12.5t26.5 -12t10.5 -31t-10 -30.5t-28 -11.5z" />
<glyph unicode="&#xf661;" horiz-adv-x="265" d="M131 258h-1q-54 0 -83.5 54t-29.5 145q0 93 31.5 147t87.5 54t83.5 -53.5t27.5 -144.5q0 -100 -31.5 -151t-84.5 -51zM133 308h1q52 0 52 151q0 149 -52 149q-27 0 -41.5 -39.5t-14.5 -109.5q0 -151 55 -151z" />
</font>
</defs>
</svg>
